ISO-10303-21;
HEADER;
/* Generated by software containing ST-Developer
 * from STEP Tools, Inc. (www.steptools.com) 
 */

FILE_DESCRIPTION(
/* description */ (''),
/* implementation_level */ '2;1');

FILE_NAME(
/* name */ 'desk buddy printable FINAL.step',
/* time_stamp */ '2026-09-27T16:46:49+05:30',
/* author */ (''),
/* organization */ (''),
/* preprocessor_version */ 'ST-DEVELOPER v20.2',
/* originating_system */ 'Autodesk Translation Framework v15.15.0.0',
/* authorisation */ '');

FILE_SCHEMA (('AUTOMOTIVE_DESIGN { 1 0 10303 214 3 1 1 }'));
ENDSEC;

DATA;
#10=MECHANICAL_DESIGN_GEOMETRIC_PRESENTATION_REPRESENTATION('',(#32,#33),
#2173);
#11=ITEM_DEFINED_TRANSFORMATION($,$,#1343,#1438);
#12=ITEM_DEFINED_TRANSFORMATION($,$,#1362,#1439);
#13=(
REPRESENTATION_RELATIONSHIP($,$,#2187,#2186)
REPRESENTATION_RELATIONSHIP_WITH_TRANSFORMATION(#11)
SHAPE_REPRESENTATION_RELATIONSHIP()
);
#14=(
REPRESENTATION_RELATIONSHIP($,$,#2188,#2186)
REPRESENTATION_RELATIONSHIP_WITH_TRANSFORMATION(#12)
SHAPE_REPRESENTATION_RELATIONSHIP()
);
#15=CONTEXT_DEPENDENT_SHAPE_REPRESENTATION(#13,#2184);
#16=CONTEXT_DEPENDENT_SHAPE_REPRESENTATION(#14,#2185);
#17=NEXT_ASSEMBLY_USAGE_OCCURRENCE('Final desk back v2:1',
'Final desk back v2:1','Final desk back v2:1',#2190,#2191,
'Final desk back v2:1');
#18=NEXT_ASSEMBLY_USAGE_OCCURRENCE('Final desk front v15:1',
'Final desk front v15:1','Final desk front v15:1',#2190,#2192,
'Final desk front v15:1');
#19=FACE_BOUND('',#199,.T.);
#20=FACE_BOUND('',#200,.T.);
#21=FACE_BOUND('',#203,.T.);
#22=FACE_BOUND('',#221,.T.);
#23=FACE_BOUND('',#222,.T.);
#24=FACE_BOUND('',#223,.T.);
#25=FACE_BOUND('',#226,.T.);
#26=FACE_BOUND('',#232,.T.);
#27=FACE_BOUND('',#235,.T.);
#28=SHAPE_REPRESENTATION_RELATIONSHIP('SRR','None',#2187,#30);
#29=SHAPE_REPRESENTATION_RELATIONSHIP('SRR','None',#2188,#31);
#30=ADVANCED_BREP_SHAPE_REPRESENTATION('',(#34),#2171);
#31=ADVANCED_BREP_SHAPE_REPRESENTATION('',(#35),#2172);
#32=STYLED_ITEM('',(#2205),#34);
#33=STYLED_ITEM('',(#2205),#35);
#34=MANIFOLD_SOLID_BREP('Body1',#1317);
#35=MANIFOLD_SOLID_BREP('Body1',#1318);
#36=PLANE('',#1347);
#37=PLANE('',#1351);
#38=PLANE('',#1356);
#39=PLANE('',#1357);
#40=PLANE('',#1360);
#41=PLANE('',#1361);
#42=PLANE('',#1363);
#43=PLANE('',#1364);
#44=PLANE('',#1365);
#45=PLANE('',#1366);
#46=PLANE('',#1367);
#47=PLANE('',#1368);
#48=PLANE('',#1369);
#49=PLANE('',#1370);
#50=PLANE('',#1371);
#51=PLANE('',#1372);
#52=PLANE('',#1373);
#53=PLANE('',#1374);
#54=PLANE('',#1375);
#55=PLANE('',#1376);
#56=PLANE('',#1377);
#57=PLANE('',#1378);
#58=PLANE('',#1379);
#59=PLANE('',#1380);
#60=PLANE('',#1381);
#61=PLANE('',#1382);
#62=PLANE('',#1383);
#63=PLANE('',#1384);
#64=PLANE('',#1385);
#65=PLANE('',#1386);
#66=PLANE('',#1387);
#67=PLANE('',#1388);
#68=PLANE('',#1389);
#69=PLANE('',#1390);
#70=PLANE('',#1391);
#71=PLANE('',#1392);
#72=PLANE('',#1393);
#73=PLANE('',#1394);
#74=PLANE('',#1395);
#75=PLANE('',#1396);
#76=PLANE('',#1397);
#77=PLANE('',#1398);
#78=PLANE('',#1399);
#79=PLANE('',#1400);
#80=PLANE('',#1401);
#81=PLANE('',#1402);
#82=PLANE('',#1403);
#83=PLANE('',#1404);
#84=PLANE('',#1408);
#85=PLANE('',#1412);
#86=PLANE('',#1417);
#87=PLANE('',#1420);
#88=PLANE('',#1424);
#89=PLANE('',#1425);
#90=PLANE('',#1431);
#91=PLANE('',#1435);
#92=PLANE('',#1437);
#93=FACE_OUTER_BOUND('',#162,.T.);
#94=FACE_OUTER_BOUND('',#163,.T.);
#95=FACE_OUTER_BOUND('',#164,.T.);
#96=FACE_OUTER_BOUND('',#165,.T.);
#97=FACE_OUTER_BOUND('',#166,.T.);
#98=FACE_OUTER_BOUND('',#167,.T.);
#99=FACE_OUTER_BOUND('',#168,.T.);
#100=FACE_OUTER_BOUND('',#169,.T.);
#101=FACE_OUTER_BOUND('',#170,.T.);
#102=FACE_OUTER_BOUND('',#171,.T.);
#103=FACE_OUTER_BOUND('',#172,.T.);
#104=FACE_OUTER_BOUND('',#173,.T.);
#105=FACE_OUTER_BOUND('',#174,.T.);
#106=FACE_OUTER_BOUND('',#175,.T.);
#107=FACE_OUTER_BOUND('',#176,.T.);
#108=FACE_OUTER_BOUND('',#177,.T.);
#109=FACE_OUTER_BOUND('',#178,.T.);
#110=FACE_OUTER_BOUND('',#179,.T.);
#111=FACE_OUTER_BOUND('',#180,.T.);
#112=FACE_OUTER_BOUND('',#181,.T.);
#113=FACE_OUTER_BOUND('',#182,.T.);
#114=FACE_OUTER_BOUND('',#183,.T.);
#115=FACE_OUTER_BOUND('',#184,.T.);
#116=FACE_OUTER_BOUND('',#185,.T.);
#117=FACE_OUTER_BOUND('',#186,.T.);
#118=FACE_OUTER_BOUND('',#187,.T.);
#119=FACE_OUTER_BOUND('',#188,.T.);
#120=FACE_OUTER_BOUND('',#189,.T.);
#121=FACE_OUTER_BOUND('',#190,.T.);
#122=FACE_OUTER_BOUND('',#191,.T.);
#123=FACE_OUTER_BOUND('',#192,.T.);
#124=FACE_OUTER_BOUND('',#193,.T.);
#125=FACE_OUTER_BOUND('',#194,.T.);
#126=FACE_OUTER_BOUND('',#195,.T.);
#127=FACE_OUTER_BOUND('',#196,.T.);
#128=FACE_OUTER_BOUND('',#197,.T.);
#129=FACE_OUTER_BOUND('',#198,.T.);
#130=FACE_OUTER_BOUND('',#201,.T.);
#131=FACE_OUTER_BOUND('',#202,.T.);
#132=FACE_OUTER_BOUND('',#204,.T.);
#133=FACE_OUTER_BOUND('',#205,.T.);
#134=FACE_OUTER_BOUND('',#206,.T.);
#135=FACE_OUTER_BOUND('',#207,.T.);
#136=FACE_OUTER_BOUND('',#208,.T.);
#137=FACE_OUTER_BOUND('',#209,.T.);
#138=FACE_OUTER_BOUND('',#210,.T.);
#139=FACE_OUTER_BOUND('',#211,.T.);
#140=FACE_OUTER_BOUND('',#212,.T.);
#141=FACE_OUTER_BOUND('',#213,.T.);
#142=FACE_OUTER_BOUND('',#214,.T.);
#143=FACE_OUTER_BOUND('',#215,.T.);
#144=FACE_OUTER_BOUND('',#216,.T.);
#145=FACE_OUTER_BOUND('',#217,.T.);
#146=FACE_OUTER_BOUND('',#218,.T.);
#147=FACE_OUTER_BOUND('',#219,.T.);
#148=FACE_OUTER_BOUND('',#220,.T.);
#149=FACE_OUTER_BOUND('',#224,.T.);
#150=FACE_OUTER_BOUND('',#225,.T.);
#151=FACE_OUTER_BOUND('',#227,.T.);
#152=FACE_OUTER_BOUND('',#228,.T.);
#153=FACE_OUTER_BOUND('',#229,.T.);
#154=FACE_OUTER_BOUND('',#230,.T.);
#155=FACE_OUTER_BOUND('',#231,.T.);
#156=FACE_OUTER_BOUND('',#233,.T.);
#157=FACE_OUTER_BOUND('',#234,.T.);
#158=FACE_OUTER_BOUND('',#236,.T.);
#159=FACE_OUTER_BOUND('',#237,.T.);
#160=FACE_OUTER_BOUND('',#238,.T.);
#161=FACE_OUTER_BOUND('',#239,.T.);
#162=EDGE_LOOP('',(#876,#877,#878,#879));
#163=EDGE_LOOP('',(#880,#881,#882,#883,#884,#885,#886,#887));
#164=EDGE_LOOP('',(#888,#889,#890,#891));
#165=EDGE_LOOP('',(#892,#893,#894,#895));
#166=EDGE_LOOP('',(#896,#897,#898,#899));
#167=EDGE_LOOP('',(#900,#901,#902,#903));
#168=EDGE_LOOP('',(#904,#905,#906,#907,#908,#909,#910,#911));
#169=EDGE_LOOP('',(#912,#913,#914,#915));
#170=EDGE_LOOP('',(#916,#917,#918,#919));
#171=EDGE_LOOP('',(#920,#921,#922,#923));
#172=EDGE_LOOP('',(#924,#925,#926,#927));
#173=EDGE_LOOP('',(#928,#929,#930,#931));
#174=EDGE_LOOP('',(#932,#933,#934,#935));
#175=EDGE_LOOP('',(#936,#937,#938,#939));
#176=EDGE_LOOP('',(#940,#941,#942,#943));
#177=EDGE_LOOP('',(#944,#945,#946,#947));
#178=EDGE_LOOP('',(#948,#949,#950,#951));
#179=EDGE_LOOP('',(#952,#953,#954,#955));
#180=EDGE_LOOP('',(#956,#957,#958,#959,#960,#961));
#181=EDGE_LOOP('',(#962,#963,#964,#965,#966,#967));
#182=EDGE_LOOP('',(#968,#969,#970,#971,#972,#973));
#183=EDGE_LOOP('',(#974,#975,#976,#977));
#184=EDGE_LOOP('',(#978,#979,#980,#981,#982,#983));
#185=EDGE_LOOP('',(#984,#985,#986,#987));
#186=EDGE_LOOP('',(#988,#989,#990,#991));
#187=EDGE_LOOP('',(#992,#993,#994,#995));
#188=EDGE_LOOP('',(#996,#997,#998,#999));
#189=EDGE_LOOP('',(#1000,#1001,#1002,#1003));
#190=EDGE_LOOP('',(#1004,#1005,#1006,#1007));
#191=EDGE_LOOP('',(#1008,#1009,#1010,#1011));
#192=EDGE_LOOP('',(#1012,#1013,#1014,#1015,#1016,#1017,#1018,#1019));
#193=EDGE_LOOP('',(#1020,#1021,#1022,#1023));
#194=EDGE_LOOP('',(#1024,#1025,#1026,#1027,#1028,#1029,#1030,#1031));
#195=EDGE_LOOP('',(#1032,#1033,#1034,#1035));
#196=EDGE_LOOP('',(#1036,#1037,#1038,#1039));
#197=EDGE_LOOP('',(#1040,#1041,#1042,#1043));
#198=EDGE_LOOP('',(#1044,#1045,#1046,#1047));
#199=EDGE_LOOP('',(#1048,#1049,#1050,#1051));
#200=EDGE_LOOP('',(#1052,#1053,#1054,#1055,#1056,#1057,#1058,#1059));
#201=EDGE_LOOP('',(#1060,#1061,#1062,#1063));
#202=EDGE_LOOP('',(#1064,#1065,#1066,#1067));
#203=EDGE_LOOP('',(#1068,#1069,#1070,#1071,#1072,#1073,#1074,#1075));
#204=EDGE_LOOP('',(#1076,#1077,#1078,#1079));
#205=EDGE_LOOP('',(#1080,#1081,#1082,#1083));
#206=EDGE_LOOP('',(#1084,#1085,#1086,#1087));
#207=EDGE_LOOP('',(#1088,#1089,#1090,#1091));
#208=EDGE_LOOP('',(#1092,#1093,#1094,#1095));
#209=EDGE_LOOP('',(#1096,#1097,#1098,#1099));
#210=EDGE_LOOP('',(#1100,#1101,#1102,#1103));
#211=EDGE_LOOP('',(#1104,#1105,#1106,#1107));
#212=EDGE_LOOP('',(#1108,#1109,#1110,#1111));
#213=EDGE_LOOP('',(#1112,#1113,#1114,#1115));
#214=EDGE_LOOP('',(#1116,#1117,#1118,#1119));
#215=EDGE_LOOP('',(#1120,#1121,#1122,#1123));
#216=EDGE_LOOP('',(#1124,#1125,#1126,#1127));
#217=EDGE_LOOP('',(#1128,#1129,#1130,#1131));
#218=EDGE_LOOP('',(#1132,#1133,#1134,#1135));
#219=EDGE_LOOP('',(#1136,#1137,#1138,#1139));
#220=EDGE_LOOP('',(#1140,#1141,#1142,#1143,#1144,#1145,#1146,#1147));
#221=EDGE_LOOP('',(#1148,#1149,#1150,#1151));
#222=EDGE_LOOP('',(#1152,#1153,#1154,#1155));
#223=EDGE_LOOP('',(#1156,#1157,#1158,#1159));
#224=EDGE_LOOP('',(#1160,#1161,#1162,#1163));
#225=EDGE_LOOP('',(#1164,#1165,#1166,#1167));
#226=EDGE_LOOP('',(#1168,#1169,#1170,#1171));
#227=EDGE_LOOP('',(#1172,#1173,#1174,#1175));
#228=EDGE_LOOP('',(#1176,#1177,#1178,#1179));
#229=EDGE_LOOP('',(#1180,#1181,#1182,#1183));
#230=EDGE_LOOP('',(#1184,#1185,#1186,#1187));
#231=EDGE_LOOP('',(#1188,#1189,#1190,#1191,#1192,#1193,#1194,#1195));
#232=EDGE_LOOP('',(#1196,#1197,#1198,#1199,#1200,#1201,#1202,#1203));
#233=EDGE_LOOP('',(#1204,#1205,#1206,#1207));
#234=EDGE_LOOP('',(#1208,#1209,#1210,#1211,#1212,#1213,#1214,#1215));
#235=EDGE_LOOP('',(#1216,#1217,#1218,#1219));
#236=EDGE_LOOP('',(#1220,#1221,#1222,#1223));
#237=EDGE_LOOP('',(#1224,#1225,#1226,#1227));
#238=EDGE_LOOP('',(#1228,#1229,#1230,#1231));
#239=EDGE_LOOP('',(#1232,#1233,#1234,#1235));
#240=LINE('',#1799,#396);
#241=LINE('',#1802,#397);
#242=LINE('',#1805,#398);
#243=LINE('',#1809,#399);
#244=LINE('',#1813,#400);
#245=LINE('',#1816,#401);
#246=LINE('',#1819,#402);
#247=LINE('',#1820,#403);
#248=LINE('',#1824,#404);
#249=LINE('',#1829,#405);
#250=LINE('',#1830,#406);
#251=LINE('',#1833,#407);
#252=LINE('',#1834,#408);
#253=LINE('',#1837,#409);
#254=LINE('',#1839,#410);
#255=LINE('',#1841,#411);
#256=LINE('',#1848,#412);
#257=LINE('',#1850,#413);
#258=LINE('',#1852,#414);
#259=LINE('',#1853,#415);
#260=LINE('',#1856,#416);
#261=LINE('',#1858,#417);
#262=LINE('',#1859,#418);
#263=LINE('',#1862,#419);
#264=LINE('',#1864,#420);
#265=LINE('',#1865,#421);
#266=LINE('',#1868,#422);
#267=LINE('',#1870,#423);
#268=LINE('',#1871,#424);
#269=LINE('',#1875,#425);
#270=LINE('',#1877,#426);
#271=LINE('',#1879,#427);
#272=LINE('',#1880,#428);
#273=LINE('',#1884,#429);
#274=LINE('',#1886,#430);
#275=LINE('',#1888,#431);
#276=LINE('',#1889,#432);
#277=LINE('',#1891,#433);
#278=LINE('',#1892,#434);
#279=LINE('',#1896,#435);
#280=LINE('',#1897,#436);
#281=LINE('',#1898,#437);
#282=LINE('',#1900,#438);
#283=LINE('',#1902,#439);
#284=LINE('',#1906,#440);
#285=LINE('',#1907,#441);
#286=LINE('',#1908,#442);
#287=LINE('',#1911,#443);
#288=LINE('',#1912,#444);
#289=LINE('',#1915,#445);
#290=LINE('',#1916,#446);
#291=LINE('',#1918,#447);
#292=LINE('',#1922,#448);
#293=LINE('',#1924,#449);
#294=LINE('',#1926,#450);
#295=LINE('',#1927,#451);
#296=LINE('',#1930,#452);
#297=LINE('',#1932,#453);
#298=LINE('',#1933,#454);
#299=LINE('',#1936,#455);
#300=LINE('',#1938,#456);
#301=LINE('',#1939,#457);
#302=LINE('',#1942,#458);
#303=LINE('',#1944,#459);
#304=LINE('',#1945,#460);
#305=LINE('',#1948,#461);
#306=LINE('',#1950,#462);
#307=LINE('',#1951,#463);
#308=LINE('',#1955,#464);
#309=LINE('',#1956,#465);
#310=LINE('',#1957,#466);
#311=LINE('',#1960,#467);
#312=LINE('',#1961,#468);
#313=LINE('',#1964,#469);
#314=LINE('',#1965,#470);
#315=LINE('',#1967,#471);
#316=LINE('',#1971,#472);
#317=LINE('',#1973,#473);
#318=LINE('',#1975,#474);
#319=LINE('',#1976,#475);
#320=LINE('',#1979,#476);
#321=LINE('',#1981,#477);
#322=LINE('',#1982,#478);
#323=LINE('',#1985,#479);
#324=LINE('',#1987,#480);
#325=LINE('',#1988,#481);
#326=LINE('',#1992,#482);
#327=LINE('',#1994,#483);
#328=LINE('',#1996,#484);
#329=LINE('',#1997,#485);
#330=LINE('',#1999,#486);
#331=LINE('',#2001,#487);
#332=LINE('',#2003,#488);
#333=LINE('',#2005,#489);
#334=LINE('',#2006,#490);
#335=LINE('',#2009,#491);
#336=LINE('',#2010,#492);
#337=LINE('',#2014,#493);
#338=LINE('',#2016,#494);
#339=LINE('',#2018,#495);
#340=LINE('',#2019,#496);
#341=LINE('',#2021,#497);
#342=LINE('',#2023,#498);
#343=LINE('',#2025,#499);
#344=LINE('',#2026,#500);
#345=LINE('',#2028,#501);
#346=LINE('',#2030,#502);
#347=LINE('',#2032,#503);
#348=LINE('',#2037,#504);
#349=LINE('',#2039,#505);
#350=LINE('',#2041,#506);
#351=LINE('',#2042,#507);
#352=LINE('',#2045,#508);
#353=LINE('',#2047,#509);
#354=LINE('',#2048,#510);
#355=LINE('',#2051,#511);
#356=LINE('',#2053,#512);
#357=LINE('',#2054,#513);
#358=LINE('',#2056,#514);
#359=LINE('',#2057,#515);
#360=LINE('',#2061,#516);
#361=LINE('',#2063,#517);
#362=LINE('',#2065,#518);
#363=LINE('',#2066,#519);
#364=LINE('',#2069,#520);
#365=LINE('',#2071,#521);
#366=LINE('',#2072,#522);
#367=LINE('',#2075,#523);
#368=LINE('',#2077,#524);
#369=LINE('',#2078,#525);
#370=LINE('',#2080,#526);
#371=LINE('',#2081,#527);
#372=LINE('',#2088,#528);
#373=LINE('',#2091,#529);
#374=LINE('',#2094,#530);
#375=LINE('',#2096,#531);
#376=LINE('',#2097,#532);
#377=LINE('',#2102,#533);
#378=LINE('',#2105,#534);
#379=LINE('',#2109,#535);
#380=LINE('',#2114,#536);
#381=LINE('',#2117,#537);
#382=LINE('',#2118,#538);
#383=LINE('',#2122,#539);
#384=LINE('',#2128,#540);
#385=LINE('',#2131,#541);
#386=LINE('',#2134,#542);
#387=LINE('',#2136,#543);
#388=LINE('',#2137,#544);
#389=LINE('',#2140,#545);
#390=LINE('',#2145,#546);
#391=LINE('',#2150,#547);
#392=LINE('',#2155,#548);
#393=LINE('',#2157,#549);
#394=LINE('',#2159,#550);
#395=LINE('',#2161,#551);
#396=VECTOR('',#1448,10.);
#397=VECTOR('',#1451,10.);
#398=VECTOR('',#1454,10.);
#399=VECTOR('',#1457,10.);
#400=VECTOR('',#1460,10.);
#401=VECTOR('',#1463,10.);
#402=VECTOR('',#1466,10.);
#403=VECTOR('',#1467,10.);
#404=VECTOR('',#1472,10.);
#405=VECTOR('',#1477,10.);
#406=VECTOR('',#1478,10.);
#407=VECTOR('',#1481,10.);
#408=VECTOR('',#1482,10.);
#409=VECTOR('',#1485,10.);
#410=VECTOR('',#1488,10.);
#411=VECTOR('',#1491,10.);
#412=VECTOR('',#1500,10.);
#413=VECTOR('',#1501,10.);
#414=VECTOR('',#1502,10.);
#415=VECTOR('',#1503,10.);
#416=VECTOR('',#1506,10.);
#417=VECTOR('',#1507,10.);
#418=VECTOR('',#1508,10.);
#419=VECTOR('',#1511,10.);
#420=VECTOR('',#1512,10.);
#421=VECTOR('',#1513,10.);
#422=VECTOR('',#1516,10.);
#423=VECTOR('',#1517,10.);
#424=VECTOR('',#1518,10.);
#425=VECTOR('',#1521,10.);
#426=VECTOR('',#1522,10.);
#427=VECTOR('',#1523,10.);
#428=VECTOR('',#1524,10.);
#429=VECTOR('',#1527,10.);
#430=VECTOR('',#1528,10.);
#431=VECTOR('',#1529,10.);
#432=VECTOR('',#1530,10.);
#433=VECTOR('',#1533,10.);
#434=VECTOR('',#1534,10.);
#435=VECTOR('',#1537,10.);
#436=VECTOR('',#1538,10.);
#437=VECTOR('',#1539,10.);
#438=VECTOR('',#1542,10.);
#439=VECTOR('',#1545,10.);
#440=VECTOR('',#1548,10.);
#441=VECTOR('',#1549,10.);
#442=VECTOR('',#1550,10.);
#443=VECTOR('',#1553,10.);
#444=VECTOR('',#1554,10.);
#445=VECTOR('',#1557,10.);
#446=VECTOR('',#1558,10.);
#447=VECTOR('',#1561,10.);
#448=VECTOR('',#1564,10.);
#449=VECTOR('',#1565,10.);
#450=VECTOR('',#1566,10.);
#451=VECTOR('',#1567,10.);
#452=VECTOR('',#1570,10.);
#453=VECTOR('',#1571,10.);
#454=VECTOR('',#1572,10.);
#455=VECTOR('',#1575,10.);
#456=VECTOR('',#1576,10.);
#457=VECTOR('',#1577,10.);
#458=VECTOR('',#1580,10.);
#459=VECTOR('',#1581,10.);
#460=VECTOR('',#1582,10.);
#461=VECTOR('',#1585,10.);
#462=VECTOR('',#1586,10.);
#463=VECTOR('',#1587,10.);
#464=VECTOR('',#1590,10.);
#465=VECTOR('',#1591,10.);
#466=VECTOR('',#1592,10.);
#467=VECTOR('',#1595,10.);
#468=VECTOR('',#1596,10.);
#469=VECTOR('',#1599,10.);
#470=VECTOR('',#1600,10.);
#471=VECTOR('',#1603,10.);
#472=VECTOR('',#1606,10.);
#473=VECTOR('',#1607,10.);
#474=VECTOR('',#1608,10.);
#475=VECTOR('',#1609,10.);
#476=VECTOR('',#1612,10.);
#477=VECTOR('',#1613,10.);
#478=VECTOR('',#1614,10.);
#479=VECTOR('',#1617,10.);
#480=VECTOR('',#1618,10.);
#481=VECTOR('',#1619,10.);
#482=VECTOR('',#1622,10.);
#483=VECTOR('',#1623,10.);
#484=VECTOR('',#1624,10.);
#485=VECTOR('',#1625,10.);
#486=VECTOR('',#1626,10.);
#487=VECTOR('',#1627,10.);
#488=VECTOR('',#1628,10.);
#489=VECTOR('',#1629,10.);
#490=VECTOR('',#1630,10.);
#491=VECTOR('',#1633,10.);
#492=VECTOR('',#1634,10.);
#493=VECTOR('',#1637,10.);
#494=VECTOR('',#1638,10.);
#495=VECTOR('',#1639,10.);
#496=VECTOR('',#1640,10.);
#497=VECTOR('',#1641,10.);
#498=VECTOR('',#1642,10.);
#499=VECTOR('',#1643,10.);
#500=VECTOR('',#1644,10.);
#501=VECTOR('',#1647,10.);
#502=VECTOR('',#1650,10.);
#503=VECTOR('',#1653,10.);
#504=VECTOR('',#1658,10.);
#505=VECTOR('',#1659,10.);
#506=VECTOR('',#1660,10.);
#507=VECTOR('',#1661,10.);
#508=VECTOR('',#1664,10.);
#509=VECTOR('',#1665,10.);
#510=VECTOR('',#1666,10.);
#511=VECTOR('',#1669,10.);
#512=VECTOR('',#1670,10.);
#513=VECTOR('',#1671,10.);
#514=VECTOR('',#1674,10.);
#515=VECTOR('',#1675,10.);
#516=VECTOR('',#1678,10.);
#517=VECTOR('',#1679,10.);
#518=VECTOR('',#1680,10.);
#519=VECTOR('',#1681,10.);
#520=VECTOR('',#1684,10.);
#521=VECTOR('',#1685,10.);
#522=VECTOR('',#1686,10.);
#523=VECTOR('',#1689,10.);
#524=VECTOR('',#1690,10.);
#525=VECTOR('',#1691,10.);
#526=VECTOR('',#1694,10.);
#527=VECTOR('',#1695,10.);
#528=VECTOR('',#1702,10.);
#529=VECTOR('',#1705,10.);
#530=VECTOR('',#1708,10.);
#531=VECTOR('',#1709,10.);
#532=VECTOR('',#1710,10.);
#533=VECTOR('',#1715,10.);
#534=VECTOR('',#1720,10.);
#535=VECTOR('',#1723,10.);
#536=VECTOR('',#1730,10.);
#537=VECTOR('',#1733,10.);
#538=VECTOR('',#1734,10.);
#539=VECTOR('',#1741,10.);
#540=VECTOR('',#1746,10.);
#541=VECTOR('',#1749,10.);
#542=VECTOR('',#1752,10.);
#543=VECTOR('',#1753,10.);
#544=VECTOR('',#1754,10.);
#545=VECTOR('',#1757,10.);
#546=VECTOR('',#1762,10.);
#547=VECTOR('',#1769,10.);
#548=VECTOR('',#1774,10.);
#549=VECTOR('',#1777,10.);
#550=VECTOR('',#1780,10.);
#551=VECTOR('',#1783,10.);
#552=CIRCLE('',#1345,10.);
#553=CIRCLE('',#1346,10.);
#554=CIRCLE('',#1348,10.);
#555=CIRCLE('',#1349,10.);
#556=CIRCLE('',#1350,10.);
#557=CIRCLE('',#1353,10.);
#558=CIRCLE('',#1355,10.);
#559=CIRCLE('',#1358,10.);
#560=CIRCLE('',#1406,8.5);
#561=CIRCLE('',#1407,8.5);
#562=CIRCLE('',#1410,8.5);
#563=CIRCLE('',#1411,8.5);
#564=CIRCLE('',#1413,8.5);
#565=CIRCLE('',#1414,8.5);
#566=CIRCLE('',#1416,8.5);
#567=CIRCLE('',#1419,8.5);
#568=CIRCLE('',#1422,10.);
#569=CIRCLE('',#1423,10.);
#570=CIRCLE('',#1426,10.);
#571=CIRCLE('',#1427,10.);
#572=CIRCLE('',#1428,10.);
#573=CIRCLE('',#1430,10.);
#574=CIRCLE('',#1432,10.);
#575=CIRCLE('',#1433,10.);
#576=VERTEX_POINT('',#1795);
#577=VERTEX_POINT('',#1796);
#578=VERTEX_POINT('',#1798);
#579=VERTEX_POINT('',#1800);
#580=VERTEX_POINT('',#1804);
#581=VERTEX_POINT('',#1806);
#582=VERTEX_POINT('',#1808);
#583=VERTEX_POINT('',#1810);
#584=VERTEX_POINT('',#1812);
#585=VERTEX_POINT('',#1814);
#586=VERTEX_POINT('',#1818);
#587=VERTEX_POINT('',#1822);
#588=VERTEX_POINT('',#1826);
#589=VERTEX_POINT('',#1827);
#590=VERTEX_POINT('',#1832);
#591=VERTEX_POINT('',#1836);
#592=VERTEX_POINT('',#1846);
#593=VERTEX_POINT('',#1847);
#594=VERTEX_POINT('',#1849);
#595=VERTEX_POINT('',#1851);
#596=VERTEX_POINT('',#1855);
#597=VERTEX_POINT('',#1857);
#598=VERTEX_POINT('',#1861);
#599=VERTEX_POINT('',#1863);
#600=VERTEX_POINT('',#1867);
#601=VERTEX_POINT('',#1869);
#602=VERTEX_POINT('',#1873);
#603=VERTEX_POINT('',#1874);
#604=VERTEX_POINT('',#1876);
#605=VERTEX_POINT('',#1878);
#606=VERTEX_POINT('',#1882);
#607=VERTEX_POINT('',#1883);
#608=VERTEX_POINT('',#1885);
#609=VERTEX_POINT('',#1887);
#610=VERTEX_POINT('',#1894);
#611=VERTEX_POINT('',#1895);
#612=VERTEX_POINT('',#1904);
#613=VERTEX_POINT('',#1905);
#614=VERTEX_POINT('',#1910);
#615=VERTEX_POINT('',#1914);
#616=VERTEX_POINT('',#1920);
#617=VERTEX_POINT('',#1921);
#618=VERTEX_POINT('',#1923);
#619=VERTEX_POINT('',#1925);
#620=VERTEX_POINT('',#1929);
#621=VERTEX_POINT('',#1931);
#622=VERTEX_POINT('',#1935);
#623=VERTEX_POINT('',#1937);
#624=VERTEX_POINT('',#1941);
#625=VERTEX_POINT('',#1943);
#626=VERTEX_POINT('',#1947);
#627=VERTEX_POINT('',#1949);
#628=VERTEX_POINT('',#1953);
#629=VERTEX_POINT('',#1954);
#630=VERTEX_POINT('',#1959);
#631=VERTEX_POINT('',#1963);
#632=VERTEX_POINT('',#1969);
#633=VERTEX_POINT('',#1970);
#634=VERTEX_POINT('',#1972);
#635=VERTEX_POINT('',#1974);
#636=VERTEX_POINT('',#1978);
#637=VERTEX_POINT('',#1980);
#638=VERTEX_POINT('',#1984);
#639=VERTEX_POINT('',#1986);
#640=VERTEX_POINT('',#1990);
#641=VERTEX_POINT('',#1991);
#642=VERTEX_POINT('',#1993);
#643=VERTEX_POINT('',#1995);
#644=VERTEX_POINT('',#1998);
#645=VERTEX_POINT('',#2000);
#646=VERTEX_POINT('',#2002);
#647=VERTEX_POINT('',#2004);
#648=VERTEX_POINT('',#2008);
#649=VERTEX_POINT('',#2012);
#650=VERTEX_POINT('',#2013);
#651=VERTEX_POINT('',#2015);
#652=VERTEX_POINT('',#2017);
#653=VERTEX_POINT('',#2020);
#654=VERTEX_POINT('',#2022);
#655=VERTEX_POINT('',#2024);
#656=VERTEX_POINT('',#2035);
#657=VERTEX_POINT('',#2036);
#658=VERTEX_POINT('',#2038);
#659=VERTEX_POINT('',#2040);
#660=VERTEX_POINT('',#2044);
#661=VERTEX_POINT('',#2046);
#662=VERTEX_POINT('',#2050);
#663=VERTEX_POINT('',#2052);
#664=VERTEX_POINT('',#2059);
#665=VERTEX_POINT('',#2060);
#666=VERTEX_POINT('',#2062);
#667=VERTEX_POINT('',#2064);
#668=VERTEX_POINT('',#2068);
#669=VERTEX_POINT('',#2070);
#670=VERTEX_POINT('',#2074);
#671=VERTEX_POINT('',#2076);
#672=VERTEX_POINT('',#2084);
#673=VERTEX_POINT('',#2085);
#674=VERTEX_POINT('',#2087);
#675=VERTEX_POINT('',#2089);
#676=VERTEX_POINT('',#2093);
#677=VERTEX_POINT('',#2095);
#678=VERTEX_POINT('',#2099);
#679=VERTEX_POINT('',#2101);
#680=VERTEX_POINT('',#2106);
#681=VERTEX_POINT('',#2108);
#682=VERTEX_POINT('',#2112);
#683=VERTEX_POINT('',#2116);
#684=VERTEX_POINT('',#2124);
#685=VERTEX_POINT('',#2125);
#686=VERTEX_POINT('',#2127);
#687=VERTEX_POINT('',#2129);
#688=VERTEX_POINT('',#2133);
#689=VERTEX_POINT('',#2135);
#690=VERTEX_POINT('',#2139);
#691=VERTEX_POINT('',#2142);
#692=VERTEX_POINT('',#2144);
#693=VERTEX_POINT('',#2148);
#694=VERTEX_POINT('',#2152);
#695=VERTEX_POINT('',#2154);
#696=EDGE_CURVE('',#576,#577,#552,.T.);
#697=EDGE_CURVE('',#577,#578,#240,.T.);
#698=EDGE_CURVE('',#578,#579,#553,.T.);
#699=EDGE_CURVE('',#579,#576,#241,.T.);
#700=EDGE_CURVE('',#580,#578,#242,.T.);
#701=EDGE_CURVE('',#581,#580,#554,.T.);
#702=EDGE_CURVE('',#581,#582,#243,.T.);
#703=EDGE_CURVE('',#583,#582,#555,.T.);
#704=EDGE_CURVE('',#584,#583,#244,.T.);
#705=EDGE_CURVE('',#585,#584,#556,.T.);
#706=EDGE_CURVE('',#579,#585,#245,.T.);
#707=EDGE_CURVE('',#577,#586,#246,.T.);
#708=EDGE_CURVE('',#580,#586,#247,.T.);
#709=EDGE_CURVE('',#586,#587,#557,.T.);
#710=EDGE_CURVE('',#587,#581,#248,.T.);
#711=EDGE_CURVE('',#588,#589,#558,.T.);
#712=EDGE_CURVE('',#589,#583,#249,.T.);
#713=EDGE_CURVE('',#582,#588,#250,.T.);
#714=EDGE_CURVE('',#589,#590,#251,.T.);
#715=EDGE_CURVE('',#584,#590,#252,.T.);
#716=EDGE_CURVE('',#576,#591,#253,.T.);
#717=EDGE_CURVE('',#590,#591,#559,.T.);
#718=EDGE_CURVE('',#587,#588,#254,.T.);
#719=EDGE_CURVE('',#591,#585,#255,.T.);
#720=EDGE_CURVE('',#592,#593,#256,.T.);
#721=EDGE_CURVE('',#592,#594,#257,.T.);
#722=EDGE_CURVE('',#595,#594,#258,.T.);
#723=EDGE_CURVE('',#593,#595,#259,.T.);
#724=EDGE_CURVE('',#594,#596,#260,.T.);
#725=EDGE_CURVE('',#596,#597,#261,.T.);
#726=EDGE_CURVE('',#597,#595,#262,.T.);
#727=EDGE_CURVE('',#598,#593,#263,.T.);
#728=EDGE_CURVE('',#599,#598,#264,.T.);
#729=EDGE_CURVE('',#599,#592,#265,.T.);
#730=EDGE_CURVE('',#600,#597,#266,.T.);
#731=EDGE_CURVE('',#601,#596,#267,.T.);
#732=EDGE_CURVE('',#601,#600,#268,.T.);
#733=EDGE_CURVE('',#602,#603,#269,.T.);
#734=EDGE_CURVE('',#602,#604,#270,.T.);
#735=EDGE_CURVE('',#605,#604,#271,.T.);
#736=EDGE_CURVE('',#603,#605,#272,.T.);
#737=EDGE_CURVE('',#606,#607,#273,.T.);
#738=EDGE_CURVE('',#608,#607,#274,.T.);
#739=EDGE_CURVE('',#608,#609,#275,.T.);
#740=EDGE_CURVE('',#609,#606,#276,.T.);
#741=EDGE_CURVE('',#607,#605,#277,.T.);
#742=EDGE_CURVE('',#604,#608,#278,.T.);
#743=EDGE_CURVE('',#610,#611,#279,.T.);
#744=EDGE_CURVE('',#610,#600,#280,.T.);
#745=EDGE_CURVE('',#611,#601,#281,.T.);
#746=EDGE_CURVE('',#611,#599,#282,.T.);
#747=EDGE_CURVE('',#598,#610,#283,.T.);
#748=EDGE_CURVE('',#612,#613,#284,.T.);
#749=EDGE_CURVE('',#612,#609,#285,.T.);
#750=EDGE_CURVE('',#613,#602,#286,.T.);
#751=EDGE_CURVE('',#613,#614,#287,.T.);
#752=EDGE_CURVE('',#614,#603,#288,.T.);
#753=EDGE_CURVE('',#614,#615,#289,.T.);
#754=EDGE_CURVE('',#615,#606,#290,.T.);
#755=EDGE_CURVE('',#615,#612,#291,.T.);
#756=EDGE_CURVE('',#616,#617,#292,.T.);
#757=EDGE_CURVE('',#616,#618,#293,.T.);
#758=EDGE_CURVE('',#619,#618,#294,.T.);
#759=EDGE_CURVE('',#617,#619,#295,.T.);
#760=EDGE_CURVE('',#618,#620,#296,.T.);
#761=EDGE_CURVE('',#620,#621,#297,.T.);
#762=EDGE_CURVE('',#621,#619,#298,.T.);
#763=EDGE_CURVE('',#617,#622,#299,.T.);
#764=EDGE_CURVE('',#623,#622,#300,.T.);
#765=EDGE_CURVE('',#623,#616,#301,.T.);
#766=EDGE_CURVE('',#624,#620,#302,.T.);
#767=EDGE_CURVE('',#625,#624,#303,.T.);
#768=EDGE_CURVE('',#621,#625,#304,.T.);
#769=EDGE_CURVE('',#624,#626,#305,.T.);
#770=EDGE_CURVE('',#626,#627,#306,.T.);
#771=EDGE_CURVE('',#627,#625,#307,.T.);
#772=EDGE_CURVE('',#628,#629,#308,.T.);
#773=EDGE_CURVE('',#628,#623,#309,.T.);
#774=EDGE_CURVE('',#629,#622,#310,.T.);
#775=EDGE_CURVE('',#629,#630,#311,.T.);
#776=EDGE_CURVE('',#630,#627,#312,.T.);
#777=EDGE_CURVE('',#630,#631,#313,.T.);
#778=EDGE_CURVE('',#631,#626,#314,.T.);
#779=EDGE_CURVE('',#631,#628,#315,.T.);
#780=EDGE_CURVE('',#632,#633,#316,.T.);
#781=EDGE_CURVE('',#634,#632,#317,.T.);
#782=EDGE_CURVE('',#635,#634,#318,.T.);
#783=EDGE_CURVE('',#635,#633,#319,.T.);
#784=EDGE_CURVE('',#633,#636,#320,.T.);
#785=EDGE_CURVE('',#637,#635,#321,.T.);
#786=EDGE_CURVE('',#636,#637,#322,.T.);
#787=EDGE_CURVE('',#638,#632,#323,.T.);
#788=EDGE_CURVE('',#639,#638,#324,.T.);
#789=EDGE_CURVE('',#634,#639,#325,.T.);
#790=EDGE_CURVE('',#640,#641,#326,.T.);
#791=EDGE_CURVE('',#642,#641,#327,.T.);
#792=EDGE_CURVE('',#642,#643,#328,.T.);
#793=EDGE_CURVE('',#640,#643,#329,.T.);
#794=EDGE_CURVE('',#636,#644,#330,.T.);
#795=EDGE_CURVE('',#644,#645,#331,.T.);
#796=EDGE_CURVE('',#645,#646,#332,.T.);
#797=EDGE_CURVE('',#646,#647,#333,.T.);
#798=EDGE_CURVE('',#647,#638,#334,.T.);
#799=EDGE_CURVE('',#648,#637,#335,.T.);
#800=EDGE_CURVE('',#648,#644,#336,.T.);
#801=EDGE_CURVE('',#649,#650,#337,.T.);
#802=EDGE_CURVE('',#649,#651,#338,.T.);
#803=EDGE_CURVE('',#652,#651,#339,.T.);
#804=EDGE_CURVE('',#650,#652,#340,.T.);
#805=EDGE_CURVE('',#639,#653,#341,.T.);
#806=EDGE_CURVE('',#653,#654,#342,.T.);
#807=EDGE_CURVE('',#654,#655,#343,.T.);
#808=EDGE_CURVE('',#655,#648,#344,.T.);
#809=EDGE_CURVE('',#653,#647,#345,.T.);
#810=EDGE_CURVE('',#655,#645,#346,.T.);
#811=EDGE_CURVE('',#654,#646,#347,.T.);
#812=EDGE_CURVE('',#656,#657,#348,.T.);
#813=EDGE_CURVE('',#658,#656,#349,.T.);
#814=EDGE_CURVE('',#659,#658,#350,.T.);
#815=EDGE_CURVE('',#659,#657,#351,.T.);
#816=EDGE_CURVE('',#657,#660,#352,.T.);
#817=EDGE_CURVE('',#661,#659,#353,.T.);
#818=EDGE_CURVE('',#661,#660,#354,.T.);
#819=EDGE_CURVE('',#660,#662,#355,.T.);
#820=EDGE_CURVE('',#663,#661,#356,.T.);
#821=EDGE_CURVE('',#663,#662,#357,.T.);
#822=EDGE_CURVE('',#662,#656,#358,.T.);
#823=EDGE_CURVE('',#658,#663,#359,.T.);
#824=EDGE_CURVE('',#664,#665,#360,.T.);
#825=EDGE_CURVE('',#664,#666,#361,.T.);
#826=EDGE_CURVE('',#666,#667,#362,.T.);
#827=EDGE_CURVE('',#665,#667,#363,.T.);
#828=EDGE_CURVE('',#668,#664,#364,.T.);
#829=EDGE_CURVE('',#668,#669,#365,.T.);
#830=EDGE_CURVE('',#669,#666,#366,.T.);
#831=EDGE_CURVE('',#670,#668,#367,.T.);
#832=EDGE_CURVE('',#670,#671,#368,.T.);
#833=EDGE_CURVE('',#671,#669,#369,.T.);
#834=EDGE_CURVE('',#665,#670,#370,.T.);
#835=EDGE_CURVE('',#667,#671,#371,.T.);
#836=EDGE_CURVE('',#672,#673,#560,.T.);
#837=EDGE_CURVE('',#674,#672,#372,.T.);
#838=EDGE_CURVE('',#675,#674,#561,.T.);
#839=EDGE_CURVE('',#673,#675,#373,.T.);
#840=EDGE_CURVE('',#675,#676,#374,.F.);
#841=EDGE_CURVE('',#676,#677,#375,.T.);
#842=EDGE_CURVE('',#673,#677,#376,.T.);
#843=EDGE_CURVE('',#678,#640,#562,.T.);
#844=EDGE_CURVE('',#679,#678,#377,.T.);
#845=EDGE_CURVE('',#641,#679,#563,.T.);
#846=EDGE_CURVE('',#678,#674,#378,.F.);
#847=EDGE_CURVE('',#643,#680,#564,.F.);
#848=EDGE_CURVE('',#680,#681,#379,.F.);
#849=EDGE_CURVE('',#681,#676,#565,.F.);
#850=EDGE_CURVE('',#677,#682,#566,.T.);
#851=EDGE_CURVE('',#682,#681,#380,.T.);
#852=EDGE_CURVE('',#680,#683,#381,.T.);
#853=EDGE_CURVE('',#682,#683,#382,.T.);
#854=EDGE_CURVE('',#683,#642,#567,.T.);
#855=EDGE_CURVE('',#679,#672,#383,.T.);
#856=EDGE_CURVE('',#684,#685,#568,.T.);
#857=EDGE_CURVE('',#685,#686,#384,.T.);
#858=EDGE_CURVE('',#686,#687,#569,.T.);
#859=EDGE_CURVE('',#687,#684,#385,.T.);
#860=EDGE_CURVE('',#685,#688,#386,.T.);
#861=EDGE_CURVE('',#689,#688,#387,.T.);
#862=EDGE_CURVE('',#686,#689,#388,.T.);
#863=EDGE_CURVE('',#684,#690,#389,.T.);
#864=EDGE_CURVE('',#650,#690,#570,.T.);
#865=EDGE_CURVE('',#691,#652,#571,.T.);
#866=EDGE_CURVE('',#692,#691,#390,.T.);
#867=EDGE_CURVE('',#688,#692,#572,.T.);
#868=EDGE_CURVE('',#693,#649,#573,.T.);
#869=EDGE_CURVE('',#690,#693,#391,.T.);
#870=EDGE_CURVE('',#694,#689,#574,.T.);
#871=EDGE_CURVE('',#695,#694,#392,.T.);
#872=EDGE_CURVE('',#651,#695,#575,.T.);
#873=EDGE_CURVE('',#693,#687,#393,.T.);
#874=EDGE_CURVE('',#692,#694,#394,.T.);
#875=EDGE_CURVE('',#695,#691,#395,.T.);
#876=ORIENTED_EDGE('',*,*,#696,.T.);
#877=ORIENTED_EDGE('',*,*,#697,.T.);
#878=ORIENTED_EDGE('',*,*,#698,.T.);
#879=ORIENTED_EDGE('',*,*,#699,.T.);
#880=ORIENTED_EDGE('',*,*,#698,.F.);
#881=ORIENTED_EDGE('',*,*,#700,.F.);
#882=ORIENTED_EDGE('',*,*,#701,.F.);
#883=ORIENTED_EDGE('',*,*,#702,.T.);
#884=ORIENTED_EDGE('',*,*,#703,.F.);
#885=ORIENTED_EDGE('',*,*,#704,.F.);
#886=ORIENTED_EDGE('',*,*,#705,.F.);
#887=ORIENTED_EDGE('',*,*,#706,.F.);
#888=ORIENTED_EDGE('',*,*,#697,.F.);
#889=ORIENTED_EDGE('',*,*,#707,.T.);
#890=ORIENTED_EDGE('',*,*,#708,.F.);
#891=ORIENTED_EDGE('',*,*,#700,.T.);
#892=ORIENTED_EDGE('',*,*,#701,.T.);
#893=ORIENTED_EDGE('',*,*,#708,.T.);
#894=ORIENTED_EDGE('',*,*,#709,.T.);
#895=ORIENTED_EDGE('',*,*,#710,.T.);
#896=ORIENTED_EDGE('',*,*,#711,.T.);
#897=ORIENTED_EDGE('',*,*,#712,.T.);
#898=ORIENTED_EDGE('',*,*,#703,.T.);
#899=ORIENTED_EDGE('',*,*,#713,.T.);
#900=ORIENTED_EDGE('',*,*,#712,.F.);
#901=ORIENTED_EDGE('',*,*,#714,.T.);
#902=ORIENTED_EDGE('',*,*,#715,.F.);
#903=ORIENTED_EDGE('',*,*,#704,.T.);
#904=ORIENTED_EDGE('',*,*,#696,.F.);
#905=ORIENTED_EDGE('',*,*,#716,.T.);
#906=ORIENTED_EDGE('',*,*,#717,.F.);
#907=ORIENTED_EDGE('',*,*,#714,.F.);
#908=ORIENTED_EDGE('',*,*,#711,.F.);
#909=ORIENTED_EDGE('',*,*,#718,.F.);
#910=ORIENTED_EDGE('',*,*,#709,.F.);
#911=ORIENTED_EDGE('',*,*,#707,.F.);
#912=ORIENTED_EDGE('',*,*,#705,.T.);
#913=ORIENTED_EDGE('',*,*,#715,.T.);
#914=ORIENTED_EDGE('',*,*,#717,.T.);
#915=ORIENTED_EDGE('',*,*,#719,.T.);
#916=ORIENTED_EDGE('',*,*,#699,.F.);
#917=ORIENTED_EDGE('',*,*,#706,.T.);
#918=ORIENTED_EDGE('',*,*,#719,.F.);
#919=ORIENTED_EDGE('',*,*,#716,.F.);
#920=ORIENTED_EDGE('',*,*,#710,.F.);
#921=ORIENTED_EDGE('',*,*,#718,.T.);
#922=ORIENTED_EDGE('',*,*,#713,.F.);
#923=ORIENTED_EDGE('',*,*,#702,.F.);
#924=ORIENTED_EDGE('',*,*,#720,.F.);
#925=ORIENTED_EDGE('',*,*,#721,.T.);
#926=ORIENTED_EDGE('',*,*,#722,.F.);
#927=ORIENTED_EDGE('',*,*,#723,.F.);
#928=ORIENTED_EDGE('',*,*,#722,.T.);
#929=ORIENTED_EDGE('',*,*,#724,.T.);
#930=ORIENTED_EDGE('',*,*,#725,.T.);
#931=ORIENTED_EDGE('',*,*,#726,.T.);
#932=ORIENTED_EDGE('',*,*,#720,.T.);
#933=ORIENTED_EDGE('',*,*,#727,.F.);
#934=ORIENTED_EDGE('',*,*,#728,.F.);
#935=ORIENTED_EDGE('',*,*,#729,.T.);
#936=ORIENTED_EDGE('',*,*,#730,.T.);
#937=ORIENTED_EDGE('',*,*,#725,.F.);
#938=ORIENTED_EDGE('',*,*,#731,.F.);
#939=ORIENTED_EDGE('',*,*,#732,.T.);
#940=ORIENTED_EDGE('',*,*,#733,.F.);
#941=ORIENTED_EDGE('',*,*,#734,.T.);
#942=ORIENTED_EDGE('',*,*,#735,.F.);
#943=ORIENTED_EDGE('',*,*,#736,.F.);
#944=ORIENTED_EDGE('',*,*,#737,.T.);
#945=ORIENTED_EDGE('',*,*,#738,.F.);
#946=ORIENTED_EDGE('',*,*,#739,.T.);
#947=ORIENTED_EDGE('',*,*,#740,.T.);
#948=ORIENTED_EDGE('',*,*,#738,.T.);
#949=ORIENTED_EDGE('',*,*,#741,.T.);
#950=ORIENTED_EDGE('',*,*,#735,.T.);
#951=ORIENTED_EDGE('',*,*,#742,.T.);
#952=ORIENTED_EDGE('',*,*,#743,.F.);
#953=ORIENTED_EDGE('',*,*,#744,.T.);
#954=ORIENTED_EDGE('',*,*,#732,.F.);
#955=ORIENTED_EDGE('',*,*,#745,.F.);
#956=ORIENTED_EDGE('',*,*,#746,.F.);
#957=ORIENTED_EDGE('',*,*,#745,.T.);
#958=ORIENTED_EDGE('',*,*,#731,.T.);
#959=ORIENTED_EDGE('',*,*,#724,.F.);
#960=ORIENTED_EDGE('',*,*,#721,.F.);
#961=ORIENTED_EDGE('',*,*,#729,.F.);
#962=ORIENTED_EDGE('',*,*,#747,.F.);
#963=ORIENTED_EDGE('',*,*,#727,.T.);
#964=ORIENTED_EDGE('',*,*,#723,.T.);
#965=ORIENTED_EDGE('',*,*,#726,.F.);
#966=ORIENTED_EDGE('',*,*,#730,.F.);
#967=ORIENTED_EDGE('',*,*,#744,.F.);
#968=ORIENTED_EDGE('',*,*,#748,.F.);
#969=ORIENTED_EDGE('',*,*,#749,.T.);
#970=ORIENTED_EDGE('',*,*,#739,.F.);
#971=ORIENTED_EDGE('',*,*,#742,.F.);
#972=ORIENTED_EDGE('',*,*,#734,.F.);
#973=ORIENTED_EDGE('',*,*,#750,.F.);
#974=ORIENTED_EDGE('',*,*,#751,.F.);
#975=ORIENTED_EDGE('',*,*,#750,.T.);
#976=ORIENTED_EDGE('',*,*,#733,.T.);
#977=ORIENTED_EDGE('',*,*,#752,.F.);
#978=ORIENTED_EDGE('',*,*,#753,.F.);
#979=ORIENTED_EDGE('',*,*,#752,.T.);
#980=ORIENTED_EDGE('',*,*,#736,.T.);
#981=ORIENTED_EDGE('',*,*,#741,.F.);
#982=ORIENTED_EDGE('',*,*,#737,.F.);
#983=ORIENTED_EDGE('',*,*,#754,.F.);
#984=ORIENTED_EDGE('',*,*,#755,.F.);
#985=ORIENTED_EDGE('',*,*,#754,.T.);
#986=ORIENTED_EDGE('',*,*,#740,.F.);
#987=ORIENTED_EDGE('',*,*,#749,.F.);
#988=ORIENTED_EDGE('',*,*,#756,.F.);
#989=ORIENTED_EDGE('',*,*,#757,.T.);
#990=ORIENTED_EDGE('',*,*,#758,.F.);
#991=ORIENTED_EDGE('',*,*,#759,.F.);
#992=ORIENTED_EDGE('',*,*,#758,.T.);
#993=ORIENTED_EDGE('',*,*,#760,.T.);
#994=ORIENTED_EDGE('',*,*,#761,.T.);
#995=ORIENTED_EDGE('',*,*,#762,.T.);
#996=ORIENTED_EDGE('',*,*,#756,.T.);
#997=ORIENTED_EDGE('',*,*,#763,.T.);
#998=ORIENTED_EDGE('',*,*,#764,.F.);
#999=ORIENTED_EDGE('',*,*,#765,.T.);
#1000=ORIENTED_EDGE('',*,*,#766,.F.);
#1001=ORIENTED_EDGE('',*,*,#767,.F.);
#1002=ORIENTED_EDGE('',*,*,#768,.F.);
#1003=ORIENTED_EDGE('',*,*,#761,.F.);
#1004=ORIENTED_EDGE('',*,*,#769,.T.);
#1005=ORIENTED_EDGE('',*,*,#770,.T.);
#1006=ORIENTED_EDGE('',*,*,#771,.T.);
#1007=ORIENTED_EDGE('',*,*,#767,.T.);
#1008=ORIENTED_EDGE('',*,*,#772,.F.);
#1009=ORIENTED_EDGE('',*,*,#773,.T.);
#1010=ORIENTED_EDGE('',*,*,#764,.T.);
#1011=ORIENTED_EDGE('',*,*,#774,.F.);
#1012=ORIENTED_EDGE('',*,*,#775,.F.);
#1013=ORIENTED_EDGE('',*,*,#774,.T.);
#1014=ORIENTED_EDGE('',*,*,#763,.F.);
#1015=ORIENTED_EDGE('',*,*,#759,.T.);
#1016=ORIENTED_EDGE('',*,*,#762,.F.);
#1017=ORIENTED_EDGE('',*,*,#768,.T.);
#1018=ORIENTED_EDGE('',*,*,#771,.F.);
#1019=ORIENTED_EDGE('',*,*,#776,.F.);
#1020=ORIENTED_EDGE('',*,*,#777,.F.);
#1021=ORIENTED_EDGE('',*,*,#776,.T.);
#1022=ORIENTED_EDGE('',*,*,#770,.F.);
#1023=ORIENTED_EDGE('',*,*,#778,.F.);
#1024=ORIENTED_EDGE('',*,*,#779,.F.);
#1025=ORIENTED_EDGE('',*,*,#778,.T.);
#1026=ORIENTED_EDGE('',*,*,#769,.F.);
#1027=ORIENTED_EDGE('',*,*,#766,.T.);
#1028=ORIENTED_EDGE('',*,*,#760,.F.);
#1029=ORIENTED_EDGE('',*,*,#757,.F.);
#1030=ORIENTED_EDGE('',*,*,#765,.F.);
#1031=ORIENTED_EDGE('',*,*,#773,.F.);
#1032=ORIENTED_EDGE('',*,*,#780,.F.);
#1033=ORIENTED_EDGE('',*,*,#781,.F.);
#1034=ORIENTED_EDGE('',*,*,#782,.F.);
#1035=ORIENTED_EDGE('',*,*,#783,.T.);
#1036=ORIENTED_EDGE('',*,*,#784,.F.);
#1037=ORIENTED_EDGE('',*,*,#783,.F.);
#1038=ORIENTED_EDGE('',*,*,#785,.F.);
#1039=ORIENTED_EDGE('',*,*,#786,.F.);
#1040=ORIENTED_EDGE('',*,*,#787,.F.);
#1041=ORIENTED_EDGE('',*,*,#788,.F.);
#1042=ORIENTED_EDGE('',*,*,#789,.F.);
#1043=ORIENTED_EDGE('',*,*,#781,.T.);
#1044=ORIENTED_EDGE('',*,*,#790,.T.);
#1045=ORIENTED_EDGE('',*,*,#791,.F.);
#1046=ORIENTED_EDGE('',*,*,#792,.T.);
#1047=ORIENTED_EDGE('',*,*,#793,.F.);
#1048=ORIENTED_EDGE('',*,*,#772,.T.);
#1049=ORIENTED_EDGE('',*,*,#775,.T.);
#1050=ORIENTED_EDGE('',*,*,#777,.T.);
#1051=ORIENTED_EDGE('',*,*,#779,.T.);
#1052=ORIENTED_EDGE('',*,*,#787,.T.);
#1053=ORIENTED_EDGE('',*,*,#780,.T.);
#1054=ORIENTED_EDGE('',*,*,#784,.T.);
#1055=ORIENTED_EDGE('',*,*,#794,.T.);
#1056=ORIENTED_EDGE('',*,*,#795,.T.);
#1057=ORIENTED_EDGE('',*,*,#796,.T.);
#1058=ORIENTED_EDGE('',*,*,#797,.T.);
#1059=ORIENTED_EDGE('',*,*,#798,.T.);
#1060=ORIENTED_EDGE('',*,*,#786,.T.);
#1061=ORIENTED_EDGE('',*,*,#799,.F.);
#1062=ORIENTED_EDGE('',*,*,#800,.T.);
#1063=ORIENTED_EDGE('',*,*,#794,.F.);
#1064=ORIENTED_EDGE('',*,*,#801,.F.);
#1065=ORIENTED_EDGE('',*,*,#802,.T.);
#1066=ORIENTED_EDGE('',*,*,#803,.F.);
#1067=ORIENTED_EDGE('',*,*,#804,.F.);
#1068=ORIENTED_EDGE('',*,*,#785,.T.);
#1069=ORIENTED_EDGE('',*,*,#782,.T.);
#1070=ORIENTED_EDGE('',*,*,#789,.T.);
#1071=ORIENTED_EDGE('',*,*,#805,.T.);
#1072=ORIENTED_EDGE('',*,*,#806,.T.);
#1073=ORIENTED_EDGE('',*,*,#807,.T.);
#1074=ORIENTED_EDGE('',*,*,#808,.T.);
#1075=ORIENTED_EDGE('',*,*,#799,.T.);
#1076=ORIENTED_EDGE('',*,*,#788,.T.);
#1077=ORIENTED_EDGE('',*,*,#798,.F.);
#1078=ORIENTED_EDGE('',*,*,#809,.F.);
#1079=ORIENTED_EDGE('',*,*,#805,.F.);
#1080=ORIENTED_EDGE('',*,*,#795,.F.);
#1081=ORIENTED_EDGE('',*,*,#800,.F.);
#1082=ORIENTED_EDGE('',*,*,#808,.F.);
#1083=ORIENTED_EDGE('',*,*,#810,.T.);
#1084=ORIENTED_EDGE('',*,*,#796,.F.);
#1085=ORIENTED_EDGE('',*,*,#810,.F.);
#1086=ORIENTED_EDGE('',*,*,#807,.F.);
#1087=ORIENTED_EDGE('',*,*,#811,.T.);
#1088=ORIENTED_EDGE('',*,*,#797,.F.);
#1089=ORIENTED_EDGE('',*,*,#811,.F.);
#1090=ORIENTED_EDGE('',*,*,#806,.F.);
#1091=ORIENTED_EDGE('',*,*,#809,.T.);
#1092=ORIENTED_EDGE('',*,*,#812,.F.);
#1093=ORIENTED_EDGE('',*,*,#813,.F.);
#1094=ORIENTED_EDGE('',*,*,#814,.F.);
#1095=ORIENTED_EDGE('',*,*,#815,.T.);
#1096=ORIENTED_EDGE('',*,*,#816,.F.);
#1097=ORIENTED_EDGE('',*,*,#815,.F.);
#1098=ORIENTED_EDGE('',*,*,#817,.F.);
#1099=ORIENTED_EDGE('',*,*,#818,.T.);
#1100=ORIENTED_EDGE('',*,*,#819,.F.);
#1101=ORIENTED_EDGE('',*,*,#818,.F.);
#1102=ORIENTED_EDGE('',*,*,#820,.F.);
#1103=ORIENTED_EDGE('',*,*,#821,.T.);
#1104=ORIENTED_EDGE('',*,*,#822,.F.);
#1105=ORIENTED_EDGE('',*,*,#821,.F.);
#1106=ORIENTED_EDGE('',*,*,#823,.F.);
#1107=ORIENTED_EDGE('',*,*,#813,.T.);
#1108=ORIENTED_EDGE('',*,*,#824,.F.);
#1109=ORIENTED_EDGE('',*,*,#825,.T.);
#1110=ORIENTED_EDGE('',*,*,#826,.T.);
#1111=ORIENTED_EDGE('',*,*,#827,.F.);
#1112=ORIENTED_EDGE('',*,*,#828,.F.);
#1113=ORIENTED_EDGE('',*,*,#829,.T.);
#1114=ORIENTED_EDGE('',*,*,#830,.T.);
#1115=ORIENTED_EDGE('',*,*,#825,.F.);
#1116=ORIENTED_EDGE('',*,*,#831,.F.);
#1117=ORIENTED_EDGE('',*,*,#832,.T.);
#1118=ORIENTED_EDGE('',*,*,#833,.T.);
#1119=ORIENTED_EDGE('',*,*,#829,.F.);
#1120=ORIENTED_EDGE('',*,*,#834,.F.);
#1121=ORIENTED_EDGE('',*,*,#827,.T.);
#1122=ORIENTED_EDGE('',*,*,#835,.T.);
#1123=ORIENTED_EDGE('',*,*,#832,.F.);
#1124=ORIENTED_EDGE('',*,*,#835,.F.);
#1125=ORIENTED_EDGE('',*,*,#826,.F.);
#1126=ORIENTED_EDGE('',*,*,#830,.F.);
#1127=ORIENTED_EDGE('',*,*,#833,.F.);
#1128=ORIENTED_EDGE('',*,*,#836,.F.);
#1129=ORIENTED_EDGE('',*,*,#837,.F.);
#1130=ORIENTED_EDGE('',*,*,#838,.F.);
#1131=ORIENTED_EDGE('',*,*,#839,.F.);
#1132=ORIENTED_EDGE('',*,*,#839,.T.);
#1133=ORIENTED_EDGE('',*,*,#840,.T.);
#1134=ORIENTED_EDGE('',*,*,#841,.T.);
#1135=ORIENTED_EDGE('',*,*,#842,.F.);
#1136=ORIENTED_EDGE('',*,*,#843,.F.);
#1137=ORIENTED_EDGE('',*,*,#844,.F.);
#1138=ORIENTED_EDGE('',*,*,#845,.F.);
#1139=ORIENTED_EDGE('',*,*,#790,.F.);
#1140=ORIENTED_EDGE('',*,*,#838,.T.);
#1141=ORIENTED_EDGE('',*,*,#846,.F.);
#1142=ORIENTED_EDGE('',*,*,#843,.T.);
#1143=ORIENTED_EDGE('',*,*,#793,.T.);
#1144=ORIENTED_EDGE('',*,*,#847,.T.);
#1145=ORIENTED_EDGE('',*,*,#848,.T.);
#1146=ORIENTED_EDGE('',*,*,#849,.T.);
#1147=ORIENTED_EDGE('',*,*,#840,.F.);
#1148=ORIENTED_EDGE('',*,*,#743,.T.);
#1149=ORIENTED_EDGE('',*,*,#746,.T.);
#1150=ORIENTED_EDGE('',*,*,#728,.T.);
#1151=ORIENTED_EDGE('',*,*,#747,.T.);
#1152=ORIENTED_EDGE('',*,*,#748,.T.);
#1153=ORIENTED_EDGE('',*,*,#751,.T.);
#1154=ORIENTED_EDGE('',*,*,#753,.T.);
#1155=ORIENTED_EDGE('',*,*,#755,.T.);
#1156=ORIENTED_EDGE('',*,*,#819,.T.);
#1157=ORIENTED_EDGE('',*,*,#822,.T.);
#1158=ORIENTED_EDGE('',*,*,#812,.T.);
#1159=ORIENTED_EDGE('',*,*,#816,.T.);
#1160=ORIENTED_EDGE('',*,*,#850,.F.);
#1161=ORIENTED_EDGE('',*,*,#841,.F.);
#1162=ORIENTED_EDGE('',*,*,#849,.F.);
#1163=ORIENTED_EDGE('',*,*,#851,.F.);
#1164=ORIENTED_EDGE('',*,*,#851,.T.);
#1165=ORIENTED_EDGE('',*,*,#848,.F.);
#1166=ORIENTED_EDGE('',*,*,#852,.T.);
#1167=ORIENTED_EDGE('',*,*,#853,.F.);
#1168=ORIENTED_EDGE('',*,*,#824,.T.);
#1169=ORIENTED_EDGE('',*,*,#834,.T.);
#1170=ORIENTED_EDGE('',*,*,#831,.T.);
#1171=ORIENTED_EDGE('',*,*,#828,.T.);
#1172=ORIENTED_EDGE('',*,*,#847,.F.);
#1173=ORIENTED_EDGE('',*,*,#792,.F.);
#1174=ORIENTED_EDGE('',*,*,#854,.F.);
#1175=ORIENTED_EDGE('',*,*,#852,.F.);
#1176=ORIENTED_EDGE('',*,*,#837,.T.);
#1177=ORIENTED_EDGE('',*,*,#855,.F.);
#1178=ORIENTED_EDGE('',*,*,#844,.T.);
#1179=ORIENTED_EDGE('',*,*,#846,.T.);
#1180=ORIENTED_EDGE('',*,*,#856,.T.);
#1181=ORIENTED_EDGE('',*,*,#857,.T.);
#1182=ORIENTED_EDGE('',*,*,#858,.T.);
#1183=ORIENTED_EDGE('',*,*,#859,.T.);
#1184=ORIENTED_EDGE('',*,*,#857,.F.);
#1185=ORIENTED_EDGE('',*,*,#860,.T.);
#1186=ORIENTED_EDGE('',*,*,#861,.F.);
#1187=ORIENTED_EDGE('',*,*,#862,.F.);
#1188=ORIENTED_EDGE('',*,*,#856,.F.);
#1189=ORIENTED_EDGE('',*,*,#863,.T.);
#1190=ORIENTED_EDGE('',*,*,#864,.F.);
#1191=ORIENTED_EDGE('',*,*,#804,.T.);
#1192=ORIENTED_EDGE('',*,*,#865,.F.);
#1193=ORIENTED_EDGE('',*,*,#866,.F.);
#1194=ORIENTED_EDGE('',*,*,#867,.F.);
#1195=ORIENTED_EDGE('',*,*,#860,.F.);
#1196=ORIENTED_EDGE('',*,*,#845,.T.);
#1197=ORIENTED_EDGE('',*,*,#855,.T.);
#1198=ORIENTED_EDGE('',*,*,#836,.T.);
#1199=ORIENTED_EDGE('',*,*,#842,.T.);
#1200=ORIENTED_EDGE('',*,*,#850,.T.);
#1201=ORIENTED_EDGE('',*,*,#853,.T.);
#1202=ORIENTED_EDGE('',*,*,#854,.T.);
#1203=ORIENTED_EDGE('',*,*,#791,.T.);
#1204=ORIENTED_EDGE('',*,*,#868,.T.);
#1205=ORIENTED_EDGE('',*,*,#801,.T.);
#1206=ORIENTED_EDGE('',*,*,#864,.T.);
#1207=ORIENTED_EDGE('',*,*,#869,.T.);
#1208=ORIENTED_EDGE('',*,*,#858,.F.);
#1209=ORIENTED_EDGE('',*,*,#862,.T.);
#1210=ORIENTED_EDGE('',*,*,#870,.F.);
#1211=ORIENTED_EDGE('',*,*,#871,.F.);
#1212=ORIENTED_EDGE('',*,*,#872,.F.);
#1213=ORIENTED_EDGE('',*,*,#802,.F.);
#1214=ORIENTED_EDGE('',*,*,#868,.F.);
#1215=ORIENTED_EDGE('',*,*,#873,.T.);
#1216=ORIENTED_EDGE('',*,*,#820,.T.);
#1217=ORIENTED_EDGE('',*,*,#817,.T.);
#1218=ORIENTED_EDGE('',*,*,#814,.T.);
#1219=ORIENTED_EDGE('',*,*,#823,.T.);
#1220=ORIENTED_EDGE('',*,*,#867,.T.);
#1221=ORIENTED_EDGE('',*,*,#874,.T.);
#1222=ORIENTED_EDGE('',*,*,#870,.T.);
#1223=ORIENTED_EDGE('',*,*,#861,.T.);
#1224=ORIENTED_EDGE('',*,*,#874,.F.);
#1225=ORIENTED_EDGE('',*,*,#866,.T.);
#1226=ORIENTED_EDGE('',*,*,#875,.F.);
#1227=ORIENTED_EDGE('',*,*,#871,.T.);
#1228=ORIENTED_EDGE('',*,*,#872,.T.);
#1229=ORIENTED_EDGE('',*,*,#875,.T.);
#1230=ORIENTED_EDGE('',*,*,#865,.T.);
#1231=ORIENTED_EDGE('',*,*,#803,.T.);
#1232=ORIENTED_EDGE('',*,*,#859,.F.);
#1233=ORIENTED_EDGE('',*,*,#873,.F.);
#1234=ORIENTED_EDGE('',*,*,#869,.F.);
#1235=ORIENTED_EDGE('',*,*,#863,.F.);
#1236=CYLINDRICAL_SURFACE('',#1344,10.);
#1237=CYLINDRICAL_SURFACE('',#1352,10.);
#1238=CYLINDRICAL_SURFACE('',#1354,10.);
#1239=CYLINDRICAL_SURFACE('',#1359,10.);
#1240=CYLINDRICAL_SURFACE('',#1405,8.5);
#1241=CYLINDRICAL_SURFACE('',#1409,8.5);
#1242=CYLINDRICAL_SURFACE('',#1415,8.5);
#1243=CYLINDRICAL_SURFACE('',#1418,8.5);
#1244=CYLINDRICAL_SURFACE('',#1421,10.);
#1245=CYLINDRICAL_SURFACE('',#1429,10.);
#1246=CYLINDRICAL_SURFACE('',#1434,10.);
#1247=CYLINDRICAL_SURFACE('',#1436,10.);
#1248=ADVANCED_FACE('',(#93),#1236,.T.);
#1249=ADVANCED_FACE('',(#94),#36,.T.);
#1250=ADVANCED_FACE('',(#95),#37,.F.);
#1251=ADVANCED_FACE('',(#96),#1237,.T.);
#1252=ADVANCED_FACE('',(#97),#1238,.T.);
#1253=ADVANCED_FACE('',(#98),#38,.T.);
#1254=ADVANCED_FACE('',(#99),#39,.T.);
#1255=ADVANCED_FACE('',(#100),#1239,.T.);
#1256=ADVANCED_FACE('',(#101),#40,.T.);
#1257=ADVANCED_FACE('',(#102),#41,.T.);
#1258=ADVANCED_FACE('',(#103),#42,.T.);
#1259=ADVANCED_FACE('',(#104),#43,.T.);
#1260=ADVANCED_FACE('',(#105),#44,.T.);
#1261=ADVANCED_FACE('',(#106),#45,.T.);
#1262=ADVANCED_FACE('',(#107),#46,.T.);
#1263=ADVANCED_FACE('',(#108),#47,.T.);
#1264=ADVANCED_FACE('',(#109),#48,.T.);
#1265=ADVANCED_FACE('',(#110),#49,.T.);
#1266=ADVANCED_FACE('',(#111),#50,.T.);
#1267=ADVANCED_FACE('',(#112),#51,.T.);
#1268=ADVANCED_FACE('',(#113),#52,.T.);
#1269=ADVANCED_FACE('',(#114),#53,.T.);
#1270=ADVANCED_FACE('',(#115),#54,.T.);
#1271=ADVANCED_FACE('',(#116),#55,.T.);
#1272=ADVANCED_FACE('',(#117),#56,.T.);
#1273=ADVANCED_FACE('',(#118),#57,.T.);
#1274=ADVANCED_FACE('',(#119),#58,.F.);
#1275=ADVANCED_FACE('',(#120),#59,.T.);
#1276=ADVANCED_FACE('',(#121),#60,.T.);
#1277=ADVANCED_FACE('',(#122),#61,.T.);
#1278=ADVANCED_FACE('',(#123),#62,.T.);
#1279=ADVANCED_FACE('',(#124),#63,.T.);
#1280=ADVANCED_FACE('',(#125),#64,.T.);
#1281=ADVANCED_FACE('',(#126),#65,.F.);
#1282=ADVANCED_FACE('',(#127),#66,.F.);
#1283=ADVANCED_FACE('',(#128),#67,.F.);
#1284=ADVANCED_FACE('',(#129,#19,#20),#68,.F.);
#1285=ADVANCED_FACE('',(#130),#69,.F.);
#1286=ADVANCED_FACE('',(#131,#21),#70,.T.);
#1287=ADVANCED_FACE('',(#132),#71,.F.);
#1288=ADVANCED_FACE('',(#133),#72,.F.);
#1289=ADVANCED_FACE('',(#134),#73,.F.);
#1290=ADVANCED_FACE('',(#135),#74,.F.);
#1291=ADVANCED_FACE('',(#136),#75,.F.);
#1292=ADVANCED_FACE('',(#137),#76,.F.);
#1293=ADVANCED_FACE('',(#138),#77,.F.);
#1294=ADVANCED_FACE('',(#139),#78,.F.);
#1295=ADVANCED_FACE('',(#140),#79,.F.);
#1296=ADVANCED_FACE('',(#141),#80,.F.);
#1297=ADVANCED_FACE('',(#142),#81,.F.);
#1298=ADVANCED_FACE('',(#143),#82,.F.);
#1299=ADVANCED_FACE('',(#144),#83,.F.);
#1300=ADVANCED_FACE('',(#145),#1240,.F.);
#1301=ADVANCED_FACE('',(#146),#84,.F.);
#1302=ADVANCED_FACE('',(#147),#1241,.F.);
#1303=ADVANCED_FACE('',(#148,#22,#23,#24),#85,.F.);
#1304=ADVANCED_FACE('',(#149),#1242,.F.);
#1305=ADVANCED_FACE('',(#150,#25),#86,.F.);
#1306=ADVANCED_FACE('',(#151),#1243,.F.);
#1307=ADVANCED_FACE('',(#152),#87,.T.);
#1308=ADVANCED_FACE('',(#153),#1244,.T.);
#1309=ADVANCED_FACE('',(#154),#88,.T.);
#1310=ADVANCED_FACE('',(#155,#26),#89,.T.);
#1311=ADVANCED_FACE('',(#156),#1245,.T.);
#1312=ADVANCED_FACE('',(#157,#27),#90,.T.);
#1313=ADVANCED_FACE('',(#158),#1246,.T.);
#1314=ADVANCED_FACE('',(#159),#91,.T.);
#1315=ADVANCED_FACE('',(#160),#1247,.T.);
#1316=ADVANCED_FACE('',(#161),#92,.F.);
#1317=CLOSED_SHELL('',(#1248,#1249,#1250,#1251,#1252,#1253,#1254,#1255,
#1256,#1257));
#1318=CLOSED_SHELL('',(#1258,#1259,#1260,#1261,#1262,#1263,#1264,#1265,
#1266,#1267,#1268,#1269,#1270,#1271,#1272,#1273,#1274,#1275,#1276,#1277,
#1278,#1279,#1280,#1281,#1282,#1283,#1284,#1285,#1286,#1287,#1288,#1289,
#1290,#1291,#1292,#1293,#1294,#1295,#1296,#1297,#1298,#1299,#1300,#1301,
#1302,#1303,#1304,#1305,#1306,#1307,#1308,#1309,#1310,#1311,#1312,#1313,
#1314,#1315,#1316));
#1319=DERIVED_UNIT_ELEMENT(#1323,1.);
#1320=DERIVED_UNIT_ELEMENT(#2175,-3.);
#1321=DERIVED_UNIT_ELEMENT(#1323,1.);
#1322=DERIVED_UNIT_ELEMENT(#2175,-3.);
#1323=(
MASS_UNIT()
NAMED_UNIT(*)
SI_UNIT(.KILO.,.GRAM.)
);
#1324=DERIVED_UNIT((#1319,#1320));
#1325=DERIVED_UNIT((#1321,#1322));
#1326=MEASURE_REPRESENTATION_ITEM('density measure',
POSITIVE_RATIO_MEASURE(7850.),#1324);
#1327=MEASURE_REPRESENTATION_ITEM('density measure',
POSITIVE_RATIO_MEASURE(7850.),#1325);
#1328=PROPERTY_DEFINITION_REPRESENTATION(#1338,#1332);
#1329=PROPERTY_DEFINITION_REPRESENTATION(#1339,#1333);
#1330=PROPERTY_DEFINITION_REPRESENTATION(#1340,#1334);
#1331=PROPERTY_DEFINITION_REPRESENTATION(#1341,#1335);
#1332=REPRESENTATION('material name',(#1336),#2171);
#1333=REPRESENTATION('density',(#1326),#2171);
#1334=REPRESENTATION('material name',(#1337),#2172);
#1335=REPRESENTATION('density',(#1327),#2172);
#1336=DESCRIPTIVE_REPRESENTATION_ITEM('Steel','Steel');
#1337=DESCRIPTIVE_REPRESENTATION_ITEM('Steel','Steel');
#1338=PROPERTY_DEFINITION('material property','material name',#2191);
#1339=PROPERTY_DEFINITION('material property','density of part',#2191);
#1340=PROPERTY_DEFINITION('material property','material name',#2192);
#1341=PROPERTY_DEFINITION('material property','density of part',#2192);
#1342=AXIS2_PLACEMENT_3D('',#1792,#1440,#1441);
#1343=AXIS2_PLACEMENT_3D('',#1793,#1442,#1443);
#1344=AXIS2_PLACEMENT_3D('',#1794,#1444,#1445);
#1345=AXIS2_PLACEMENT_3D('',#1797,#1446,#1447);
#1346=AXIS2_PLACEMENT_3D('',#1801,#1449,#1450);
#1347=AXIS2_PLACEMENT_3D('',#1803,#1452,#1453);
#1348=AXIS2_PLACEMENT_3D('',#1807,#1455,#1456);
#1349=AXIS2_PLACEMENT_3D('',#1811,#1458,#1459);
#1350=AXIS2_PLACEMENT_3D('',#1815,#1461,#1462);
#1351=AXIS2_PLACEMENT_3D('',#1817,#1464,#1465);
#1352=AXIS2_PLACEMENT_3D('',#1821,#1468,#1469);
#1353=AXIS2_PLACEMENT_3D('',#1823,#1470,#1471);
#1354=AXIS2_PLACEMENT_3D('',#1825,#1473,#1474);
#1355=AXIS2_PLACEMENT_3D('',#1828,#1475,#1476);
#1356=AXIS2_PLACEMENT_3D('',#1831,#1479,#1480);
#1357=AXIS2_PLACEMENT_3D('',#1835,#1483,#1484);
#1358=AXIS2_PLACEMENT_3D('',#1838,#1486,#1487);
#1359=AXIS2_PLACEMENT_3D('',#1840,#1489,#1490);
#1360=AXIS2_PLACEMENT_3D('',#1842,#1492,#1493);
#1361=AXIS2_PLACEMENT_3D('',#1843,#1494,#1495);
#1362=AXIS2_PLACEMENT_3D('',#1844,#1496,#1497);
#1363=AXIS2_PLACEMENT_3D('',#1845,#1498,#1499);
#1364=AXIS2_PLACEMENT_3D('',#1854,#1504,#1505);
#1365=AXIS2_PLACEMENT_3D('',#1860,#1509,#1510);
#1366=AXIS2_PLACEMENT_3D('',#1866,#1514,#1515);
#1367=AXIS2_PLACEMENT_3D('',#1872,#1519,#1520);
#1368=AXIS2_PLACEMENT_3D('',#1881,#1525,#1526);
#1369=AXIS2_PLACEMENT_3D('',#1890,#1531,#1532);
#1370=AXIS2_PLACEMENT_3D('',#1893,#1535,#1536);
#1371=AXIS2_PLACEMENT_3D('',#1899,#1540,#1541);
#1372=AXIS2_PLACEMENT_3D('',#1901,#1543,#1544);
#1373=AXIS2_PLACEMENT_3D('',#1903,#1546,#1547);
#1374=AXIS2_PLACEMENT_3D('',#1909,#1551,#1552);
#1375=AXIS2_PLACEMENT_3D('',#1913,#1555,#1556);
#1376=AXIS2_PLACEMENT_3D('',#1917,#1559,#1560);
#1377=AXIS2_PLACEMENT_3D('',#1919,#1562,#1563);
#1378=AXIS2_PLACEMENT_3D('',#1928,#1568,#1569);
#1379=AXIS2_PLACEMENT_3D('',#1934,#1573,#1574);
#1380=AXIS2_PLACEMENT_3D('',#1940,#1578,#1579);
#1381=AXIS2_PLACEMENT_3D('',#1946,#1583,#1584);
#1382=AXIS2_PLACEMENT_3D('',#1952,#1588,#1589);
#1383=AXIS2_PLACEMENT_3D('',#1958,#1593,#1594);
#1384=AXIS2_PLACEMENT_3D('',#1962,#1597,#1598);
#1385=AXIS2_PLACEMENT_3D('',#1966,#1601,#1602);
#1386=AXIS2_PLACEMENT_3D('',#1968,#1604,#1605);
#1387=AXIS2_PLACEMENT_3D('',#1977,#1610,#1611);
#1388=AXIS2_PLACEMENT_3D('',#1983,#1615,#1616);
#1389=AXIS2_PLACEMENT_3D('',#1989,#1620,#1621);
#1390=AXIS2_PLACEMENT_3D('',#2007,#1631,#1632);
#1391=AXIS2_PLACEMENT_3D('',#2011,#1635,#1636);
#1392=AXIS2_PLACEMENT_3D('',#2027,#1645,#1646);
#1393=AXIS2_PLACEMENT_3D('',#2029,#1648,#1649);
#1394=AXIS2_PLACEMENT_3D('',#2031,#1651,#1652);
#1395=AXIS2_PLACEMENT_3D('',#2033,#1654,#1655);
#1396=AXIS2_PLACEMENT_3D('',#2034,#1656,#1657);
#1397=AXIS2_PLACEMENT_3D('',#2043,#1662,#1663);
#1398=AXIS2_PLACEMENT_3D('',#2049,#1667,#1668);
#1399=AXIS2_PLACEMENT_3D('',#2055,#1672,#1673);
#1400=AXIS2_PLACEMENT_3D('',#2058,#1676,#1677);
#1401=AXIS2_PLACEMENT_3D('',#2067,#1682,#1683);
#1402=AXIS2_PLACEMENT_3D('',#2073,#1687,#1688);
#1403=AXIS2_PLACEMENT_3D('',#2079,#1692,#1693);
#1404=AXIS2_PLACEMENT_3D('',#2082,#1696,#1697);
#1405=AXIS2_PLACEMENT_3D('',#2083,#1698,#1699);
#1406=AXIS2_PLACEMENT_3D('',#2086,#1700,#1701);
#1407=AXIS2_PLACEMENT_3D('',#2090,#1703,#1704);
#1408=AXIS2_PLACEMENT_3D('',#2092,#1706,#1707);
#1409=AXIS2_PLACEMENT_3D('',#2098,#1711,#1712);
#1410=AXIS2_PLACEMENT_3D('',#2100,#1713,#1714);
#1411=AXIS2_PLACEMENT_3D('',#2103,#1716,#1717);
#1412=AXIS2_PLACEMENT_3D('',#2104,#1718,#1719);
#1413=AXIS2_PLACEMENT_3D('',#2107,#1721,#1722);
#1414=AXIS2_PLACEMENT_3D('',#2110,#1724,#1725);
#1415=AXIS2_PLACEMENT_3D('',#2111,#1726,#1727);
#1416=AXIS2_PLACEMENT_3D('',#2113,#1728,#1729);
#1417=AXIS2_PLACEMENT_3D('',#2115,#1731,#1732);
#1418=AXIS2_PLACEMENT_3D('',#2119,#1735,#1736);
#1419=AXIS2_PLACEMENT_3D('',#2120,#1737,#1738);
#1420=AXIS2_PLACEMENT_3D('',#2121,#1739,#1740);
#1421=AXIS2_PLACEMENT_3D('',#2123,#1742,#1743);
#1422=AXIS2_PLACEMENT_3D('',#2126,#1744,#1745);
#1423=AXIS2_PLACEMENT_3D('',#2130,#1747,#1748);
#1424=AXIS2_PLACEMENT_3D('',#2132,#1750,#1751);
#1425=AXIS2_PLACEMENT_3D('',#2138,#1755,#1756);
#1426=AXIS2_PLACEMENT_3D('',#2141,#1758,#1759);
#1427=AXIS2_PLACEMENT_3D('',#2143,#1760,#1761);
#1428=AXIS2_PLACEMENT_3D('',#2146,#1763,#1764);
#1429=AXIS2_PLACEMENT_3D('',#2147,#1765,#1766);
#1430=AXIS2_PLACEMENT_3D('',#2149,#1767,#1768);
#1431=AXIS2_PLACEMENT_3D('',#2151,#1770,#1771);
#1432=AXIS2_PLACEMENT_3D('',#2153,#1772,#1773);
#1433=AXIS2_PLACEMENT_3D('',#2156,#1775,#1776);
#1434=AXIS2_PLACEMENT_3D('',#2158,#1778,#1779);
#1435=AXIS2_PLACEMENT_3D('',#2160,#1781,#1782);
#1436=AXIS2_PLACEMENT_3D('',#2162,#1784,#1785);
#1437=AXIS2_PLACEMENT_3D('',#2163,#1786,#1787);
#1438=AXIS2_PLACEMENT_3D('',#2164,#1788,#1789);
#1439=AXIS2_PLACEMENT_3D('',#2165,#1790,#1791);
#1440=DIRECTION('axis',(0.,0.,1.));
#1441=DIRECTION('refdir',(1.,0.,0.));
#1442=DIRECTION('axis',(0.,0.,1.));
#1443=DIRECTION('refdir',(1.,0.,0.));
#1444=DIRECTION('center_axis',(-1.,0.,0.));
#1445=DIRECTION('ref_axis',(0.,-0.707106781186547,-0.707106781186547));
#1446=DIRECTION('center_axis',(1.,0.,0.));
#1447=DIRECTION('ref_axis',(0.,-0.707106781186547,-0.707106781186547));
#1448=DIRECTION('',(1.,0.,0.));
#1449=DIRECTION('center_axis',(-1.,0.,0.));
#1450=DIRECTION('ref_axis',(0.,-0.707106781186547,-0.707106781186547));
#1451=DIRECTION('',(-1.,0.,0.));
#1452=DIRECTION('center_axis',(1.,0.,0.));
#1453=DIRECTION('ref_axis',(0.,1.,0.));
#1454=DIRECTION('',(0.,-1.,0.));
#1455=DIRECTION('center_axis',(-1.,0.,0.));
#1456=DIRECTION('ref_axis',(0.,0.707106781186547,-0.707106781186547));
#1457=DIRECTION('',(0.,0.,1.));
#1458=DIRECTION('center_axis',(-1.,0.,0.));
#1459=DIRECTION('ref_axis',(0.,0.707106781186547,0.707106781186547));
#1460=DIRECTION('',(0.,1.,0.));
#1461=DIRECTION('center_axis',(-1.,0.,0.));
#1462=DIRECTION('ref_axis',(0.,-0.707106781186547,0.707106781186547));
#1463=DIRECTION('',(0.,0.,1.));
#1464=DIRECTION('center_axis',(0.,0.,1.));
#1465=DIRECTION('ref_axis',(1.,0.,0.));
#1466=DIRECTION('',(0.,1.,0.));
#1467=DIRECTION('',(-1.,0.,0.));
#1468=DIRECTION('center_axis',(1.,0.,0.));
#1469=DIRECTION('ref_axis',(0.,0.707106781186547,-0.707106781186547));
#1470=DIRECTION('center_axis',(1.,0.,0.));
#1471=DIRECTION('ref_axis',(0.,0.707106781186547,-0.707106781186547));
#1472=DIRECTION('',(1.,0.,0.));
#1473=DIRECTION('center_axis',(-1.,0.,0.));
#1474=DIRECTION('ref_axis',(0.,0.707106781186547,0.707106781186547));
#1475=DIRECTION('center_axis',(1.,0.,0.));
#1476=DIRECTION('ref_axis',(0.,0.707106781186547,0.707106781186547));
#1477=DIRECTION('',(1.,0.,0.));
#1478=DIRECTION('',(-1.,0.,0.));
#1479=DIRECTION('center_axis',(0.,0.,1.));
#1480=DIRECTION('ref_axis',(1.,0.,0.));
#1481=DIRECTION('',(0.,-1.,0.));
#1482=DIRECTION('',(-1.,0.,0.));
#1483=DIRECTION('center_axis',(-1.,0.,0.));
#1484=DIRECTION('ref_axis',(0.,-1.,0.));
#1485=DIRECTION('',(0.,0.,1.));
#1486=DIRECTION('center_axis',(1.,0.,0.));
#1487=DIRECTION('ref_axis',(0.,-0.707106781186547,0.707106781186547));
#1488=DIRECTION('',(0.,0.,1.));
#1489=DIRECTION('center_axis',(1.,0.,0.));
#1490=DIRECTION('ref_axis',(0.,-0.707106781186547,0.707106781186547));
#1491=DIRECTION('',(1.,0.,0.));
#1492=DIRECTION('center_axis',(0.,-1.,0.));
#1493=DIRECTION('ref_axis',(1.,0.,0.));
#1494=DIRECTION('center_axis',(0.,1.,0.));
#1495=DIRECTION('ref_axis',(-1.,0.,0.));
#1496=DIRECTION('axis',(0.,0.,1.));
#1497=DIRECTION('refdir',(1.,0.,0.));
#1498=DIRECTION('center_axis',(0.,1.,0.));
#1499=DIRECTION('ref_axis',(0.,0.,-1.));
#1500=DIRECTION('',(0.,0.,1.));
#1501=DIRECTION('',(-1.,0.,0.));
#1502=DIRECTION('',(0.,0.,-1.));
#1503=DIRECTION('',(-1.,0.,0.));
#1504=DIRECTION('center_axis',(-1.,0.,0.));
#1505=DIRECTION('ref_axis',(0.,0.,1.));
#1506=DIRECTION('',(0.,-1.,0.));
#1507=DIRECTION('',(0.,0.,1.));
#1508=DIRECTION('',(0.,1.,0.));
#1509=DIRECTION('center_axis',(-1.,0.,0.));
#1510=DIRECTION('ref_axis',(0.,0.,-1.));
#1511=DIRECTION('',(0.,-1.,0.));
#1512=DIRECTION('',(0.,0.,1.));
#1513=DIRECTION('',(0.,-1.,0.));
#1514=DIRECTION('center_axis',(0.,-1.,0.));
#1515=DIRECTION('ref_axis',(0.,0.,-1.));
#1516=DIRECTION('',(-1.,0.,0.));
#1517=DIRECTION('',(-1.,0.,0.));
#1518=DIRECTION('',(0.,0.,1.));
#1519=DIRECTION('center_axis',(6.10622663543836E-15,1.,2.01790389318034E-30));
#1520=DIRECTION('ref_axis',(-3.30466589868962E-16,0.,1.));
#1521=DIRECTION('',(3.30466589868962E-16,0.,-1.));
#1522=DIRECTION('',(1.,-6.10622663543836E-15,0.));
#1523=DIRECTION('',(-3.30466589868962E-16,0.,1.));
#1524=DIRECTION('',(1.,-6.10622663543836E-15,0.));
#1525=DIRECTION('center_axis',(-6.10622663543836E-15,-1.,-2.01790389318034E-30));
#1526=DIRECTION('ref_axis',(3.30466589868962E-16,0.,-1.));
#1527=DIRECTION('',(1.,-6.10622663543836E-15,0.));
#1528=DIRECTION('',(3.30466589868962E-16,0.,-1.));
#1529=DIRECTION('',(-1.,0.,0.));
#1530=DIRECTION('',(0.,0.,-1.));
#1531=DIRECTION('center_axis',(1.,-6.10622663543836E-15,0.));
#1532=DIRECTION('ref_axis',(0.,0.,-1.));
#1533=DIRECTION('',(5.8864351752579E-15,1.,0.));
#1534=DIRECTION('',(-5.8864351752579E-15,-1.,0.));
#1535=DIRECTION('center_axis',(1.,0.,0.));
#1536=DIRECTION('ref_axis',(0.,0.,1.));
#1537=DIRECTION('',(0.,0.,-1.));
#1538=DIRECTION('',(0.,-1.,0.));
#1539=DIRECTION('',(0.,-1.,0.));
#1540=DIRECTION('center_axis',(0.,0.,-1.));
#1541=DIRECTION('ref_axis',(1.,0.,0.));
#1542=DIRECTION('',(-1.,0.,0.));
#1543=DIRECTION('center_axis',(0.,0.,1.));
#1544=DIRECTION('ref_axis',(-1.,0.,0.));
#1545=DIRECTION('',(1.,0.,0.));
#1546=DIRECTION('center_axis',(0.,0.,1.));
#1547=DIRECTION('ref_axis',(-1.,0.,0.));
#1548=DIRECTION('',(1.,0.,0.));
#1549=DIRECTION('',(0.,-1.,0.));
#1550=DIRECTION('',(0.,-1.,0.));
#1551=DIRECTION('center_axis',(1.,0.,0.));
#1552=DIRECTION('ref_axis',(0.,0.,1.));
#1553=DIRECTION('',(0.,0.,-1.));
#1554=DIRECTION('',(0.,-1.,0.));
#1555=DIRECTION('center_axis',(0.,0.,-1.));
#1556=DIRECTION('ref_axis',(1.,0.,0.));
#1557=DIRECTION('',(-1.,0.,0.));
#1558=DIRECTION('',(0.,-1.,0.));
#1559=DIRECTION('center_axis',(-1.,0.,0.));
#1560=DIRECTION('ref_axis',(0.,0.,-1.));
#1561=DIRECTION('',(0.,0.,1.));
#1562=DIRECTION('center_axis',(0.,0.,-1.));
#1563=DIRECTION('ref_axis',(0.,1.,0.));
#1564=DIRECTION('',(0.,-1.,0.));
#1565=DIRECTION('',(1.,0.,0.));
#1566=DIRECTION('',(0.,1.,0.));
#1567=DIRECTION('',(1.,0.,0.));
#1568=DIRECTION('center_axis',(1.,0.,0.));
#1569=DIRECTION('ref_axis',(0.,0.,-1.));
#1570=DIRECTION('',(0.,0.,1.));
#1571=DIRECTION('',(0.,-1.,0.));
#1572=DIRECTION('',(0.,0.,-1.));
#1573=DIRECTION('center_axis',(-1.,0.,0.));
#1574=DIRECTION('ref_axis',(0.,-1.,0.));
#1575=DIRECTION('',(0.,0.,-1.));
#1576=DIRECTION('',(0.,-1.,0.));
#1577=DIRECTION('',(0.,0.,1.));
#1578=DIRECTION('center_axis',(0.,0.,1.));
#1579=DIRECTION('ref_axis',(0.,1.,0.));
#1580=DIRECTION('',(1.,0.,0.));
#1581=DIRECTION('',(0.,1.,0.));
#1582=DIRECTION('',(-1.,0.,0.));
#1583=DIRECTION('center_axis',(-1.,0.,0.));
#1584=DIRECTION('ref_axis',(0.,0.,1.));
#1585=DIRECTION('',(0.,0.,-1.));
#1586=DIRECTION('',(0.,-1.,0.));
#1587=DIRECTION('',(0.,0.,1.));
#1588=DIRECTION('center_axis',(0.,0.,1.));
#1589=DIRECTION('ref_axis',(0.,1.,0.));
#1590=DIRECTION('',(0.,-1.,0.));
#1591=DIRECTION('',(-1.,0.,0.));
#1592=DIRECTION('',(-1.,0.,0.));
#1593=DIRECTION('center_axis',(0.,-1.,0.));
#1594=DIRECTION('ref_axis',(0.,0.,1.));
#1595=DIRECTION('',(0.,0.,-1.));
#1596=DIRECTION('',(-1.,0.,0.));
#1597=DIRECTION('center_axis',(0.,0.,-1.));
#1598=DIRECTION('ref_axis',(0.,-1.,0.));
#1599=DIRECTION('',(0.,1.,0.));
#1600=DIRECTION('',(-1.,0.,0.));
#1601=DIRECTION('center_axis',(0.,1.,0.));
#1602=DIRECTION('ref_axis',(0.,0.,-1.));
#1603=DIRECTION('',(0.,0.,1.));
#1604=DIRECTION('center_axis',(0.,0.,1.));
#1605=DIRECTION('ref_axis',(0.,1.,0.));
#1606=DIRECTION('',(0.,-1.,0.));
#1607=DIRECTION('',(-1.,0.,0.));
#1608=DIRECTION('',(0.,1.,0.));
#1609=DIRECTION('',(-1.,0.,0.));
#1610=DIRECTION('center_axis',(0.,-1.,0.));
#1611=DIRECTION('ref_axis',(0.,0.,1.));
#1612=DIRECTION('',(0.,0.,-1.));
#1613=DIRECTION('',(0.,0.,1.));
#1614=DIRECTION('',(1.,0.,0.));
#1615=DIRECTION('center_axis',(0.,1.,0.));
#1616=DIRECTION('ref_axis',(0.,0.,-1.));
#1617=DIRECTION('',(0.,0.,1.));
#1618=DIRECTION('',(-1.,0.,0.));
#1619=DIRECTION('',(0.,0.,-1.));
#1620=DIRECTION('center_axis',(1.,0.,0.));
#1621=DIRECTION('ref_axis',(0.,1.,0.));
#1622=DIRECTION('',(0.,-1.,0.));
#1623=DIRECTION('',(0.,0.,-1.));
#1624=DIRECTION('',(0.,1.,0.));
#1625=DIRECTION('',(0.,0.,1.));
#1626=DIRECTION('',(0.,-1.,0.));
#1627=DIRECTION('',(0.,0.,-1.));
#1628=DIRECTION('',(0.,1.,0.));
#1629=DIRECTION('',(0.,0.,1.));
#1630=DIRECTION('',(0.,-1.,0.));
#1631=DIRECTION('center_axis',(0.,0.,1.));
#1632=DIRECTION('ref_axis',(0.,1.,0.));
#1633=DIRECTION('',(0.,1.,0.));
#1634=DIRECTION('',(-1.,0.,0.));
#1635=DIRECTION('center_axis',(1.,0.,0.));
#1636=DIRECTION('ref_axis',(0.,1.,0.));
#1637=DIRECTION('',(0.,-1.,0.));
#1638=DIRECTION('',(0.,0.,1.));
#1639=DIRECTION('',(0.,1.,0.));
#1640=DIRECTION('',(0.,0.,1.));
#1641=DIRECTION('',(0.,1.,0.));
#1642=DIRECTION('',(0.,0.,-1.));
#1643=DIRECTION('',(0.,-1.,0.));
#1644=DIRECTION('',(0.,0.,1.));
#1645=DIRECTION('center_axis',(0.,0.,1.));
#1646=DIRECTION('ref_axis',(0.,1.,0.));
#1647=DIRECTION('',(-1.,0.,0.));
#1648=DIRECTION('center_axis',(0.,-1.,0.));
#1649=DIRECTION('ref_axis',(0.,0.,1.));
#1650=DIRECTION('',(-1.,0.,0.));
#1651=DIRECTION('center_axis',(0.,0.,-1.));
#1652=DIRECTION('ref_axis',(0.,-1.,0.));
#1653=DIRECTION('',(-1.,0.,0.));
#1654=DIRECTION('center_axis',(0.,1.,0.));
#1655=DIRECTION('ref_axis',(0.,0.,-1.));
#1656=DIRECTION('center_axis',(1.,0.,0.));
#1657=DIRECTION('ref_axis',(0.,0.,1.));
#1658=DIRECTION('',(0.,0.,-1.));
#1659=DIRECTION('',(0.,-1.,0.));
#1660=DIRECTION('',(0.,0.,1.));
#1661=DIRECTION('',(0.,-1.,0.));
#1662=DIRECTION('center_axis',(0.,0.,-1.));
#1663=DIRECTION('ref_axis',(1.,0.,0.));
#1664=DIRECTION('',(-1.,0.,0.));
#1665=DIRECTION('',(1.,0.,0.));
#1666=DIRECTION('',(0.,-1.,0.));
#1667=DIRECTION('center_axis',(-1.,0.,0.));
#1668=DIRECTION('ref_axis',(0.,0.,-1.));
#1669=DIRECTION('',(0.,0.,1.));
#1670=DIRECTION('',(0.,0.,-1.));
#1671=DIRECTION('',(0.,-1.,0.));
#1672=DIRECTION('center_axis',(0.,0.,1.));
#1673=DIRECTION('ref_axis',(-1.,0.,0.));
#1674=DIRECTION('',(1.,0.,0.));
#1675=DIRECTION('',(-1.,0.,0.));
#1676=DIRECTION('center_axis',(1.,0.,0.));
#1677=DIRECTION('ref_axis',(0.,1.,0.));
#1678=DIRECTION('',(0.,1.,0.));
#1679=DIRECTION('',(0.,0.,1.));
#1680=DIRECTION('',(0.,1.,0.));
#1681=DIRECTION('',(0.,0.,1.));
#1682=DIRECTION('center_axis',(0.,-1.,0.));
#1683=DIRECTION('ref_axis',(1.,0.,0.));
#1684=DIRECTION('',(1.,0.,0.));
#1685=DIRECTION('',(0.,0.,1.));
#1686=DIRECTION('',(1.,0.,0.));
#1687=DIRECTION('center_axis',(-1.,0.,0.));
#1688=DIRECTION('ref_axis',(0.,-1.,0.));
#1689=DIRECTION('',(0.,-1.,0.));
#1690=DIRECTION('',(0.,0.,1.));
#1691=DIRECTION('',(0.,-1.,0.));
#1692=DIRECTION('center_axis',(0.,1.,0.));
#1693=DIRECTION('ref_axis',(-1.,0.,0.));
#1694=DIRECTION('',(-1.,0.,0.));
#1695=DIRECTION('',(-1.,0.,0.));
#1696=DIRECTION('center_axis',(0.,0.,1.));
#1697=DIRECTION('ref_axis',(1.,0.,0.));
#1698=DIRECTION('center_axis',(0.,-1.,0.));
#1699=DIRECTION('ref_axis',(-0.707106781186548,0.,-0.707106781186548));
#1700=DIRECTION('center_axis',(0.,1.,0.));
#1701=DIRECTION('ref_axis',(-0.707106781186548,0.,-0.707106781186548));
#1702=DIRECTION('',(0.,-1.,0.));
#1703=DIRECTION('center_axis',(0.,-1.,0.));
#1704=DIRECTION('ref_axis',(-0.707106781186548,0.,-0.707106781186548));
#1705=DIRECTION('',(0.,1.,0.));
#1706=DIRECTION('center_axis',(-1.,0.,0.));
#1707=DIRECTION('ref_axis',(0.,-1.,0.));
#1708=DIRECTION('',(0.,0.,-1.));
#1709=DIRECTION('',(0.,-1.,0.));
#1710=DIRECTION('',(0.,0.,1.));
#1711=DIRECTION('center_axis',(0.,1.,0.));
#1712=DIRECTION('ref_axis',(0.707106781186548,0.,-0.707106781186548));
#1713=DIRECTION('center_axis',(0.,-1.,0.));
#1714=DIRECTION('ref_axis',(0.707106781186548,0.,-0.707106781186548));
#1715=DIRECTION('',(0.,1.,0.));
#1716=DIRECTION('center_axis',(0.,1.,0.));
#1717=DIRECTION('ref_axis',(0.707106781186548,0.,-0.707106781186548));
#1718=DIRECTION('center_axis',(0.,1.,0.));
#1719=DIRECTION('ref_axis',(-1.,0.,0.));
#1720=DIRECTION('',(1.,0.,0.));
#1721=DIRECTION('center_axis',(0.,1.,0.));
#1722=DIRECTION('ref_axis',(0.707106781186548,0.,0.707106781186548));
#1723=DIRECTION('',(1.,0.,0.));
#1724=DIRECTION('center_axis',(0.,1.,0.));
#1725=DIRECTION('ref_axis',(-0.707106781186548,0.,0.707106781186548));
#1726=DIRECTION('center_axis',(0.,-1.,0.));
#1727=DIRECTION('ref_axis',(-0.707106781186548,0.,0.707106781186548));
#1728=DIRECTION('center_axis',(0.,1.,0.));
#1729=DIRECTION('ref_axis',(-0.707106781186548,0.,0.707106781186548));
#1730=DIRECTION('',(0.,1.,0.));
#1731=DIRECTION('center_axis',(0.,0.,1.));
#1732=DIRECTION('ref_axis',(1.,0.,0.));
#1733=DIRECTION('',(0.,-1.,0.));
#1734=DIRECTION('',(1.,0.,0.));
#1735=DIRECTION('center_axis',(0.,1.,0.));
#1736=DIRECTION('ref_axis',(0.707106781186548,0.,0.707106781186548));
#1737=DIRECTION('center_axis',(0.,1.,0.));
#1738=DIRECTION('ref_axis',(0.707106781186548,0.,0.707106781186548));
#1739=DIRECTION('center_axis',(0.,0.,1.));
#1740=DIRECTION('ref_axis',(1.,0.,0.));
#1741=DIRECTION('',(-1.,0.,0.));
#1742=DIRECTION('center_axis',(0.,-1.,0.));
#1743=DIRECTION('ref_axis',(-0.707106781186547,0.,-0.707106781186547));
#1744=DIRECTION('center_axis',(0.,1.,0.));
#1745=DIRECTION('ref_axis',(-0.707106781186547,0.,-0.707106781186547));
#1746=DIRECTION('',(0.,1.,0.));
#1747=DIRECTION('center_axis',(0.,-1.,0.));
#1748=DIRECTION('ref_axis',(-0.707106781186547,0.,-0.707106781186547));
#1749=DIRECTION('',(0.,-1.,0.));
#1750=DIRECTION('center_axis',(-1.,0.,0.));
#1751=DIRECTION('ref_axis',(0.,-1.,0.));
#1752=DIRECTION('',(0.,0.,1.));
#1753=DIRECTION('',(0.,-1.,0.));
#1754=DIRECTION('',(0.,0.,1.));
#1755=DIRECTION('center_axis',(0.,-1.,0.));
#1756=DIRECTION('ref_axis',(1.,0.,0.));
#1757=DIRECTION('',(1.,0.,0.));
#1758=DIRECTION('center_axis',(0.,1.,0.));
#1759=DIRECTION('ref_axis',(0.707106781186547,0.,-0.707106781186547));
#1760=DIRECTION('center_axis',(0.,1.,0.));
#1761=DIRECTION('ref_axis',(0.707106781186547,0.,0.707106781186547));
#1762=DIRECTION('',(1.,0.,0.));
#1763=DIRECTION('center_axis',(0.,1.,0.));
#1764=DIRECTION('ref_axis',(-0.707106781186547,0.,0.707106781186547));
#1765=DIRECTION('center_axis',(0.,1.,0.));
#1766=DIRECTION('ref_axis',(0.707106781186547,0.,-0.707106781186547));
#1767=DIRECTION('center_axis',(0.,-1.,0.));
#1768=DIRECTION('ref_axis',(0.707106781186547,0.,-0.707106781186547));
#1769=DIRECTION('',(0.,1.,0.));
#1770=DIRECTION('center_axis',(0.,1.,0.));
#1771=DIRECTION('ref_axis',(-1.,0.,0.));
#1772=DIRECTION('center_axis',(0.,-1.,0.));
#1773=DIRECTION('ref_axis',(-0.707106781186547,0.,0.707106781186547));
#1774=DIRECTION('',(-1.,0.,0.));
#1775=DIRECTION('center_axis',(0.,-1.,0.));
#1776=DIRECTION('ref_axis',(0.707106781186547,0.,0.707106781186547));
#1777=DIRECTION('',(-1.,0.,0.));
#1778=DIRECTION('center_axis',(0.,-1.,0.));
#1779=DIRECTION('ref_axis',(-0.707106781186547,0.,0.707106781186547));
#1780=DIRECTION('',(0.,1.,0.));
#1781=DIRECTION('center_axis',(0.,0.,1.));
#1782=DIRECTION('ref_axis',(1.,0.,0.));
#1783=DIRECTION('',(0.,-1.,0.));
#1784=DIRECTION('center_axis',(0.,1.,0.));
#1785=DIRECTION('ref_axis',(0.707106781186547,0.,0.707106781186547));
#1786=DIRECTION('center_axis',(0.,0.,1.));
#1787=DIRECTION('ref_axis',(1.,0.,0.));
#1788=DIRECTION('',(6.67521593555875E-15,-0.999999999999999,-5.0043363674958E-30));
#1789=DIRECTION('',(1.84574577843931E-15,3.94430452610508E-30,1.));
#1790=DIRECTION('',(0.,0.,1.));
#1791=DIRECTION('',(1.,0.,0.));
#1792=CARTESIAN_POINT('',(0.,0.,0.));
#1793=CARTESIAN_POINT('',(0.,0.,0.));
#1794=CARTESIAN_POINT('Origin',(11.25,-100.,10.));
#1795=CARTESIAN_POINT('',(10.,-110.,10.));
#1796=CARTESIAN_POINT('',(10.,-100.,0.));
#1797=CARTESIAN_POINT('Origin',(10.,-100.,10.));
#1798=CARTESIAN_POINT('',(15.,-100.,0.));
#1799=CARTESIAN_POINT('',(11.25,-100.,0.));
#1800=CARTESIAN_POINT('',(15.,-110.,10.));
#1801=CARTESIAN_POINT('Origin',(15.,-100.,10.));
#1802=CARTESIAN_POINT('',(11.25,-110.,10.));
#1803=CARTESIAN_POINT('Origin',(15.,-110.,0.));
#1804=CARTESIAN_POINT('',(15.,-60.,0.));
#1805=CARTESIAN_POINT('',(15.,-50.,0.));
#1806=CARTESIAN_POINT('',(15.,-50.,10.));
#1807=CARTESIAN_POINT('Origin',(15.,-60.,10.));
#1808=CARTESIAN_POINT('',(15.,-50.,40.));
#1809=CARTESIAN_POINT('',(15.,-50.,0.));
#1810=CARTESIAN_POINT('',(15.,-60.,50.));
#1811=CARTESIAN_POINT('Origin',(15.,-60.,40.));
#1812=CARTESIAN_POINT('',(15.,-100.,50.));
#1813=CARTESIAN_POINT('',(15.,-50.,50.));
#1814=CARTESIAN_POINT('',(15.,-110.,40.));
#1815=CARTESIAN_POINT('Origin',(15.,-100.,40.));
#1816=CARTESIAN_POINT('',(15.,-110.,0.));
#1817=CARTESIAN_POINT('Origin',(12.5,-80.,0.));
#1818=CARTESIAN_POINT('',(10.,-60.,0.));
#1819=CARTESIAN_POINT('',(10.,-110.,0.));
#1820=CARTESIAN_POINT('',(13.75,-60.,0.));
#1821=CARTESIAN_POINT('Origin',(13.75,-60.,10.));
#1822=CARTESIAN_POINT('',(10.,-50.,10.));
#1823=CARTESIAN_POINT('Origin',(10.,-60.,10.));
#1824=CARTESIAN_POINT('',(13.75,-50.,10.));
#1825=CARTESIAN_POINT('Origin',(13.75,-60.,40.));
#1826=CARTESIAN_POINT('',(10.,-50.,40.));
#1827=CARTESIAN_POINT('',(10.,-60.,50.));
#1828=CARTESIAN_POINT('Origin',(10.,-60.,40.));
#1829=CARTESIAN_POINT('',(13.75,-60.,50.));
#1830=CARTESIAN_POINT('',(13.75,-50.,40.));
#1831=CARTESIAN_POINT('Origin',(12.5,-80.,50.));
#1832=CARTESIAN_POINT('',(10.,-100.,50.));
#1833=CARTESIAN_POINT('',(10.,-110.,50.));
#1834=CARTESIAN_POINT('',(11.25,-100.,50.));
#1835=CARTESIAN_POINT('Origin',(10.,-50.,0.));
#1836=CARTESIAN_POINT('',(10.,-110.,40.));
#1837=CARTESIAN_POINT('',(10.,-110.,0.));
#1838=CARTESIAN_POINT('Origin',(10.,-100.,40.));
#1839=CARTESIAN_POINT('',(10.,-50.,0.));
#1840=CARTESIAN_POINT('Origin',(11.25,-100.,40.));
#1841=CARTESIAN_POINT('',(11.25,-110.,40.));
#1842=CARTESIAN_POINT('Origin',(10.,-110.,0.));
#1843=CARTESIAN_POINT('Origin',(15.,-50.,0.));
#1844=CARTESIAN_POINT('',(0.,0.,0.));
#1845=CARTESIAN_POINT('Origin',(-46.2996662010547,-4.2,32.2487515209526));
#1846=CARTESIAN_POINT('',(-46.2996662010547,-4.2,17.7487515209526));
#1847=CARTESIAN_POINT('',(-46.2996662010547,-4.2,32.2487515209526));
#1848=CARTESIAN_POINT('',(-46.2996662010547,-4.2,32.2487515209526));
#1849=CARTESIAN_POINT('',(-48.2996662010547,-4.2,17.7487515209526));
#1850=CARTESIAN_POINT('',(-46.2996662010547,-4.2,17.7487515209526));
#1851=CARTESIAN_POINT('',(-48.2996662010547,-4.2,32.2487515209526));
#1852=CARTESIAN_POINT('',(-48.2996662010547,-4.2,17.7487515209526));
#1853=CARTESIAN_POINT('',(-46.2996662010547,-4.2,32.2487515209526));
#1854=CARTESIAN_POINT('Origin',(-48.2996662010547,-4.6,24.9987515209526));
#1855=CARTESIAN_POINT('',(-48.2996662010547,-5.,17.7487515209526));
#1856=CARTESIAN_POINT('',(-48.2996662010547,-5.,17.7487515209526));
#1857=CARTESIAN_POINT('',(-48.2996662010547,-5.,32.2487515209526));
#1858=CARTESIAN_POINT('',(-48.2996662010547,-5.,32.2487515209526));
#1859=CARTESIAN_POINT('',(-48.2996662010547,-4.2,32.2487515209526));
#1860=CARTESIAN_POINT('Origin',(-46.2996662010547,-1.5,32.2487515209526));
#1861=CARTESIAN_POINT('',(-46.2996662010547,-1.5,32.2487515209526));
#1862=CARTESIAN_POINT('',(-46.2996662010547,-1.5,32.2487515209526));
#1863=CARTESIAN_POINT('',(-46.2996662010547,-1.5,17.7487515209526));
#1864=CARTESIAN_POINT('',(-46.2996662010547,-1.5,16.1243757604763));
#1865=CARTESIAN_POINT('',(-46.2996662010547,-1.5,17.7487515209526));
#1866=CARTESIAN_POINT('Origin',(-46.0496662010547,-5.,24.9987515209526));
#1867=CARTESIAN_POINT('',(-45.7996662010547,-5.,32.2487515209526));
#1868=CARTESIAN_POINT('',(-45.7996662010547,-5.,32.2487515209526));
#1869=CARTESIAN_POINT('',(-45.7996662010547,-5.,17.7487515209526));
#1870=CARTESIAN_POINT('',(-46.2996662010547,-5.,17.7487515209526));
#1871=CARTESIAN_POINT('',(-45.7996662010547,-5.,17.7487515209526));
#1872=CARTESIAN_POINT('Origin',(-73.4499983582646,-4.2,17.7499992791563));
#1873=CARTESIAN_POINT('',(-73.4499983582646,-4.2,32.2499992791563));
#1874=CARTESIAN_POINT('',(-73.4499983582646,-4.2,17.7499992791563));
#1875=CARTESIAN_POINT('',(-73.4499983582646,-4.2,32.2499992791563));
#1876=CARTESIAN_POINT('',(-71.4499983582646,-4.20000000000001,32.2499992791563));
#1877=CARTESIAN_POINT('',(-73.4499983582646,-4.2,32.2499992791563));
#1878=CARTESIAN_POINT('',(-71.4499983582646,-4.20000000000001,17.7499992791563));
#1879=CARTESIAN_POINT('',(-71.4499983582646,-4.20000000000001,32.2499992791563));
#1880=CARTESIAN_POINT('',(-73.4499983582646,-4.2,17.7499992791563));
#1881=CARTESIAN_POINT('Origin',(-73.4499983582646,-5.00000007450581,32.2499992791563));
#1882=CARTESIAN_POINT('',(-73.9499983582646,-5.,17.7499992791563));
#1883=CARTESIAN_POINT('',(-71.4499983582646,-5.00000007450582,17.7499992791563));
#1884=CARTESIAN_POINT('',(-73.4499983582646,-5.00000007450581,17.7499992791563));
#1885=CARTESIAN_POINT('',(-71.4499983582646,-5.00000007450582,32.2499992791563));
#1886=CARTESIAN_POINT('',(-71.4499983582646,-5.00000007450582,17.7499992791563));
#1887=CARTESIAN_POINT('',(-73.9499983582646,-5.,32.2499992791563));
#1888=CARTESIAN_POINT('',(-73.9499983582646,-5.,32.2499992791563));
#1889=CARTESIAN_POINT('',(-73.9499983582646,-5.,17.7499992791563));
#1890=CARTESIAN_POINT('Origin',(-71.4499983582646,-4.60000003725292,24.9999992791563));
#1891=CARTESIAN_POINT('',(-71.4499983582646,-4.20000000000001,17.7499992791563));
#1892=CARTESIAN_POINT('',(-71.4499983582646,-5.00000007450582,32.2499992791563));
#1893=CARTESIAN_POINT('Origin',(-45.7996662010547,-1.5,17.7487515209526));
#1894=CARTESIAN_POINT('',(-45.7996662010547,-1.5,32.2487515209526));
#1895=CARTESIAN_POINT('',(-45.7996662010547,-1.5,17.7487515209526));
#1896=CARTESIAN_POINT('',(-45.7996662010547,-1.5,8.87437576047628));
#1897=CARTESIAN_POINT('',(-45.7996662010547,-1.5,32.2487515209526));
#1898=CARTESIAN_POINT('',(-45.7996662010547,-1.5,17.7487515209526));
#1899=CARTESIAN_POINT('Origin',(-46.2996662010547,-1.5,17.7487515209526));
#1900=CARTESIAN_POINT('',(-38.1498331005274,-1.5,17.7487515209526));
#1901=CARTESIAN_POINT('Origin',(-45.7996662010547,-1.5,32.2487515209526));
#1902=CARTESIAN_POINT('',(-37.8998331005274,-1.5,32.2487515209526));
#1903=CARTESIAN_POINT('Origin',(-73.4499983582646,-1.5,32.2499992791563));
#1904=CARTESIAN_POINT('',(-73.9499983582646,-1.5,32.2499992791563));
#1905=CARTESIAN_POINT('',(-73.4499983582646,-1.5,32.2499992791563));
#1906=CARTESIAN_POINT('',(-51.7249991791323,-1.5,32.2499992791563));
#1907=CARTESIAN_POINT('',(-73.9499983582646,-1.5,32.2499992791563));
#1908=CARTESIAN_POINT('',(-73.4499983582646,-1.5,32.2499992791563));
#1909=CARTESIAN_POINT('Origin',(-73.4499983582646,-1.5,17.7499992791563));
#1910=CARTESIAN_POINT('',(-73.4499983582646,-1.5,17.7499992791563));
#1911=CARTESIAN_POINT('',(-73.4499983582646,-1.5,8.87499963957816));
#1912=CARTESIAN_POINT('',(-73.4499983582646,-1.5,17.7499992791563));
#1913=CARTESIAN_POINT('Origin',(-73.9499983582646,-1.5,17.7499992791563));
#1914=CARTESIAN_POINT('',(-73.9499983582646,-1.5,17.7499992791563));
#1915=CARTESIAN_POINT('',(-51.9749991791323,-1.5,17.7499992791563));
#1916=CARTESIAN_POINT('',(-73.9499983582646,-1.5,17.7499992791563));
#1917=CARTESIAN_POINT('Origin',(-73.9499983582646,-1.5,32.2499992791563));
#1918=CARTESIAN_POINT('',(-73.9499983582646,-1.5,16.1249996395782));
#1919=CARTESIAN_POINT('Origin',(-51.076,-30.0000004470348,16.2900001937151));
#1920=CARTESIAN_POINT('',(-51.076,-20.5000003054738,16.2900001937151));
#1921=CARTESIAN_POINT('',(-51.076,-30.0000004470348,16.2900001937151));
#1922=CARTESIAN_POINT('',(-51.076,-27.6250004116446,16.2900001937151));
#1923=CARTESIAN_POINT('',(-50.802,-20.5000003054738,16.2900001937151));
#1924=CARTESIAN_POINT('',(-51.076,-20.5000003054738,16.2900001937151));
#1925=CARTESIAN_POINT('',(-50.802,-30.0000004470348,16.2900001937151));
#1926=CARTESIAN_POINT('',(-50.802,-20.5000003054738,16.2900001937151));
#1927=CARTESIAN_POINT('',(-51.076,-30.0000004470348,16.2900001937151));
#1928=CARTESIAN_POINT('Origin',(-50.802,-25.2500003762543,16.7200001937151));
#1929=CARTESIAN_POINT('',(-50.802,-20.5000003054738,17.1500001937151));
#1930=CARTESIAN_POINT('',(-50.802,-20.5000003054738,17.1500001937151));
#1931=CARTESIAN_POINT('',(-50.802,-30.0000004470348,17.1500001937151));
#1932=CARTESIAN_POINT('',(-50.802,-30.0000004470348,17.1500001937151));
#1933=CARTESIAN_POINT('',(-50.802,-30.0000004470348,16.2900001937151));
#1934=CARTESIAN_POINT('Origin',(-51.076,-25.2500003762543,15.4500001937151));
#1935=CARTESIAN_POINT('',(-51.076,-30.0000004470348,14.9500001937151));
#1936=CARTESIAN_POINT('',(-51.076,-30.0000004470348,15.9500001937151));
#1937=CARTESIAN_POINT('',(-51.076,-20.5000003054738,14.9500001937151));
#1938=CARTESIAN_POINT('',(-51.076,-20.5000003054738,14.9500001937151));
#1939=CARTESIAN_POINT('',(-51.076,-20.5000003054738,15.9500001937151));
#1940=CARTESIAN_POINT('Origin',(-51.076,-30.0000004470348,17.1500001937151));
#1941=CARTESIAN_POINT('',(-52.076,-20.5000003054738,17.1500001937151));
#1942=CARTESIAN_POINT('',(-51.076,-20.5000003054738,17.1500001937151));
#1943=CARTESIAN_POINT('',(-52.076,-30.0000004470348,17.1500001937151));
#1944=CARTESIAN_POINT('',(-52.076,-20.5000003054738,17.1500001937151));
#1945=CARTESIAN_POINT('',(-51.076,-30.0000004470348,17.1500001937151));
#1946=CARTESIAN_POINT('Origin',(-52.076,-25.2500003762543,15.4500001937151));
#1947=CARTESIAN_POINT('',(-52.076,-20.5000003054738,13.9500001937151));
#1948=CARTESIAN_POINT('',(-52.076,-20.5000003054738,15.9500001937151));
#1949=CARTESIAN_POINT('',(-52.076,-30.0000004470348,13.9500001937151));
#1950=CARTESIAN_POINT('',(-52.076,-30.0000004470348,13.9500001937151));
#1951=CARTESIAN_POINT('',(-52.076,-30.0000004470348,15.9500001937151));
#1952=CARTESIAN_POINT('Origin',(-31.5,-30.0000004470348,14.9500001937151));
#1953=CARTESIAN_POINT('',(-31.5,-20.5000003054738,14.9500001937151));
#1954=CARTESIAN_POINT('',(-31.5,-30.0000004470348,14.9500001937151));
#1955=CARTESIAN_POINT('',(-31.5,-40.0000002235174,14.9500001937151));
#1956=CARTESIAN_POINT('',(-31.5,-20.5000003054738,14.9500001937151));
#1957=CARTESIAN_POINT('',(-31.5,-30.0000004470348,14.9500001937151));
#1958=CARTESIAN_POINT('Origin',(-31.5,-30.0000004470348,13.9500001937151));
#1959=CARTESIAN_POINT('',(-31.5,-30.0000004470348,13.9500001937151));
#1960=CARTESIAN_POINT('',(-31.5,-30.0000004470348,6.97500009685755));
#1961=CARTESIAN_POINT('',(-51.076,-30.0000004470348,13.9500001937151));
#1962=CARTESIAN_POINT('Origin',(-31.5,-20.5000003054738,13.9500001937151));
#1963=CARTESIAN_POINT('',(-31.5,-20.5000003054738,13.9500001937151));
#1964=CARTESIAN_POINT('',(-31.5,-35.2500001527369,13.9500001937151));
#1965=CARTESIAN_POINT('',(-31.5,-20.5000003054738,13.9500001937151));
#1966=CARTESIAN_POINT('Origin',(-31.5,-20.5000003054738,14.9500001937151));
#1967=CARTESIAN_POINT('',(-31.5,-20.5000003054738,7.47500009685755));
#1968=CARTESIAN_POINT('Origin',(-30.,-29.5000004395843,19.5000002905726));
#1969=CARTESIAN_POINT('',(-31.5,-20.5000003054738,19.5000002905726));
#1970=CARTESIAN_POINT('',(-31.5,-29.5000004395843,19.5000002905726));
#1971=CARTESIAN_POINT('',(-31.5,-39.7500002197921,19.5000002905726));
#1972=CARTESIAN_POINT('',(-30.,-20.5000003054738,19.5000002905726));
#1973=CARTESIAN_POINT('',(-30.,-20.5000003054738,19.5000002905726));
#1974=CARTESIAN_POINT('',(-30.,-29.5000004395843,19.5000002905726));
#1975=CARTESIAN_POINT('',(-30.,-39.7500002197921,19.5000002905726));
#1976=CARTESIAN_POINT('',(-30.,-29.5000004395843,19.5000002905726));
#1977=CARTESIAN_POINT('Origin',(-30.,-29.5000004395843,16.0000002384186));
#1978=CARTESIAN_POINT('',(-31.5,-29.5000004395843,16.0000002384186));
#1979=CARTESIAN_POINT('',(-31.5,-29.5000004395843,8.00000011920929));
#1980=CARTESIAN_POINT('',(-30.,-29.5000004395843,16.0000002384186));
#1981=CARTESIAN_POINT('',(-30.,-29.5000004395843,8.00000011920929));
#1982=CARTESIAN_POINT('',(-30.,-29.5000004395843,16.0000002235174));
#1983=CARTESIAN_POINT('Origin',(-30.,-20.5000003054738,19.5000002905726));
#1984=CARTESIAN_POINT('',(-31.5,-20.5000003054738,16.0000002384186));
#1985=CARTESIAN_POINT('',(-31.5,-20.5000003054738,9.75000014528632));
#1986=CARTESIAN_POINT('',(-30.,-20.5000003054738,16.0000002384186));
#1987=CARTESIAN_POINT('',(-30.,-20.5000003054738,16.0000002235174));
#1988=CARTESIAN_POINT('',(-30.,-20.5000003054738,9.75000014528632));
#1989=CARTESIAN_POINT('Origin',(-31.5,-50.,0.));
#1990=CARTESIAN_POINT('',(-31.5,-1.5,10.));
#1991=CARTESIAN_POINT('',(-31.5,-50.,10.));
#1992=CARTESIAN_POINT('',(-31.5,-37.5,10.));
#1993=CARTESIAN_POINT('',(-31.5,-50.,40.));
#1994=CARTESIAN_POINT('',(-31.5,-50.,0.));
#1995=CARTESIAN_POINT('',(-31.5,-1.5,40.));
#1996=CARTESIAN_POINT('',(-31.5,-37.5,40.));
#1997=CARTESIAN_POINT('',(-31.5,-1.5,0.));
#1998=CARTESIAN_POINT('',(-31.5,-34.0000005066395,16.0000002235174));
#1999=CARTESIAN_POINT('',(-31.5,-42.0000002533197,16.0000002235174));
#2000=CARTESIAN_POINT('',(-31.5,-34.0000005066395,15.0000002235174));
#2001=CARTESIAN_POINT('',(-31.5,-34.0000005066395,7.50000011175871));
#2002=CARTESIAN_POINT('',(-31.5,-16.2000005066395,15.0000002235174));
#2003=CARTESIAN_POINT('',(-31.5,-33.1000002533197,15.0000002235174));
#2004=CARTESIAN_POINT('',(-31.5,-16.2000005066395,16.0000002235174));
#2005=CARTESIAN_POINT('',(-31.5,-16.2000005066395,8.00000011175871));
#2006=CARTESIAN_POINT('',(-31.5,-42.0000002533197,16.0000002235174));
#2007=CARTESIAN_POINT('Origin',(-30.,-34.0000005066395,16.0000002235174));
#2008=CARTESIAN_POINT('',(-30.,-34.0000005066395,16.0000002235174));
#2009=CARTESIAN_POINT('',(-30.,-42.0000002533197,16.0000002235174));
#2010=CARTESIAN_POINT('',(-30.,-34.0000005066395,16.0000002235174));
#2011=CARTESIAN_POINT('Origin',(-30.,-50.,0.));
#2012=CARTESIAN_POINT('',(-30.,0.,10.));
#2013=CARTESIAN_POINT('',(-30.,-50.,10.));
#2014=CARTESIAN_POINT('',(-30.,-37.5,10.));
#2015=CARTESIAN_POINT('',(-30.,0.,40.));
#2016=CARTESIAN_POINT('',(-30.,0.,0.));
#2017=CARTESIAN_POINT('',(-30.,-50.,40.));
#2018=CARTESIAN_POINT('',(-30.,-37.5,40.));
#2019=CARTESIAN_POINT('',(-30.,-50.,0.));
#2020=CARTESIAN_POINT('',(-30.,-16.2000005066395,16.0000002235174));
#2021=CARTESIAN_POINT('',(-30.,-42.0000002533197,16.0000002235174));
#2022=CARTESIAN_POINT('',(-30.,-16.2000005066395,15.0000002235174));
#2023=CARTESIAN_POINT('',(-30.,-16.2000005066395,8.00000011175871));
#2024=CARTESIAN_POINT('',(-30.,-34.0000005066395,15.0000002235174));
#2025=CARTESIAN_POINT('',(-30.,-33.1000002533197,15.0000002235174));
#2026=CARTESIAN_POINT('',(-30.,-34.0000005066395,7.50000011175871));
#2027=CARTESIAN_POINT('Origin',(-30.,-34.0000005066395,16.0000002235174));
#2028=CARTESIAN_POINT('',(-30.,-16.2000005066395,16.0000002235174));
#2029=CARTESIAN_POINT('Origin',(-30.,-34.0000005066395,15.0000002235174));
#2030=CARTESIAN_POINT('',(-30.,-34.0000005066395,15.0000002235174));
#2031=CARTESIAN_POINT('Origin',(-30.,-16.2000005066395,15.0000002235174));
#2032=CARTESIAN_POINT('',(-30.,-16.2000005066395,15.0000002235174));
#2033=CARTESIAN_POINT('Origin',(-30.,-16.2000005066395,16.0000002235174));
#2034=CARTESIAN_POINT('Origin',(-46.9997551430934,0.,17.7498129515978));
#2035=CARTESIAN_POINT('',(-46.9997551430934,-1.5,32.2498129515978));
#2036=CARTESIAN_POINT('',(-46.9997551430934,-1.5,17.7498129515978));
#2037=CARTESIAN_POINT('',(-46.9997551430934,-1.5,8.87490647579889));
#2038=CARTESIAN_POINT('',(-46.9997551430934,0.,32.2498129515978));
#2039=CARTESIAN_POINT('',(-46.9997551430934,0.,32.2498129515978));
#2040=CARTESIAN_POINT('',(-46.9997551430934,0.,17.7498129515978));
#2041=CARTESIAN_POINT('',(-46.9997551430934,0.,8.87490647579889));
#2042=CARTESIAN_POINT('',(-46.9997551430934,0.,17.7498129515978));
#2043=CARTESIAN_POINT('Origin',(-72.9997551430934,0.,17.7498129515978));
#2044=CARTESIAN_POINT('',(-72.9997551430934,-1.5,17.7498129515978));
#2045=CARTESIAN_POINT('',(-51.4998775715467,-1.5,17.7498129515978));
#2046=CARTESIAN_POINT('',(-72.9997551430934,0.,17.7498129515978));
#2047=CARTESIAN_POINT('',(-51.4998775715467,0.,17.7498129515978));
#2048=CARTESIAN_POINT('',(-72.9997551430934,0.,17.7498129515978));
#2049=CARTESIAN_POINT('Origin',(-72.9997551430934,0.,32.2498129515978));
#2050=CARTESIAN_POINT('',(-72.9997551430934,-1.5,32.2498129515978));
#2051=CARTESIAN_POINT('',(-72.9997551430934,-1.5,16.1249064757989));
#2052=CARTESIAN_POINT('',(-72.9997551430934,0.,32.2498129515978));
#2053=CARTESIAN_POINT('',(-72.9997551430934,0.,16.1249064757989));
#2054=CARTESIAN_POINT('',(-72.9997551430934,0.,32.2498129515978));
#2055=CARTESIAN_POINT('Origin',(-46.9997551430934,0.,32.2498129515978));
#2056=CARTESIAN_POINT('',(-38.4998775715467,-1.5,32.2498129515978));
#2057=CARTESIAN_POINT('',(-38.4998775715467,0.,32.2498129515978));
#2058=CARTESIAN_POINT('Origin',(-60.5000010728836,-38.0000005662441,48.5));
#2059=CARTESIAN_POINT('',(-60.5000010728836,-38.0000005662441,48.5));
#2060=CARTESIAN_POINT('',(-60.5000010728836,-22.5000005662441,48.5));
#2061=CARTESIAN_POINT('',(-60.5000010728836,-31.5000002831221,48.5));
#2062=CARTESIAN_POINT('',(-60.5000010728836,-38.0000005662441,49.5));
#2063=CARTESIAN_POINT('',(-60.5000010728836,-38.0000005662441,48.5));
#2064=CARTESIAN_POINT('',(-60.5000010728836,-22.5000005662441,49.5));
#2065=CARTESIAN_POINT('',(-60.5000010728836,-38.0000005662441,49.5));
#2066=CARTESIAN_POINT('',(-60.5000010728836,-22.5000005662441,48.5));
#2067=CARTESIAN_POINT('Origin',(-72.0000010728836,-38.0000005662441,48.5));
#2068=CARTESIAN_POINT('',(-72.0000010728836,-38.0000005662441,48.5));
#2069=CARTESIAN_POINT('',(-66.0000005364418,-38.0000005662441,48.5));
#2070=CARTESIAN_POINT('',(-72.0000010728836,-38.0000005662441,49.5));
#2071=CARTESIAN_POINT('',(-72.0000010728836,-38.0000005662441,48.5));
#2072=CARTESIAN_POINT('',(-72.0000010728836,-38.0000005662441,49.5));
#2073=CARTESIAN_POINT('Origin',(-72.0000010728836,-22.5000005662441,48.5));
#2074=CARTESIAN_POINT('',(-72.0000010728836,-22.5000005662441,48.5));
#2075=CARTESIAN_POINT('',(-72.0000010728836,-23.7500002831221,48.5));
#2076=CARTESIAN_POINT('',(-72.0000010728836,-22.5000005662441,49.5));
#2077=CARTESIAN_POINT('',(-72.0000010728836,-22.5000005662441,48.5));
#2078=CARTESIAN_POINT('',(-72.0000010728836,-22.5000005662441,49.5));
#2079=CARTESIAN_POINT('Origin',(-60.5000010728836,-22.5000005662441,48.5));
#2080=CARTESIAN_POINT('',(-60.2500005364418,-22.5000005662441,48.5));
#2081=CARTESIAN_POINT('',(-60.5000010728836,-22.5000005662441,49.5));
#2082=CARTESIAN_POINT('Origin',(-66.2500010728836,-30.2500005662441,49.5));
#2083=CARTESIAN_POINT('Origin',(-80.,-12.5,10.));
#2084=CARTESIAN_POINT('',(-80.,-50.,1.5));
#2085=CARTESIAN_POINT('',(-88.5,-50.,10.));
#2086=CARTESIAN_POINT('Origin',(-80.,-50.,10.));
#2087=CARTESIAN_POINT('',(-80.,-1.5,1.5));
#2088=CARTESIAN_POINT('',(-80.,-12.5,1.5));
#2089=CARTESIAN_POINT('',(-88.5,-1.5,10.));
#2090=CARTESIAN_POINT('Origin',(-80.,-1.5,10.));
#2091=CARTESIAN_POINT('',(-88.5,-12.5,10.));
#2092=CARTESIAN_POINT('Origin',(-88.5,0.,0.));
#2093=CARTESIAN_POINT('',(-88.5,-1.5,40.));
#2094=CARTESIAN_POINT('',(-88.5,-1.5,0.));
#2095=CARTESIAN_POINT('',(-88.5,-50.,40.));
#2096=CARTESIAN_POINT('',(-88.5,-12.5,40.));
#2097=CARTESIAN_POINT('',(-88.5,-50.,0.));
#2098=CARTESIAN_POINT('Origin',(-40.,-37.5,10.));
#2099=CARTESIAN_POINT('',(-40.,-1.5,1.5));
#2100=CARTESIAN_POINT('Origin',(-40.,-1.5,10.));
#2101=CARTESIAN_POINT('',(-40.,-50.,1.5));
#2102=CARTESIAN_POINT('',(-40.,-37.5,1.5));
#2103=CARTESIAN_POINT('Origin',(-40.,-50.,10.));
#2104=CARTESIAN_POINT('Origin',(-30.,-1.5,0.));
#2105=CARTESIAN_POINT('',(-45.,-1.5,1.5));
#2106=CARTESIAN_POINT('',(-40.,-1.5,48.5));
#2107=CARTESIAN_POINT('Origin',(-40.,-1.5,40.));
#2108=CARTESIAN_POINT('',(-80.,-1.5,48.5));
#2109=CARTESIAN_POINT('',(-45.,-1.5,48.5));
#2110=CARTESIAN_POINT('Origin',(-80.,-1.5,40.));
#2111=CARTESIAN_POINT('Origin',(-80.,-12.5,40.));
#2112=CARTESIAN_POINT('',(-80.,-50.,48.5));
#2113=CARTESIAN_POINT('Origin',(-80.,-50.,40.));
#2114=CARTESIAN_POINT('',(-80.,-12.5,48.5));
#2115=CARTESIAN_POINT('Origin',(-60.,-25.,48.5));
#2116=CARTESIAN_POINT('',(-40.,-50.,48.5));
#2117=CARTESIAN_POINT('',(-40.,-37.5,48.5));
#2118=CARTESIAN_POINT('',(-75.,-50.,48.5));
#2119=CARTESIAN_POINT('Origin',(-40.,-37.5,40.));
#2120=CARTESIAN_POINT('Origin',(-40.,-50.,40.));
#2121=CARTESIAN_POINT('Origin',(-60.,-25.,1.5));
#2122=CARTESIAN_POINT('',(-75.,-50.,1.5));
#2123=CARTESIAN_POINT('Origin',(-80.,-12.5,10.));
#2124=CARTESIAN_POINT('',(-80.,-50.,0.));
#2125=CARTESIAN_POINT('',(-90.,-50.,10.));
#2126=CARTESIAN_POINT('Origin',(-80.,-50.,10.));
#2127=CARTESIAN_POINT('',(-90.,0.,10.));
#2128=CARTESIAN_POINT('',(-90.,-12.5,10.));
#2129=CARTESIAN_POINT('',(-80.,0.,0.));
#2130=CARTESIAN_POINT('Origin',(-80.,0.,10.));
#2131=CARTESIAN_POINT('',(-80.,-12.5,0.));
#2132=CARTESIAN_POINT('Origin',(-90.,0.,0.));
#2133=CARTESIAN_POINT('',(-90.,-50.,40.));
#2134=CARTESIAN_POINT('',(-90.,-50.,0.));
#2135=CARTESIAN_POINT('',(-90.,0.,40.));
#2136=CARTESIAN_POINT('',(-90.,-12.5,40.));
#2137=CARTESIAN_POINT('',(-90.,0.,0.));
#2138=CARTESIAN_POINT('Origin',(-90.,-50.,0.));
#2139=CARTESIAN_POINT('',(-40.,-50.,0.));
#2140=CARTESIAN_POINT('',(-90.,-50.,0.));
#2141=CARTESIAN_POINT('Origin',(-40.,-50.,10.));
#2142=CARTESIAN_POINT('',(-40.,-50.,50.));
#2143=CARTESIAN_POINT('Origin',(-40.,-50.,40.));
#2144=CARTESIAN_POINT('',(-80.,-50.,50.));
#2145=CARTESIAN_POINT('',(-90.,-50.,50.));
#2146=CARTESIAN_POINT('Origin',(-80.,-50.,40.));
#2147=CARTESIAN_POINT('Origin',(-40.,-37.5,10.));
#2148=CARTESIAN_POINT('',(-40.,0.,0.));
#2149=CARTESIAN_POINT('Origin',(-40.,0.,10.));
#2150=CARTESIAN_POINT('',(-40.,-37.5,0.));
#2151=CARTESIAN_POINT('Origin',(-30.,0.,0.));
#2152=CARTESIAN_POINT('',(-80.,0.,50.));
#2153=CARTESIAN_POINT('Origin',(-80.,0.,40.));
#2154=CARTESIAN_POINT('',(-40.,0.,50.));
#2155=CARTESIAN_POINT('',(-30.,0.,50.));
#2156=CARTESIAN_POINT('Origin',(-40.,0.,40.));
#2157=CARTESIAN_POINT('',(-30.,0.,0.));
#2158=CARTESIAN_POINT('Origin',(-80.,-12.5,40.));
#2159=CARTESIAN_POINT('',(-80.,-12.5,50.));
#2160=CARTESIAN_POINT('Origin',(-60.,-25.,50.));
#2161=CARTESIAN_POINT('',(-40.,-37.5,50.));
#2162=CARTESIAN_POINT('Origin',(-40.,-37.5,40.));
#2163=CARTESIAN_POINT('Origin',(-60.,-25.,0.));
#2164=CARTESIAN_POINT('',(-142.5,-55.0000000000006,-9.99999999999994));
#2165=CARTESIAN_POINT('',(0.,0.,0.));
#2166=UNCERTAINTY_MEASURE_WITH_UNIT(LENGTH_MEASURE(0.01),#2174,
'DISTANCE_ACCURACY_VALUE',
'Maximum model space distance between geometric entities at asserted c
onnectivities');
#2167=UNCERTAINTY_MEASURE_WITH_UNIT(LENGTH_MEASURE(0.01),#2174,
'DISTANCE_ACCURACY_VALUE',
'Maximum model space distance between geometric entities at asserted c
onnectivities');
#2168=UNCERTAINTY_MEASURE_WITH_UNIT(LENGTH_MEASURE(0.01),#2174,
'DISTANCE_ACCURACY_VALUE',
'Maximum model space distance between geometric entities at asserted c
onnectivities');
#2169=UNCERTAINTY_MEASURE_WITH_UNIT(LENGTH_MEASURE(0.01),#2174,
'DISTANCE_ACCURACY_VALUE',
'Maximum model space distance between geometric entities at asserted c
onnectivities');
#2170=(
GEOMETRIC_REPRESENTATION_CONTEXT(3)
GLOBAL_UNCERTAINTY_ASSIGNED_CONTEXT((#2166))
GLOBAL_UNIT_ASSIGNED_CONTEXT((#2174,#2176,#2177))
REPRESENTATION_CONTEXT('','3D')
);
#2171=(
GEOMETRIC_REPRESENTATION_CONTEXT(3)
GLOBAL_UNCERTAINTY_ASSIGNED_CONTEXT((#2167))
GLOBAL_UNIT_ASSIGNED_CONTEXT((#2174,#2176,#2177))
REPRESENTATION_CONTEXT('','3D')
);
#2172=(
GEOMETRIC_REPRESENTATION_CONTEXT(3)
GLOBAL_UNCERTAINTY_ASSIGNED_CONTEXT((#2168))
GLOBAL_UNIT_ASSIGNED_CONTEXT((#2174,#2176,#2177))
REPRESENTATION_CONTEXT('','3D')
);
#2173=(
GEOMETRIC_REPRESENTATION_CONTEXT(3)
GLOBAL_UNCERTAINTY_ASSIGNED_CONTEXT((#2169))
GLOBAL_UNIT_ASSIGNED_CONTEXT((#2174,#2176,#2177))
REPRESENTATION_CONTEXT('','3D')
);
#2174=(
LENGTH_UNIT()
NAMED_UNIT(*)
SI_UNIT(.MILLI.,.METRE.)
);
#2175=(
LENGTH_UNIT()
NAMED_UNIT(*)
SI_UNIT($,.METRE.)
);
#2176=(
NAMED_UNIT(*)
PLANE_ANGLE_UNIT()
SI_UNIT($,.RADIAN.)
);
#2177=(
NAMED_UNIT(*)
SI_UNIT($,.STERADIAN.)
SOLID_ANGLE_UNIT()
);
#2178=SHAPE_DEFINITION_REPRESENTATION(#2181,#2186);
#2179=SHAPE_DEFINITION_REPRESENTATION(#2182,#2187);
#2180=SHAPE_DEFINITION_REPRESENTATION(#2183,#2188);
#2181=PRODUCT_DEFINITION_SHAPE('',$,#2190);
#2182=PRODUCT_DEFINITION_SHAPE('',$,#2191);
#2183=PRODUCT_DEFINITION_SHAPE('',$,#2192);
#2184=PRODUCT_DEFINITION_SHAPE($,$,#17);
#2185=PRODUCT_DEFINITION_SHAPE($,$,#18);
#2186=SHAPE_REPRESENTATION('',(#1342,#1438,#1439),#2170);
#2187=SHAPE_REPRESENTATION('',(#1343),#2171);
#2188=SHAPE_REPRESENTATION('',(#1362),#2172);
#2189=PRODUCT_DEFINITION_CONTEXT('part definition',#2200,'design');
#2190=PRODUCT_DEFINITION('desk buddy printable',
'desk buddy printable v1',#2193,#2189);
#2191=PRODUCT_DEFINITION('Final desk back','Final desk back v2',#2194,#2189);
#2192=PRODUCT_DEFINITION('Final desk front','Final desk front v15',#2195,
#2189);
#2193=PRODUCT_DEFINITION_FORMATION('',$,#2202);
#2194=PRODUCT_DEFINITION_FORMATION('',$,#2203);
#2195=PRODUCT_DEFINITION_FORMATION('',$,#2204);
#2196=PRODUCT_RELATED_PRODUCT_CATEGORY('desk buddy printable v1',
'desk buddy printable v1',(#2202));
#2197=PRODUCT_RELATED_PRODUCT_CATEGORY('Final desk back v2',
'Final desk back v2',(#2203));
#2198=PRODUCT_RELATED_PRODUCT_CATEGORY('Final desk front v15',
'Final desk front v15',(#2204));
#2199=APPLICATION_PROTOCOL_DEFINITION('international standard',
'automotive_design',2009,#2200);
#2200=APPLICATION_CONTEXT(
'Core Data for Automotive Mechanical Design Process');
#2201=PRODUCT_CONTEXT('part definition',#2200,'mechanical');
#2202=PRODUCT('desk buddy printable','desk buddy printable v1',$,(#2201));
#2203=PRODUCT('Final desk back','Final desk back v2',$,(#2201));
#2204=PRODUCT('Final desk front','Final desk front v15',$,(#2201));
#2205=PRESENTATION_STYLE_ASSIGNMENT((#2206));
#2206=SURFACE_STYLE_USAGE(.BOTH.,#2207);
#2207=SURFACE_SIDE_STYLE('',(#2208));
#2208=SURFACE_STYLE_FILL_AREA(#2209);
#2209=FILL_AREA_STYLE('Steel - Satin',(#2210));
#2210=FILL_AREA_STYLE_COLOUR('Steel - Satin',#2211);
#2211=COLOUR_RGB('Steel - Satin',0.627450980392157,0.627450980392157,0.627450980392157);
ENDSEC;
END-ISO-10303-21;
