ISO-10303-21;
HEADER;
/* Generated by software containing ST-Developer
 * from STEP Tools, Inc. (www.steptools.com) 
 */

FILE_DESCRIPTION(
/* description */ (''),
/* implementation_level */ '2;1');

FILE_NAME(
/* name */ 'Final desk front.step',
/* time_stamp */ '2026-09-18T22:35:00+05:30',
/* author */ (''),
/* organization */ (''),
/* preprocessor_version */ 'ST-DEVELOPER v20.2',
/* originating_system */ 'Autodesk Translation Framework v15.15.0.0',
/* authorisation */ '');

FILE_SCHEMA (('AUTOMOTIVE_DESIGN { 1 0 10303 214 3 1 1 }'));
ENDSEC;

DATA;
#10=MECHANICAL_DESIGN_GEOMETRIC_PRESENTATION_REPRESENTATION('',(#13),#1293);
#11=SHAPE_REPRESENTATION_RELATIONSHIP('SRR','None',#1300,#12);
#12=ADVANCED_BREP_SHAPE_REPRESENTATION('',(#14),#1292);
#13=STYLED_ITEM('',(#1309),#14);
#14=MANIFOLD_SOLID_BREP('Body1',#789);
#15=CIRCLE('',#828,8.5);
#16=CIRCLE('',#829,8.5);
#17=CIRCLE('',#832,8.5);
#18=CIRCLE('',#833,8.5);
#19=CIRCLE('',#835,8.5);
#20=CIRCLE('',#836,8.5);
#21=CIRCLE('',#838,8.5);
#22=CIRCLE('',#841,8.5);
#23=CIRCLE('',#844,10.);
#24=CIRCLE('',#845,10.);
#25=CIRCLE('',#848,10.);
#26=CIRCLE('',#849,10.);
#27=CIRCLE('',#850,10.);
#28=CIRCLE('',#852,10.);
#29=CIRCLE('',#854,10.);
#30=CIRCLE('',#855,10.);
#31=CYLINDRICAL_SURFACE('',#827,8.5);
#32=CYLINDRICAL_SURFACE('',#831,8.5);
#33=CYLINDRICAL_SURFACE('',#837,8.5);
#34=CYLINDRICAL_SURFACE('',#840,8.5);
#35=CYLINDRICAL_SURFACE('',#843,10.);
#36=CYLINDRICAL_SURFACE('',#851,10.);
#37=CYLINDRICAL_SURFACE('',#856,10.);
#38=CYLINDRICAL_SURFACE('',#858,10.);
#39=FACE_BOUND('',#96,.T.);
#40=FACE_BOUND('',#97,.T.);
#41=FACE_BOUND('',#100,.T.);
#42=FACE_BOUND('',#118,.T.);
#43=FACE_BOUND('',#121,.T.);
#44=FACE_BOUND('',#127,.T.);
#45=FACE_BOUND('',#130,.T.);
#46=FACE_OUTER_BOUND('',#87,.T.);
#47=FACE_OUTER_BOUND('',#88,.T.);
#48=FACE_OUTER_BOUND('',#89,.T.);
#49=FACE_OUTER_BOUND('',#90,.T.);
#50=FACE_OUTER_BOUND('',#91,.T.);
#51=FACE_OUTER_BOUND('',#92,.T.);
#52=FACE_OUTER_BOUND('',#93,.T.);
#53=FACE_OUTER_BOUND('',#94,.T.);
#54=FACE_OUTER_BOUND('',#95,.T.);
#55=FACE_OUTER_BOUND('',#98,.T.);
#56=FACE_OUTER_BOUND('',#99,.T.);
#57=FACE_OUTER_BOUND('',#101,.T.);
#58=FACE_OUTER_BOUND('',#102,.T.);
#59=FACE_OUTER_BOUND('',#103,.T.);
#60=FACE_OUTER_BOUND('',#104,.T.);
#61=FACE_OUTER_BOUND('',#105,.T.);
#62=FACE_OUTER_BOUND('',#106,.T.);
#63=FACE_OUTER_BOUND('',#107,.T.);
#64=FACE_OUTER_BOUND('',#108,.T.);
#65=FACE_OUTER_BOUND('',#109,.T.);
#66=FACE_OUTER_BOUND('',#110,.T.);
#67=FACE_OUTER_BOUND('',#111,.T.);
#68=FACE_OUTER_BOUND('',#112,.T.);
#69=FACE_OUTER_BOUND('',#113,.T.);
#70=FACE_OUTER_BOUND('',#114,.T.);
#71=FACE_OUTER_BOUND('',#115,.T.);
#72=FACE_OUTER_BOUND('',#116,.T.);
#73=FACE_OUTER_BOUND('',#117,.T.);
#74=FACE_OUTER_BOUND('',#119,.T.);
#75=FACE_OUTER_BOUND('',#120,.T.);
#76=FACE_OUTER_BOUND('',#122,.T.);
#77=FACE_OUTER_BOUND('',#123,.T.);
#78=FACE_OUTER_BOUND('',#124,.T.);
#79=FACE_OUTER_BOUND('',#125,.T.);
#80=FACE_OUTER_BOUND('',#126,.T.);
#81=FACE_OUTER_BOUND('',#128,.T.);
#82=FACE_OUTER_BOUND('',#129,.T.);
#83=FACE_OUTER_BOUND('',#131,.T.);
#84=FACE_OUTER_BOUND('',#132,.T.);
#85=FACE_OUTER_BOUND('',#133,.T.);
#86=FACE_OUTER_BOUND('',#134,.T.);
#87=EDGE_LOOP('',(#499,#500,#501,#502));
#88=EDGE_LOOP('',(#503,#504,#505,#506));
#89=EDGE_LOOP('',(#507,#508,#509,#510));
#90=EDGE_LOOP('',(#511,#512,#513,#514));
#91=EDGE_LOOP('',(#515,#516,#517,#518));
#92=EDGE_LOOP('',(#519,#520,#521,#522));
#93=EDGE_LOOP('',(#523,#524,#525,#526));
#94=EDGE_LOOP('',(#527,#528,#529,#530));
#95=EDGE_LOOP('',(#531,#532,#533,#534));
#96=EDGE_LOOP('',(#535,#536,#537,#538));
#97=EDGE_LOOP('',(#539,#540,#541,#542,#543,#544,#545,#546));
#98=EDGE_LOOP('',(#547,#548,#549,#550));
#99=EDGE_LOOP('',(#551,#552,#553,#554));
#100=EDGE_LOOP('',(#555,#556,#557,#558,#559,#560,#561,#562));
#101=EDGE_LOOP('',(#563,#564,#565,#566));
#102=EDGE_LOOP('',(#567,#568,#569,#570));
#103=EDGE_LOOP('',(#571,#572,#573,#574));
#104=EDGE_LOOP('',(#575,#576,#577,#578));
#105=EDGE_LOOP('',(#579,#580,#581,#582));
#106=EDGE_LOOP('',(#583,#584,#585,#586));
#107=EDGE_LOOP('',(#587,#588,#589,#590));
#108=EDGE_LOOP('',(#591,#592,#593,#594));
#109=EDGE_LOOP('',(#595,#596,#597,#598));
#110=EDGE_LOOP('',(#599,#600,#601,#602));
#111=EDGE_LOOP('',(#603,#604,#605,#606));
#112=EDGE_LOOP('',(#607,#608,#609,#610));
#113=EDGE_LOOP('',(#611,#612,#613,#614));
#114=EDGE_LOOP('',(#615,#616,#617,#618));
#115=EDGE_LOOP('',(#619,#620,#621,#622));
#116=EDGE_LOOP('',(#623,#624,#625,#626));
#117=EDGE_LOOP('',(#627,#628,#629,#630,#631,#632,#633,#634));
#118=EDGE_LOOP('',(#635,#636,#637,#638));
#119=EDGE_LOOP('',(#639,#640,#641,#642));
#120=EDGE_LOOP('',(#643,#644,#645,#646));
#121=EDGE_LOOP('',(#647,#648,#649,#650));
#122=EDGE_LOOP('',(#651,#652,#653,#654));
#123=EDGE_LOOP('',(#655,#656,#657,#658));
#124=EDGE_LOOP('',(#659,#660,#661,#662));
#125=EDGE_LOOP('',(#663,#664,#665,#666));
#126=EDGE_LOOP('',(#667,#668,#669,#670,#671,#672,#673,#674));
#127=EDGE_LOOP('',(#675,#676,#677,#678,#679,#680,#681,#682));
#128=EDGE_LOOP('',(#683,#684,#685,#686));
#129=EDGE_LOOP('',(#687,#688,#689,#690,#691,#692,#693,#694));
#130=EDGE_LOOP('',(#695,#696,#697,#698));
#131=EDGE_LOOP('',(#699,#700,#701,#702));
#132=EDGE_LOOP('',(#703,#704,#705,#706));
#133=EDGE_LOOP('',(#707,#708,#709,#710));
#134=EDGE_LOOP('',(#711,#712,#713,#714));
#135=LINE('',#1072,#227);
#136=LINE('',#1074,#228);
#137=LINE('',#1076,#229);
#138=LINE('',#1077,#230);
#139=LINE('',#1080,#231);
#140=LINE('',#1082,#232);
#141=LINE('',#1083,#233);
#142=LINE('',#1086,#234);
#143=LINE('',#1088,#235);
#144=LINE('',#1089,#236);
#145=LINE('',#1091,#237);
#146=LINE('',#1092,#238);
#147=LINE('',#1097,#239);
#148=LINE('',#1099,#240);
#149=LINE('',#1101,#241);
#150=LINE('',#1102,#242);
#151=LINE('',#1105,#243);
#152=LINE('',#1107,#244);
#153=LINE('',#1108,#245);
#154=LINE('',#1111,#246);
#155=LINE('',#1113,#247);
#156=LINE('',#1114,#248);
#157=LINE('',#1118,#249);
#158=LINE('',#1120,#250);
#159=LINE('',#1122,#251);
#160=LINE('',#1123,#252);
#161=LINE('',#1125,#253);
#162=LINE('',#1127,#254);
#163=LINE('',#1129,#255);
#164=LINE('',#1131,#256);
#165=LINE('',#1132,#257);
#166=LINE('',#1135,#258);
#167=LINE('',#1136,#259);
#168=LINE('',#1140,#260);
#169=LINE('',#1142,#261);
#170=LINE('',#1144,#262);
#171=LINE('',#1145,#263);
#172=LINE('',#1147,#264);
#173=LINE('',#1149,#265);
#174=LINE('',#1151,#266);
#175=LINE('',#1152,#267);
#176=LINE('',#1154,#268);
#177=LINE('',#1156,#269);
#178=LINE('',#1158,#270);
#179=LINE('',#1163,#271);
#180=LINE('',#1165,#272);
#181=LINE('',#1167,#273);
#182=LINE('',#1168,#274);
#183=LINE('',#1171,#275);
#184=LINE('',#1173,#276);
#185=LINE('',#1174,#277);
#186=LINE('',#1177,#278);
#187=LINE('',#1179,#279);
#188=LINE('',#1180,#280);
#189=LINE('',#1182,#281);
#190=LINE('',#1183,#282);
#191=LINE('',#1187,#283);
#192=LINE('',#1189,#284);
#193=LINE('',#1191,#285);
#194=LINE('',#1192,#286);
#195=LINE('',#1195,#287);
#196=LINE('',#1197,#288);
#197=LINE('',#1198,#289);
#198=LINE('',#1201,#290);
#199=LINE('',#1203,#291);
#200=LINE('',#1204,#292);
#201=LINE('',#1206,#293);
#202=LINE('',#1207,#294);
#203=LINE('',#1214,#295);
#204=LINE('',#1217,#296);
#205=LINE('',#1220,#297);
#206=LINE('',#1222,#298);
#207=LINE('',#1223,#299);
#208=LINE('',#1228,#300);
#209=LINE('',#1231,#301);
#210=LINE('',#1235,#302);
#211=LINE('',#1240,#303);
#212=LINE('',#1243,#304);
#213=LINE('',#1244,#305);
#214=LINE('',#1248,#306);
#215=LINE('',#1254,#307);
#216=LINE('',#1257,#308);
#217=LINE('',#1260,#309);
#218=LINE('',#1262,#310);
#219=LINE('',#1263,#311);
#220=LINE('',#1266,#312);
#221=LINE('',#1271,#313);
#222=LINE('',#1276,#314);
#223=LINE('',#1281,#315);
#224=LINE('',#1283,#316);
#225=LINE('',#1285,#317);
#226=LINE('',#1287,#318);
#227=VECTOR('',#864,10.);
#228=VECTOR('',#865,10.);
#229=VECTOR('',#866,10.);
#230=VECTOR('',#867,10.);
#231=VECTOR('',#870,10.);
#232=VECTOR('',#871,10.);
#233=VECTOR('',#872,10.);
#234=VECTOR('',#875,10.);
#235=VECTOR('',#876,10.);
#236=VECTOR('',#877,10.);
#237=VECTOR('',#880,10.);
#238=VECTOR('',#881,10.);
#239=VECTOR('',#886,10.);
#240=VECTOR('',#887,10.);
#241=VECTOR('',#888,10.);
#242=VECTOR('',#889,10.);
#243=VECTOR('',#892,10.);
#244=VECTOR('',#893,10.);
#245=VECTOR('',#894,10.);
#246=VECTOR('',#897,10.);
#247=VECTOR('',#898,10.);
#248=VECTOR('',#899,10.);
#249=VECTOR('',#902,10.);
#250=VECTOR('',#903,10.);
#251=VECTOR('',#904,10.);
#252=VECTOR('',#905,10.);
#253=VECTOR('',#906,10.);
#254=VECTOR('',#907,10.);
#255=VECTOR('',#908,10.);
#256=VECTOR('',#909,10.);
#257=VECTOR('',#910,10.);
#258=VECTOR('',#913,10.);
#259=VECTOR('',#914,10.);
#260=VECTOR('',#917,10.);
#261=VECTOR('',#918,10.);
#262=VECTOR('',#919,10.);
#263=VECTOR('',#920,10.);
#264=VECTOR('',#921,10.);
#265=VECTOR('',#922,10.);
#266=VECTOR('',#923,10.);
#267=VECTOR('',#924,10.);
#268=VECTOR('',#927,10.);
#269=VECTOR('',#930,10.);
#270=VECTOR('',#933,10.);
#271=VECTOR('',#938,10.);
#272=VECTOR('',#939,10.);
#273=VECTOR('',#940,10.);
#274=VECTOR('',#941,10.);
#275=VECTOR('',#944,10.);
#276=VECTOR('',#945,10.);
#277=VECTOR('',#946,10.);
#278=VECTOR('',#949,10.);
#279=VECTOR('',#950,10.);
#280=VECTOR('',#951,10.);
#281=VECTOR('',#954,10.);
#282=VECTOR('',#955,10.);
#283=VECTOR('',#958,10.);
#284=VECTOR('',#959,10.);
#285=VECTOR('',#960,10.);
#286=VECTOR('',#961,10.);
#287=VECTOR('',#964,10.);
#288=VECTOR('',#965,10.);
#289=VECTOR('',#966,10.);
#290=VECTOR('',#969,10.);
#291=VECTOR('',#970,10.);
#292=VECTOR('',#971,10.);
#293=VECTOR('',#974,10.);
#294=VECTOR('',#975,10.);
#295=VECTOR('',#982,10.);
#296=VECTOR('',#985,10.);
#297=VECTOR('',#988,10.);
#298=VECTOR('',#989,10.);
#299=VECTOR('',#990,10.);
#300=VECTOR('',#995,10.);
#301=VECTOR('',#1000,10.);
#302=VECTOR('',#1003,10.);
#303=VECTOR('',#1010,10.);
#304=VECTOR('',#1013,10.);
#305=VECTOR('',#1014,10.);
#306=VECTOR('',#1021,10.);
#307=VECTOR('',#1026,10.);
#308=VECTOR('',#1029,10.);
#309=VECTOR('',#1032,10.);
#310=VECTOR('',#1033,10.);
#311=VECTOR('',#1034,10.);
#312=VECTOR('',#1037,10.);
#313=VECTOR('',#1042,10.);
#314=VECTOR('',#1049,10.);
#315=VECTOR('',#1054,10.);
#316=VECTOR('',#1057,10.);
#317=VECTOR('',#1060,10.);
#318=VECTOR('',#1063,10.);
#319=VERTEX_POINT('',#1070);
#320=VERTEX_POINT('',#1071);
#321=VERTEX_POINT('',#1073);
#322=VERTEX_POINT('',#1075);
#323=VERTEX_POINT('',#1079);
#324=VERTEX_POINT('',#1081);
#325=VERTEX_POINT('',#1085);
#326=VERTEX_POINT('',#1087);
#327=VERTEX_POINT('',#1095);
#328=VERTEX_POINT('',#1096);
#329=VERTEX_POINT('',#1098);
#330=VERTEX_POINT('',#1100);
#331=VERTEX_POINT('',#1104);
#332=VERTEX_POINT('',#1106);
#333=VERTEX_POINT('',#1110);
#334=VERTEX_POINT('',#1112);
#335=VERTEX_POINT('',#1116);
#336=VERTEX_POINT('',#1117);
#337=VERTEX_POINT('',#1119);
#338=VERTEX_POINT('',#1121);
#339=VERTEX_POINT('',#1124);
#340=VERTEX_POINT('',#1126);
#341=VERTEX_POINT('',#1128);
#342=VERTEX_POINT('',#1130);
#343=VERTEX_POINT('',#1134);
#344=VERTEX_POINT('',#1138);
#345=VERTEX_POINT('',#1139);
#346=VERTEX_POINT('',#1141);
#347=VERTEX_POINT('',#1143);
#348=VERTEX_POINT('',#1146);
#349=VERTEX_POINT('',#1148);
#350=VERTEX_POINT('',#1150);
#351=VERTEX_POINT('',#1161);
#352=VERTEX_POINT('',#1162);
#353=VERTEX_POINT('',#1164);
#354=VERTEX_POINT('',#1166);
#355=VERTEX_POINT('',#1170);
#356=VERTEX_POINT('',#1172);
#357=VERTEX_POINT('',#1176);
#358=VERTEX_POINT('',#1178);
#359=VERTEX_POINT('',#1185);
#360=VERTEX_POINT('',#1186);
#361=VERTEX_POINT('',#1188);
#362=VERTEX_POINT('',#1190);
#363=VERTEX_POINT('',#1194);
#364=VERTEX_POINT('',#1196);
#365=VERTEX_POINT('',#1200);
#366=VERTEX_POINT('',#1202);
#367=VERTEX_POINT('',#1210);
#368=VERTEX_POINT('',#1211);
#369=VERTEX_POINT('',#1213);
#370=VERTEX_POINT('',#1215);
#371=VERTEX_POINT('',#1219);
#372=VERTEX_POINT('',#1221);
#373=VERTEX_POINT('',#1225);
#374=VERTEX_POINT('',#1227);
#375=VERTEX_POINT('',#1232);
#376=VERTEX_POINT('',#1234);
#377=VERTEX_POINT('',#1238);
#378=VERTEX_POINT('',#1242);
#379=VERTEX_POINT('',#1250);
#380=VERTEX_POINT('',#1251);
#381=VERTEX_POINT('',#1253);
#382=VERTEX_POINT('',#1255);
#383=VERTEX_POINT('',#1259);
#384=VERTEX_POINT('',#1261);
#385=VERTEX_POINT('',#1265);
#386=VERTEX_POINT('',#1268);
#387=VERTEX_POINT('',#1270);
#388=VERTEX_POINT('',#1274);
#389=VERTEX_POINT('',#1278);
#390=VERTEX_POINT('',#1280);
#391=EDGE_CURVE('',#319,#320,#135,.T.);
#392=EDGE_CURVE('',#319,#321,#136,.T.);
#393=EDGE_CURVE('',#322,#321,#137,.T.);
#394=EDGE_CURVE('',#320,#322,#138,.T.);
#395=EDGE_CURVE('',#320,#323,#139,.T.);
#396=EDGE_CURVE('',#324,#322,#140,.T.);
#397=EDGE_CURVE('',#323,#324,#141,.T.);
#398=EDGE_CURVE('',#323,#325,#142,.T.);
#399=EDGE_CURVE('',#326,#324,#143,.T.);
#400=EDGE_CURVE('',#325,#326,#144,.T.);
#401=EDGE_CURVE('',#325,#319,#145,.T.);
#402=EDGE_CURVE('',#321,#326,#146,.T.);
#403=EDGE_CURVE('',#327,#328,#147,.T.);
#404=EDGE_CURVE('',#329,#327,#148,.T.);
#405=EDGE_CURVE('',#330,#329,#149,.T.);
#406=EDGE_CURVE('',#330,#328,#150,.T.);
#407=EDGE_CURVE('',#328,#331,#151,.T.);
#408=EDGE_CURVE('',#332,#330,#152,.T.);
#409=EDGE_CURVE('',#331,#332,#153,.T.);
#410=EDGE_CURVE('',#333,#327,#154,.T.);
#411=EDGE_CURVE('',#334,#333,#155,.T.);
#412=EDGE_CURVE('',#329,#334,#156,.T.);
#413=EDGE_CURVE('',#335,#336,#157,.T.);
#414=EDGE_CURVE('',#337,#336,#158,.T.);
#415=EDGE_CURVE('',#337,#338,#159,.T.);
#416=EDGE_CURVE('',#335,#338,#160,.T.);
#417=EDGE_CURVE('',#331,#339,#161,.T.);
#418=EDGE_CURVE('',#339,#340,#162,.T.);
#419=EDGE_CURVE('',#340,#341,#163,.T.);
#420=EDGE_CURVE('',#341,#342,#164,.T.);
#421=EDGE_CURVE('',#342,#333,#165,.T.);
#422=EDGE_CURVE('',#343,#332,#166,.T.);
#423=EDGE_CURVE('',#343,#339,#167,.T.);
#424=EDGE_CURVE('',#344,#345,#168,.T.);
#425=EDGE_CURVE('',#344,#346,#169,.T.);
#426=EDGE_CURVE('',#347,#346,#170,.T.);
#427=EDGE_CURVE('',#345,#347,#171,.T.);
#428=EDGE_CURVE('',#334,#348,#172,.T.);
#429=EDGE_CURVE('',#348,#349,#173,.T.);
#430=EDGE_CURVE('',#349,#350,#174,.T.);
#431=EDGE_CURVE('',#350,#343,#175,.T.);
#432=EDGE_CURVE('',#348,#342,#176,.T.);
#433=EDGE_CURVE('',#350,#340,#177,.T.);
#434=EDGE_CURVE('',#349,#341,#178,.T.);
#435=EDGE_CURVE('',#351,#352,#179,.T.);
#436=EDGE_CURVE('',#353,#351,#180,.T.);
#437=EDGE_CURVE('',#354,#353,#181,.T.);
#438=EDGE_CURVE('',#354,#352,#182,.T.);
#439=EDGE_CURVE('',#352,#355,#183,.T.);
#440=EDGE_CURVE('',#356,#354,#184,.T.);
#441=EDGE_CURVE('',#356,#355,#185,.T.);
#442=EDGE_CURVE('',#355,#357,#186,.T.);
#443=EDGE_CURVE('',#358,#356,#187,.T.);
#444=EDGE_CURVE('',#358,#357,#188,.T.);
#445=EDGE_CURVE('',#357,#351,#189,.T.);
#446=EDGE_CURVE('',#353,#358,#190,.T.);
#447=EDGE_CURVE('',#359,#360,#191,.T.);
#448=EDGE_CURVE('',#359,#361,#192,.T.);
#449=EDGE_CURVE('',#361,#362,#193,.T.);
#450=EDGE_CURVE('',#360,#362,#194,.T.);
#451=EDGE_CURVE('',#363,#359,#195,.T.);
#452=EDGE_CURVE('',#363,#364,#196,.T.);
#453=EDGE_CURVE('',#364,#361,#197,.T.);
#454=EDGE_CURVE('',#365,#363,#198,.T.);
#455=EDGE_CURVE('',#365,#366,#199,.T.);
#456=EDGE_CURVE('',#366,#364,#200,.T.);
#457=EDGE_CURVE('',#360,#365,#201,.T.);
#458=EDGE_CURVE('',#362,#366,#202,.T.);
#459=EDGE_CURVE('',#367,#368,#15,.T.);
#460=EDGE_CURVE('',#369,#367,#203,.T.);
#461=EDGE_CURVE('',#370,#369,#16,.T.);
#462=EDGE_CURVE('',#368,#370,#204,.T.);
#463=EDGE_CURVE('',#370,#371,#205,.F.);
#464=EDGE_CURVE('',#371,#372,#206,.T.);
#465=EDGE_CURVE('',#368,#372,#207,.T.);
#466=EDGE_CURVE('',#373,#335,#17,.T.);
#467=EDGE_CURVE('',#374,#373,#208,.T.);
#468=EDGE_CURVE('',#336,#374,#18,.T.);
#469=EDGE_CURVE('',#373,#369,#209,.F.);
#470=EDGE_CURVE('',#338,#375,#19,.F.);
#471=EDGE_CURVE('',#375,#376,#210,.F.);
#472=EDGE_CURVE('',#376,#371,#20,.F.);
#473=EDGE_CURVE('',#372,#377,#21,.T.);
#474=EDGE_CURVE('',#377,#376,#211,.T.);
#475=EDGE_CURVE('',#375,#378,#212,.T.);
#476=EDGE_CURVE('',#377,#378,#213,.T.);
#477=EDGE_CURVE('',#378,#337,#22,.T.);
#478=EDGE_CURVE('',#374,#367,#214,.T.);
#479=EDGE_CURVE('',#379,#380,#23,.T.);
#480=EDGE_CURVE('',#380,#381,#215,.T.);
#481=EDGE_CURVE('',#381,#382,#24,.T.);
#482=EDGE_CURVE('',#382,#379,#216,.T.);
#483=EDGE_CURVE('',#380,#383,#217,.T.);
#484=EDGE_CURVE('',#384,#383,#218,.T.);
#485=EDGE_CURVE('',#381,#384,#219,.T.);
#486=EDGE_CURVE('',#379,#385,#220,.T.);
#487=EDGE_CURVE('',#345,#385,#25,.T.);
#488=EDGE_CURVE('',#386,#347,#26,.T.);
#489=EDGE_CURVE('',#387,#386,#221,.T.);
#490=EDGE_CURVE('',#383,#387,#27,.T.);
#491=EDGE_CURVE('',#388,#344,#28,.T.);
#492=EDGE_CURVE('',#385,#388,#222,.T.);
#493=EDGE_CURVE('',#389,#384,#29,.T.);
#494=EDGE_CURVE('',#390,#389,#223,.T.);
#495=EDGE_CURVE('',#346,#390,#30,.T.);
#496=EDGE_CURVE('',#388,#382,#224,.T.);
#497=EDGE_CURVE('',#387,#389,#225,.T.);
#498=EDGE_CURVE('',#390,#386,#226,.T.);
#499=ORIENTED_EDGE('',*,*,#391,.F.);
#500=ORIENTED_EDGE('',*,*,#392,.T.);
#501=ORIENTED_EDGE('',*,*,#393,.F.);
#502=ORIENTED_EDGE('',*,*,#394,.F.);
#503=ORIENTED_EDGE('',*,*,#395,.F.);
#504=ORIENTED_EDGE('',*,*,#394,.T.);
#505=ORIENTED_EDGE('',*,*,#396,.F.);
#506=ORIENTED_EDGE('',*,*,#397,.F.);
#507=ORIENTED_EDGE('',*,*,#398,.F.);
#508=ORIENTED_EDGE('',*,*,#397,.T.);
#509=ORIENTED_EDGE('',*,*,#399,.F.);
#510=ORIENTED_EDGE('',*,*,#400,.F.);
#511=ORIENTED_EDGE('',*,*,#401,.F.);
#512=ORIENTED_EDGE('',*,*,#400,.T.);
#513=ORIENTED_EDGE('',*,*,#402,.F.);
#514=ORIENTED_EDGE('',*,*,#392,.F.);
#515=ORIENTED_EDGE('',*,*,#402,.T.);
#516=ORIENTED_EDGE('',*,*,#399,.T.);
#517=ORIENTED_EDGE('',*,*,#396,.T.);
#518=ORIENTED_EDGE('',*,*,#393,.T.);
#519=ORIENTED_EDGE('',*,*,#403,.F.);
#520=ORIENTED_EDGE('',*,*,#404,.F.);
#521=ORIENTED_EDGE('',*,*,#405,.F.);
#522=ORIENTED_EDGE('',*,*,#406,.T.);
#523=ORIENTED_EDGE('',*,*,#407,.F.);
#524=ORIENTED_EDGE('',*,*,#406,.F.);
#525=ORIENTED_EDGE('',*,*,#408,.F.);
#526=ORIENTED_EDGE('',*,*,#409,.F.);
#527=ORIENTED_EDGE('',*,*,#410,.F.);
#528=ORIENTED_EDGE('',*,*,#411,.F.);
#529=ORIENTED_EDGE('',*,*,#412,.F.);
#530=ORIENTED_EDGE('',*,*,#404,.T.);
#531=ORIENTED_EDGE('',*,*,#413,.T.);
#532=ORIENTED_EDGE('',*,*,#414,.F.);
#533=ORIENTED_EDGE('',*,*,#415,.T.);
#534=ORIENTED_EDGE('',*,*,#416,.F.);
#535=ORIENTED_EDGE('',*,*,#391,.T.);
#536=ORIENTED_EDGE('',*,*,#395,.T.);
#537=ORIENTED_EDGE('',*,*,#398,.T.);
#538=ORIENTED_EDGE('',*,*,#401,.T.);
#539=ORIENTED_EDGE('',*,*,#410,.T.);
#540=ORIENTED_EDGE('',*,*,#403,.T.);
#541=ORIENTED_EDGE('',*,*,#407,.T.);
#542=ORIENTED_EDGE('',*,*,#417,.T.);
#543=ORIENTED_EDGE('',*,*,#418,.T.);
#544=ORIENTED_EDGE('',*,*,#419,.T.);
#545=ORIENTED_EDGE('',*,*,#420,.T.);
#546=ORIENTED_EDGE('',*,*,#421,.T.);
#547=ORIENTED_EDGE('',*,*,#409,.T.);
#548=ORIENTED_EDGE('',*,*,#422,.F.);
#549=ORIENTED_EDGE('',*,*,#423,.T.);
#550=ORIENTED_EDGE('',*,*,#417,.F.);
#551=ORIENTED_EDGE('',*,*,#424,.F.);
#552=ORIENTED_EDGE('',*,*,#425,.T.);
#553=ORIENTED_EDGE('',*,*,#426,.F.);
#554=ORIENTED_EDGE('',*,*,#427,.F.);
#555=ORIENTED_EDGE('',*,*,#408,.T.);
#556=ORIENTED_EDGE('',*,*,#405,.T.);
#557=ORIENTED_EDGE('',*,*,#412,.T.);
#558=ORIENTED_EDGE('',*,*,#428,.T.);
#559=ORIENTED_EDGE('',*,*,#429,.T.);
#560=ORIENTED_EDGE('',*,*,#430,.T.);
#561=ORIENTED_EDGE('',*,*,#431,.T.);
#562=ORIENTED_EDGE('',*,*,#422,.T.);
#563=ORIENTED_EDGE('',*,*,#411,.T.);
#564=ORIENTED_EDGE('',*,*,#421,.F.);
#565=ORIENTED_EDGE('',*,*,#432,.F.);
#566=ORIENTED_EDGE('',*,*,#428,.F.);
#567=ORIENTED_EDGE('',*,*,#418,.F.);
#568=ORIENTED_EDGE('',*,*,#423,.F.);
#569=ORIENTED_EDGE('',*,*,#431,.F.);
#570=ORIENTED_EDGE('',*,*,#433,.T.);
#571=ORIENTED_EDGE('',*,*,#419,.F.);
#572=ORIENTED_EDGE('',*,*,#433,.F.);
#573=ORIENTED_EDGE('',*,*,#430,.F.);
#574=ORIENTED_EDGE('',*,*,#434,.T.);
#575=ORIENTED_EDGE('',*,*,#420,.F.);
#576=ORIENTED_EDGE('',*,*,#434,.F.);
#577=ORIENTED_EDGE('',*,*,#429,.F.);
#578=ORIENTED_EDGE('',*,*,#432,.T.);
#579=ORIENTED_EDGE('',*,*,#435,.F.);
#580=ORIENTED_EDGE('',*,*,#436,.F.);
#581=ORIENTED_EDGE('',*,*,#437,.F.);
#582=ORIENTED_EDGE('',*,*,#438,.T.);
#583=ORIENTED_EDGE('',*,*,#439,.F.);
#584=ORIENTED_EDGE('',*,*,#438,.F.);
#585=ORIENTED_EDGE('',*,*,#440,.F.);
#586=ORIENTED_EDGE('',*,*,#441,.T.);
#587=ORIENTED_EDGE('',*,*,#442,.F.);
#588=ORIENTED_EDGE('',*,*,#441,.F.);
#589=ORIENTED_EDGE('',*,*,#443,.F.);
#590=ORIENTED_EDGE('',*,*,#444,.T.);
#591=ORIENTED_EDGE('',*,*,#445,.F.);
#592=ORIENTED_EDGE('',*,*,#444,.F.);
#593=ORIENTED_EDGE('',*,*,#446,.F.);
#594=ORIENTED_EDGE('',*,*,#436,.T.);
#595=ORIENTED_EDGE('',*,*,#447,.F.);
#596=ORIENTED_EDGE('',*,*,#448,.T.);
#597=ORIENTED_EDGE('',*,*,#449,.T.);
#598=ORIENTED_EDGE('',*,*,#450,.F.);
#599=ORIENTED_EDGE('',*,*,#451,.F.);
#600=ORIENTED_EDGE('',*,*,#452,.T.);
#601=ORIENTED_EDGE('',*,*,#453,.T.);
#602=ORIENTED_EDGE('',*,*,#448,.F.);
#603=ORIENTED_EDGE('',*,*,#454,.F.);
#604=ORIENTED_EDGE('',*,*,#455,.T.);
#605=ORIENTED_EDGE('',*,*,#456,.T.);
#606=ORIENTED_EDGE('',*,*,#452,.F.);
#607=ORIENTED_EDGE('',*,*,#457,.F.);
#608=ORIENTED_EDGE('',*,*,#450,.T.);
#609=ORIENTED_EDGE('',*,*,#458,.T.);
#610=ORIENTED_EDGE('',*,*,#455,.F.);
#611=ORIENTED_EDGE('',*,*,#458,.F.);
#612=ORIENTED_EDGE('',*,*,#449,.F.);
#613=ORIENTED_EDGE('',*,*,#453,.F.);
#614=ORIENTED_EDGE('',*,*,#456,.F.);
#615=ORIENTED_EDGE('',*,*,#459,.F.);
#616=ORIENTED_EDGE('',*,*,#460,.F.);
#617=ORIENTED_EDGE('',*,*,#461,.F.);
#618=ORIENTED_EDGE('',*,*,#462,.F.);
#619=ORIENTED_EDGE('',*,*,#462,.T.);
#620=ORIENTED_EDGE('',*,*,#463,.T.);
#621=ORIENTED_EDGE('',*,*,#464,.T.);
#622=ORIENTED_EDGE('',*,*,#465,.F.);
#623=ORIENTED_EDGE('',*,*,#466,.F.);
#624=ORIENTED_EDGE('',*,*,#467,.F.);
#625=ORIENTED_EDGE('',*,*,#468,.F.);
#626=ORIENTED_EDGE('',*,*,#413,.F.);
#627=ORIENTED_EDGE('',*,*,#461,.T.);
#628=ORIENTED_EDGE('',*,*,#469,.F.);
#629=ORIENTED_EDGE('',*,*,#466,.T.);
#630=ORIENTED_EDGE('',*,*,#416,.T.);
#631=ORIENTED_EDGE('',*,*,#470,.T.);
#632=ORIENTED_EDGE('',*,*,#471,.T.);
#633=ORIENTED_EDGE('',*,*,#472,.T.);
#634=ORIENTED_EDGE('',*,*,#463,.F.);
#635=ORIENTED_EDGE('',*,*,#442,.T.);
#636=ORIENTED_EDGE('',*,*,#445,.T.);
#637=ORIENTED_EDGE('',*,*,#435,.T.);
#638=ORIENTED_EDGE('',*,*,#439,.T.);
#639=ORIENTED_EDGE('',*,*,#473,.F.);
#640=ORIENTED_EDGE('',*,*,#464,.F.);
#641=ORIENTED_EDGE('',*,*,#472,.F.);
#642=ORIENTED_EDGE('',*,*,#474,.F.);
#643=ORIENTED_EDGE('',*,*,#474,.T.);
#644=ORIENTED_EDGE('',*,*,#471,.F.);
#645=ORIENTED_EDGE('',*,*,#475,.T.);
#646=ORIENTED_EDGE('',*,*,#476,.F.);
#647=ORIENTED_EDGE('',*,*,#447,.T.);
#648=ORIENTED_EDGE('',*,*,#457,.T.);
#649=ORIENTED_EDGE('',*,*,#454,.T.);
#650=ORIENTED_EDGE('',*,*,#451,.T.);
#651=ORIENTED_EDGE('',*,*,#470,.F.);
#652=ORIENTED_EDGE('',*,*,#415,.F.);
#653=ORIENTED_EDGE('',*,*,#477,.F.);
#654=ORIENTED_EDGE('',*,*,#475,.F.);
#655=ORIENTED_EDGE('',*,*,#460,.T.);
#656=ORIENTED_EDGE('',*,*,#478,.F.);
#657=ORIENTED_EDGE('',*,*,#467,.T.);
#658=ORIENTED_EDGE('',*,*,#469,.T.);
#659=ORIENTED_EDGE('',*,*,#479,.T.);
#660=ORIENTED_EDGE('',*,*,#480,.T.);
#661=ORIENTED_EDGE('',*,*,#481,.T.);
#662=ORIENTED_EDGE('',*,*,#482,.T.);
#663=ORIENTED_EDGE('',*,*,#480,.F.);
#664=ORIENTED_EDGE('',*,*,#483,.T.);
#665=ORIENTED_EDGE('',*,*,#484,.F.);
#666=ORIENTED_EDGE('',*,*,#485,.F.);
#667=ORIENTED_EDGE('',*,*,#479,.F.);
#668=ORIENTED_EDGE('',*,*,#486,.T.);
#669=ORIENTED_EDGE('',*,*,#487,.F.);
#670=ORIENTED_EDGE('',*,*,#427,.T.);
#671=ORIENTED_EDGE('',*,*,#488,.F.);
#672=ORIENTED_EDGE('',*,*,#489,.F.);
#673=ORIENTED_EDGE('',*,*,#490,.F.);
#674=ORIENTED_EDGE('',*,*,#483,.F.);
#675=ORIENTED_EDGE('',*,*,#468,.T.);
#676=ORIENTED_EDGE('',*,*,#478,.T.);
#677=ORIENTED_EDGE('',*,*,#459,.T.);
#678=ORIENTED_EDGE('',*,*,#465,.T.);
#679=ORIENTED_EDGE('',*,*,#473,.T.);
#680=ORIENTED_EDGE('',*,*,#476,.T.);
#681=ORIENTED_EDGE('',*,*,#477,.T.);
#682=ORIENTED_EDGE('',*,*,#414,.T.);
#683=ORIENTED_EDGE('',*,*,#491,.T.);
#684=ORIENTED_EDGE('',*,*,#424,.T.);
#685=ORIENTED_EDGE('',*,*,#487,.T.);
#686=ORIENTED_EDGE('',*,*,#492,.T.);
#687=ORIENTED_EDGE('',*,*,#481,.F.);
#688=ORIENTED_EDGE('',*,*,#485,.T.);
#689=ORIENTED_EDGE('',*,*,#493,.F.);
#690=ORIENTED_EDGE('',*,*,#494,.F.);
#691=ORIENTED_EDGE('',*,*,#495,.F.);
#692=ORIENTED_EDGE('',*,*,#425,.F.);
#693=ORIENTED_EDGE('',*,*,#491,.F.);
#694=ORIENTED_EDGE('',*,*,#496,.T.);
#695=ORIENTED_EDGE('',*,*,#443,.T.);
#696=ORIENTED_EDGE('',*,*,#440,.T.);
#697=ORIENTED_EDGE('',*,*,#437,.T.);
#698=ORIENTED_EDGE('',*,*,#446,.T.);
#699=ORIENTED_EDGE('',*,*,#490,.T.);
#700=ORIENTED_EDGE('',*,*,#497,.T.);
#701=ORIENTED_EDGE('',*,*,#493,.T.);
#702=ORIENTED_EDGE('',*,*,#484,.T.);
#703=ORIENTED_EDGE('',*,*,#497,.F.);
#704=ORIENTED_EDGE('',*,*,#489,.T.);
#705=ORIENTED_EDGE('',*,*,#498,.F.);
#706=ORIENTED_EDGE('',*,*,#494,.T.);
#707=ORIENTED_EDGE('',*,*,#495,.T.);
#708=ORIENTED_EDGE('',*,*,#498,.T.);
#709=ORIENTED_EDGE('',*,*,#488,.T.);
#710=ORIENTED_EDGE('',*,*,#426,.T.);
#711=ORIENTED_EDGE('',*,*,#482,.F.);
#712=ORIENTED_EDGE('',*,*,#496,.F.);
#713=ORIENTED_EDGE('',*,*,#492,.F.);
#714=ORIENTED_EDGE('',*,*,#486,.F.);
#715=PLANE('',#803);
#716=PLANE('',#804);
#717=PLANE('',#805);
#718=PLANE('',#806);
#719=PLANE('',#807);
#720=PLANE('',#808);
#721=PLANE('',#809);
#722=PLANE('',#810);
#723=PLANE('',#811);
#724=PLANE('',#812);
#725=PLANE('',#813);
#726=PLANE('',#814);
#727=PLANE('',#815);
#728=PLANE('',#816);
#729=PLANE('',#817);
#730=PLANE('',#818);
#731=PLANE('',#819);
#732=PLANE('',#820);
#733=PLANE('',#821);
#734=PLANE('',#822);
#735=PLANE('',#823);
#736=PLANE('',#824);
#737=PLANE('',#825);
#738=PLANE('',#826);
#739=PLANE('',#830);
#740=PLANE('',#834);
#741=PLANE('',#839);
#742=PLANE('',#842);
#743=PLANE('',#846);
#744=PLANE('',#847);
#745=PLANE('',#853);
#746=PLANE('',#857);
#747=PLANE('',#859);
#748=ADVANCED_FACE('',(#46),#715,.T.);
#749=ADVANCED_FACE('',(#47),#716,.T.);
#750=ADVANCED_FACE('',(#48),#717,.T.);
#751=ADVANCED_FACE('',(#49),#718,.T.);
#752=ADVANCED_FACE('',(#50),#719,.T.);
#753=ADVANCED_FACE('',(#51),#720,.F.);
#754=ADVANCED_FACE('',(#52),#721,.F.);
#755=ADVANCED_FACE('',(#53),#722,.F.);
#756=ADVANCED_FACE('',(#54,#39,#40),#723,.F.);
#757=ADVANCED_FACE('',(#55),#724,.F.);
#758=ADVANCED_FACE('',(#56,#41),#725,.T.);
#759=ADVANCED_FACE('',(#57),#726,.F.);
#760=ADVANCED_FACE('',(#58),#727,.F.);
#761=ADVANCED_FACE('',(#59),#728,.F.);
#762=ADVANCED_FACE('',(#60),#729,.F.);
#763=ADVANCED_FACE('',(#61),#730,.F.);
#764=ADVANCED_FACE('',(#62),#731,.F.);
#765=ADVANCED_FACE('',(#63),#732,.F.);
#766=ADVANCED_FACE('',(#64),#733,.F.);
#767=ADVANCED_FACE('',(#65),#734,.F.);
#768=ADVANCED_FACE('',(#66),#735,.F.);
#769=ADVANCED_FACE('',(#67),#736,.F.);
#770=ADVANCED_FACE('',(#68),#737,.F.);
#771=ADVANCED_FACE('',(#69),#738,.F.);
#772=ADVANCED_FACE('',(#70),#31,.F.);
#773=ADVANCED_FACE('',(#71),#739,.F.);
#774=ADVANCED_FACE('',(#72),#32,.F.);
#775=ADVANCED_FACE('',(#73,#42),#740,.F.);
#776=ADVANCED_FACE('',(#74),#33,.F.);
#777=ADVANCED_FACE('',(#75,#43),#741,.F.);
#778=ADVANCED_FACE('',(#76),#34,.F.);
#779=ADVANCED_FACE('',(#77),#742,.T.);
#780=ADVANCED_FACE('',(#78),#35,.T.);
#781=ADVANCED_FACE('',(#79),#743,.T.);
#782=ADVANCED_FACE('',(#80,#44),#744,.T.);
#783=ADVANCED_FACE('',(#81),#36,.T.);
#784=ADVANCED_FACE('',(#82,#45),#745,.T.);
#785=ADVANCED_FACE('',(#83),#37,.T.);
#786=ADVANCED_FACE('',(#84),#746,.T.);
#787=ADVANCED_FACE('',(#85),#38,.T.);
#788=ADVANCED_FACE('',(#86),#747,.F.);
#789=CLOSED_SHELL('',(#748,#749,#750,#751,#752,#753,#754,#755,#756,#757,
#758,#759,#760,#761,#762,#763,#764,#765,#766,#767,#768,#769,#770,#771,#772,
#773,#774,#775,#776,#777,#778,#779,#780,#781,#782,#783,#784,#785,#786,#787,
#788));
#790=DERIVED_UNIT_ELEMENT(#792,1.);
#791=DERIVED_UNIT_ELEMENT(#1295,-3.);
#792=(
MASS_UNIT()
NAMED_UNIT(*)
SI_UNIT(.KILO.,.GRAM.)
);
#793=DERIVED_UNIT((#790,#791));
#794=MEASURE_REPRESENTATION_ITEM('density measure',
POSITIVE_RATIO_MEASURE(7850.),#793);
#795=PROPERTY_DEFINITION_REPRESENTATION(#800,#797);
#796=PROPERTY_DEFINITION_REPRESENTATION(#801,#798);
#797=REPRESENTATION('material name',(#799),#1292);
#798=REPRESENTATION('density',(#794),#1292);
#799=DESCRIPTIVE_REPRESENTATION_ITEM('Steel','Steel');
#800=PROPERTY_DEFINITION('material property','material name',#1302);
#801=PROPERTY_DEFINITION('material property','density of part',#1302);
#802=AXIS2_PLACEMENT_3D('',#1068,#860,#861);
#803=AXIS2_PLACEMENT_3D('',#1069,#862,#863);
#804=AXIS2_PLACEMENT_3D('',#1078,#868,#869);
#805=AXIS2_PLACEMENT_3D('',#1084,#873,#874);
#806=AXIS2_PLACEMENT_3D('',#1090,#878,#879);
#807=AXIS2_PLACEMENT_3D('',#1093,#882,#883);
#808=AXIS2_PLACEMENT_3D('',#1094,#884,#885);
#809=AXIS2_PLACEMENT_3D('',#1103,#890,#891);
#810=AXIS2_PLACEMENT_3D('',#1109,#895,#896);
#811=AXIS2_PLACEMENT_3D('',#1115,#900,#901);
#812=AXIS2_PLACEMENT_3D('',#1133,#911,#912);
#813=AXIS2_PLACEMENT_3D('',#1137,#915,#916);
#814=AXIS2_PLACEMENT_3D('',#1153,#925,#926);
#815=AXIS2_PLACEMENT_3D('',#1155,#928,#929);
#816=AXIS2_PLACEMENT_3D('',#1157,#931,#932);
#817=AXIS2_PLACEMENT_3D('',#1159,#934,#935);
#818=AXIS2_PLACEMENT_3D('',#1160,#936,#937);
#819=AXIS2_PLACEMENT_3D('',#1169,#942,#943);
#820=AXIS2_PLACEMENT_3D('',#1175,#947,#948);
#821=AXIS2_PLACEMENT_3D('',#1181,#952,#953);
#822=AXIS2_PLACEMENT_3D('',#1184,#956,#957);
#823=AXIS2_PLACEMENT_3D('',#1193,#962,#963);
#824=AXIS2_PLACEMENT_3D('',#1199,#967,#968);
#825=AXIS2_PLACEMENT_3D('',#1205,#972,#973);
#826=AXIS2_PLACEMENT_3D('',#1208,#976,#977);
#827=AXIS2_PLACEMENT_3D('',#1209,#978,#979);
#828=AXIS2_PLACEMENT_3D('',#1212,#980,#981);
#829=AXIS2_PLACEMENT_3D('',#1216,#983,#984);
#830=AXIS2_PLACEMENT_3D('',#1218,#986,#987);
#831=AXIS2_PLACEMENT_3D('',#1224,#991,#992);
#832=AXIS2_PLACEMENT_3D('',#1226,#993,#994);
#833=AXIS2_PLACEMENT_3D('',#1229,#996,#997);
#834=AXIS2_PLACEMENT_3D('',#1230,#998,#999);
#835=AXIS2_PLACEMENT_3D('',#1233,#1001,#1002);
#836=AXIS2_PLACEMENT_3D('',#1236,#1004,#1005);
#837=AXIS2_PLACEMENT_3D('',#1237,#1006,#1007);
#838=AXIS2_PLACEMENT_3D('',#1239,#1008,#1009);
#839=AXIS2_PLACEMENT_3D('',#1241,#1011,#1012);
#840=AXIS2_PLACEMENT_3D('',#1245,#1015,#1016);
#841=AXIS2_PLACEMENT_3D('',#1246,#1017,#1018);
#842=AXIS2_PLACEMENT_3D('',#1247,#1019,#1020);
#843=AXIS2_PLACEMENT_3D('',#1249,#1022,#1023);
#844=AXIS2_PLACEMENT_3D('',#1252,#1024,#1025);
#845=AXIS2_PLACEMENT_3D('',#1256,#1027,#1028);
#846=AXIS2_PLACEMENT_3D('',#1258,#1030,#1031);
#847=AXIS2_PLACEMENT_3D('',#1264,#1035,#1036);
#848=AXIS2_PLACEMENT_3D('',#1267,#1038,#1039);
#849=AXIS2_PLACEMENT_3D('',#1269,#1040,#1041);
#850=AXIS2_PLACEMENT_3D('',#1272,#1043,#1044);
#851=AXIS2_PLACEMENT_3D('',#1273,#1045,#1046);
#852=AXIS2_PLACEMENT_3D('',#1275,#1047,#1048);
#853=AXIS2_PLACEMENT_3D('',#1277,#1050,#1051);
#854=AXIS2_PLACEMENT_3D('',#1279,#1052,#1053);
#855=AXIS2_PLACEMENT_3D('',#1282,#1055,#1056);
#856=AXIS2_PLACEMENT_3D('',#1284,#1058,#1059);
#857=AXIS2_PLACEMENT_3D('',#1286,#1061,#1062);
#858=AXIS2_PLACEMENT_3D('',#1288,#1064,#1065);
#859=AXIS2_PLACEMENT_3D('',#1289,#1066,#1067);
#860=DIRECTION('axis',(0.,0.,1.));
#861=DIRECTION('refdir',(1.,0.,0.));
#862=DIRECTION('center_axis',(0.,0.,1.));
#863=DIRECTION('ref_axis',(0.,1.,0.));
#864=DIRECTION('',(0.,-1.,0.));
#865=DIRECTION('',(-1.,0.,0.));
#866=DIRECTION('',(0.,1.,0.));
#867=DIRECTION('',(-1.,0.,0.));
#868=DIRECTION('center_axis',(0.,-1.,0.));
#869=DIRECTION('ref_axis',(0.,0.,1.));
#870=DIRECTION('',(0.,0.,-1.));
#871=DIRECTION('',(0.,0.,1.));
#872=DIRECTION('',(-1.,0.,0.));
#873=DIRECTION('center_axis',(0.,0.,-1.));
#874=DIRECTION('ref_axis',(0.,-1.,0.));
#875=DIRECTION('',(0.,1.,0.));
#876=DIRECTION('',(0.,-1.,0.));
#877=DIRECTION('',(-1.,0.,0.));
#878=DIRECTION('center_axis',(0.,1.,0.));
#879=DIRECTION('ref_axis',(0.,0.,-1.));
#880=DIRECTION('',(0.,0.,1.));
#881=DIRECTION('',(0.,0.,-1.));
#882=DIRECTION('center_axis',(-1.,0.,0.));
#883=DIRECTION('ref_axis',(0.,0.,1.));
#884=DIRECTION('center_axis',(0.,0.,1.));
#885=DIRECTION('ref_axis',(0.,1.,0.));
#886=DIRECTION('',(0.,-1.,0.));
#887=DIRECTION('',(-1.,0.,0.));
#888=DIRECTION('',(0.,1.,0.));
#889=DIRECTION('',(-1.,0.,0.));
#890=DIRECTION('center_axis',(0.,-1.,0.));
#891=DIRECTION('ref_axis',(0.,0.,1.));
#892=DIRECTION('',(0.,0.,-1.));
#893=DIRECTION('',(0.,0.,1.));
#894=DIRECTION('',(1.,0.,0.));
#895=DIRECTION('center_axis',(0.,1.,0.));
#896=DIRECTION('ref_axis',(0.,0.,-1.));
#897=DIRECTION('',(0.,0.,1.));
#898=DIRECTION('',(-1.,0.,0.));
#899=DIRECTION('',(0.,0.,-1.));
#900=DIRECTION('center_axis',(1.,0.,0.));
#901=DIRECTION('ref_axis',(0.,1.,0.));
#902=DIRECTION('',(0.,-1.,0.));
#903=DIRECTION('',(0.,0.,-1.));
#904=DIRECTION('',(0.,1.,0.));
#905=DIRECTION('',(0.,0.,1.));
#906=DIRECTION('',(0.,-1.,0.));
#907=DIRECTION('',(0.,0.,-1.));
#908=DIRECTION('',(0.,1.,0.));
#909=DIRECTION('',(0.,0.,1.));
#910=DIRECTION('',(0.,-1.,0.));
#911=DIRECTION('center_axis',(0.,0.,1.));
#912=DIRECTION('ref_axis',(0.,1.,0.));
#913=DIRECTION('',(0.,1.,0.));
#914=DIRECTION('',(-1.,0.,0.));
#915=DIRECTION('center_axis',(1.,0.,0.));
#916=DIRECTION('ref_axis',(0.,1.,0.));
#917=DIRECTION('',(0.,-1.,0.));
#918=DIRECTION('',(0.,0.,1.));
#919=DIRECTION('',(0.,1.,0.));
#920=DIRECTION('',(0.,0.,1.));
#921=DIRECTION('',(0.,1.,0.));
#922=DIRECTION('',(0.,0.,-1.));
#923=DIRECTION('',(0.,-1.,0.));
#924=DIRECTION('',(0.,0.,1.));
#925=DIRECTION('center_axis',(0.,0.,1.));
#926=DIRECTION('ref_axis',(0.,1.,0.));
#927=DIRECTION('',(-1.,0.,0.));
#928=DIRECTION('center_axis',(0.,-1.,0.));
#929=DIRECTION('ref_axis',(0.,0.,1.));
#930=DIRECTION('',(-1.,0.,0.));
#931=DIRECTION('center_axis',(0.,0.,-1.));
#932=DIRECTION('ref_axis',(0.,-1.,0.));
#933=DIRECTION('',(-1.,0.,0.));
#934=DIRECTION('center_axis',(0.,1.,0.));
#935=DIRECTION('ref_axis',(0.,0.,-1.));
#936=DIRECTION('center_axis',(1.,0.,0.));
#937=DIRECTION('ref_axis',(0.,0.,1.));
#938=DIRECTION('',(0.,0.,-1.));
#939=DIRECTION('',(0.,-1.,0.));
#940=DIRECTION('',(0.,0.,1.));
#941=DIRECTION('',(0.,-1.,0.));
#942=DIRECTION('center_axis',(0.,0.,-1.));
#943=DIRECTION('ref_axis',(1.,0.,0.));
#944=DIRECTION('',(-1.,0.,0.));
#945=DIRECTION('',(1.,0.,0.));
#946=DIRECTION('',(0.,-1.,0.));
#947=DIRECTION('center_axis',(-1.,0.,0.));
#948=DIRECTION('ref_axis',(0.,0.,-1.));
#949=DIRECTION('',(0.,0.,1.));
#950=DIRECTION('',(0.,0.,-1.));
#951=DIRECTION('',(0.,-1.,0.));
#952=DIRECTION('center_axis',(0.,0.,1.));
#953=DIRECTION('ref_axis',(-1.,0.,0.));
#954=DIRECTION('',(1.,0.,0.));
#955=DIRECTION('',(-1.,0.,0.));
#956=DIRECTION('center_axis',(1.,0.,0.));
#957=DIRECTION('ref_axis',(0.,1.,0.));
#958=DIRECTION('',(0.,1.,0.));
#959=DIRECTION('',(0.,0.,1.));
#960=DIRECTION('',(0.,1.,0.));
#961=DIRECTION('',(0.,0.,1.));
#962=DIRECTION('center_axis',(0.,-1.,0.));
#963=DIRECTION('ref_axis',(1.,0.,0.));
#964=DIRECTION('',(1.,0.,0.));
#965=DIRECTION('',(0.,0.,1.));
#966=DIRECTION('',(1.,0.,0.));
#967=DIRECTION('center_axis',(-1.,0.,0.));
#968=DIRECTION('ref_axis',(0.,-1.,0.));
#969=DIRECTION('',(0.,-1.,0.));
#970=DIRECTION('',(0.,0.,1.));
#971=DIRECTION('',(0.,-1.,0.));
#972=DIRECTION('center_axis',(0.,1.,0.));
#973=DIRECTION('ref_axis',(-1.,0.,0.));
#974=DIRECTION('',(-1.,0.,0.));
#975=DIRECTION('',(-1.,0.,0.));
#976=DIRECTION('center_axis',(0.,0.,1.));
#977=DIRECTION('ref_axis',(1.,0.,0.));
#978=DIRECTION('center_axis',(0.,-1.,0.));
#979=DIRECTION('ref_axis',(-0.707106781186548,0.,-0.707106781186548));
#980=DIRECTION('center_axis',(0.,1.,0.));
#981=DIRECTION('ref_axis',(-0.707106781186548,0.,-0.707106781186548));
#982=DIRECTION('',(0.,-1.,0.));
#983=DIRECTION('center_axis',(0.,-1.,0.));
#984=DIRECTION('ref_axis',(-0.707106781186548,0.,-0.707106781186548));
#985=DIRECTION('',(0.,1.,0.));
#986=DIRECTION('center_axis',(-1.,0.,0.));
#987=DIRECTION('ref_axis',(0.,-1.,0.));
#988=DIRECTION('',(0.,0.,-1.));
#989=DIRECTION('',(0.,-1.,0.));
#990=DIRECTION('',(0.,0.,1.));
#991=DIRECTION('center_axis',(0.,1.,0.));
#992=DIRECTION('ref_axis',(0.707106781186548,0.,-0.707106781186548));
#993=DIRECTION('center_axis',(0.,-1.,0.));
#994=DIRECTION('ref_axis',(0.707106781186548,0.,-0.707106781186548));
#995=DIRECTION('',(0.,1.,0.));
#996=DIRECTION('center_axis',(0.,1.,0.));
#997=DIRECTION('ref_axis',(0.707106781186548,0.,-0.707106781186548));
#998=DIRECTION('center_axis',(0.,1.,0.));
#999=DIRECTION('ref_axis',(-1.,0.,0.));
#1000=DIRECTION('',(1.,0.,0.));
#1001=DIRECTION('center_axis',(0.,1.,0.));
#1002=DIRECTION('ref_axis',(0.707106781186548,0.,0.707106781186548));
#1003=DIRECTION('',(1.,0.,0.));
#1004=DIRECTION('center_axis',(0.,1.,0.));
#1005=DIRECTION('ref_axis',(-0.707106781186548,0.,0.707106781186548));
#1006=DIRECTION('center_axis',(0.,-1.,0.));
#1007=DIRECTION('ref_axis',(-0.707106781186548,0.,0.707106781186548));
#1008=DIRECTION('center_axis',(0.,1.,0.));
#1009=DIRECTION('ref_axis',(-0.707106781186548,0.,0.707106781186548));
#1010=DIRECTION('',(0.,1.,0.));
#1011=DIRECTION('center_axis',(0.,0.,1.));
#1012=DIRECTION('ref_axis',(1.,0.,0.));
#1013=DIRECTION('',(0.,-1.,0.));
#1014=DIRECTION('',(1.,0.,0.));
#1015=DIRECTION('center_axis',(0.,1.,0.));
#1016=DIRECTION('ref_axis',(0.707106781186548,0.,0.707106781186548));
#1017=DIRECTION('center_axis',(0.,1.,0.));
#1018=DIRECTION('ref_axis',(0.707106781186548,0.,0.707106781186548));
#1019=DIRECTION('center_axis',(0.,0.,1.));
#1020=DIRECTION('ref_axis',(1.,0.,0.));
#1021=DIRECTION('',(-1.,0.,0.));
#1022=DIRECTION('center_axis',(0.,-1.,0.));
#1023=DIRECTION('ref_axis',(-0.707106781186547,0.,-0.707106781186547));
#1024=DIRECTION('center_axis',(0.,1.,0.));
#1025=DIRECTION('ref_axis',(-0.707106781186547,0.,-0.707106781186547));
#1026=DIRECTION('',(0.,1.,0.));
#1027=DIRECTION('center_axis',(0.,-1.,0.));
#1028=DIRECTION('ref_axis',(-0.707106781186547,0.,-0.707106781186547));
#1029=DIRECTION('',(0.,-1.,0.));
#1030=DIRECTION('center_axis',(-1.,0.,0.));
#1031=DIRECTION('ref_axis',(0.,-1.,0.));
#1032=DIRECTION('',(0.,0.,1.));
#1033=DIRECTION('',(0.,-1.,0.));
#1034=DIRECTION('',(0.,0.,1.));
#1035=DIRECTION('center_axis',(0.,-1.,0.));
#1036=DIRECTION('ref_axis',(1.,0.,0.));
#1037=DIRECTION('',(1.,0.,0.));
#1038=DIRECTION('center_axis',(0.,1.,0.));
#1039=DIRECTION('ref_axis',(0.707106781186547,0.,-0.707106781186547));
#1040=DIRECTION('center_axis',(0.,1.,0.));
#1041=DIRECTION('ref_axis',(0.707106781186547,0.,0.707106781186547));
#1042=DIRECTION('',(1.,0.,0.));
#1043=DIRECTION('center_axis',(0.,1.,0.));
#1044=DIRECTION('ref_axis',(-0.707106781186547,0.,0.707106781186547));
#1045=DIRECTION('center_axis',(0.,1.,0.));
#1046=DIRECTION('ref_axis',(0.707106781186547,0.,-0.707106781186547));
#1047=DIRECTION('center_axis',(0.,-1.,0.));
#1048=DIRECTION('ref_axis',(0.707106781186547,0.,-0.707106781186547));
#1049=DIRECTION('',(0.,1.,0.));
#1050=DIRECTION('center_axis',(0.,1.,0.));
#1051=DIRECTION('ref_axis',(-1.,0.,0.));
#1052=DIRECTION('center_axis',(0.,-1.,0.));
#1053=DIRECTION('ref_axis',(-0.707106781186547,0.,0.707106781186547));
#1054=DIRECTION('',(-1.,0.,0.));
#1055=DIRECTION('center_axis',(0.,-1.,0.));
#1056=DIRECTION('ref_axis',(0.707106781186547,0.,0.707106781186547));
#1057=DIRECTION('',(-1.,0.,0.));
#1058=DIRECTION('center_axis',(0.,-1.,0.));
#1059=DIRECTION('ref_axis',(-0.707106781186547,0.,0.707106781186547));
#1060=DIRECTION('',(0.,1.,0.));
#1061=DIRECTION('center_axis',(0.,0.,1.));
#1062=DIRECTION('ref_axis',(1.,0.,0.));
#1063=DIRECTION('',(0.,-1.,0.));
#1064=DIRECTION('center_axis',(0.,1.,0.));
#1065=DIRECTION('ref_axis',(0.707106781186547,0.,0.707106781186547));
#1066=DIRECTION('center_axis',(0.,0.,1.));
#1067=DIRECTION('ref_axis',(1.,0.,0.));
#1068=CARTESIAN_POINT('',(0.,0.,0.));
#1069=CARTESIAN_POINT('Origin',(-31.5,-30.0000004470348,14.9500001937151));
#1070=CARTESIAN_POINT('',(-31.5,-20.5000003054738,14.9500001937151));
#1071=CARTESIAN_POINT('',(-31.5,-30.0000004470348,14.9500001937151));
#1072=CARTESIAN_POINT('',(-31.5,-40.0000002235174,14.9500001937151));
#1073=CARTESIAN_POINT('',(-46.5,-20.5000003054738,14.9500001937151));
#1074=CARTESIAN_POINT('',(-31.5,-20.5000003054738,14.9500001937151));
#1075=CARTESIAN_POINT('',(-46.5,-30.0000004470348,14.9500001937151));
#1076=CARTESIAN_POINT('',(-46.5,-30.0000004470348,14.9500001937151));
#1077=CARTESIAN_POINT('',(-31.5,-30.0000004470348,14.9500001937151));
#1078=CARTESIAN_POINT('Origin',(-31.5,-30.0000004470348,13.9500001937151));
#1079=CARTESIAN_POINT('',(-31.5,-30.0000004470348,13.9500001937151));
#1080=CARTESIAN_POINT('',(-31.5,-30.0000004470348,6.97500009685755));
#1081=CARTESIAN_POINT('',(-46.5,-30.0000004470348,13.9500001937151));
#1082=CARTESIAN_POINT('',(-46.5,-30.0000004470348,13.9500001937151));
#1083=CARTESIAN_POINT('',(-31.5,-30.0000004470348,13.9500001937151));
#1084=CARTESIAN_POINT('Origin',(-31.5,-20.5000003054738,13.9500001937151));
#1085=CARTESIAN_POINT('',(-31.5,-20.5000003054738,13.9500001937151));
#1086=CARTESIAN_POINT('',(-31.5,-35.2500001527369,13.9500001937151));
#1087=CARTESIAN_POINT('',(-46.5,-20.5000003054738,13.9500001937151));
#1088=CARTESIAN_POINT('',(-46.5,-20.5000003054738,13.9500001937151));
#1089=CARTESIAN_POINT('',(-31.5,-20.5000003054738,13.9500001937151));
#1090=CARTESIAN_POINT('Origin',(-31.5,-20.5000003054738,14.9500001937151));
#1091=CARTESIAN_POINT('',(-31.5,-20.5000003054738,7.47500009685755));
#1092=CARTESIAN_POINT('',(-46.5,-20.5000003054738,14.9500001937151));
#1093=CARTESIAN_POINT('Origin',(-46.5,-25.2500003762543,14.4500001937151));
#1094=CARTESIAN_POINT('Origin',(-30.,-29.5000004395843,19.5000002905726));
#1095=CARTESIAN_POINT('',(-31.5,-20.5000003054738,19.5000002905726));
#1096=CARTESIAN_POINT('',(-31.5,-29.5000004395843,19.5000002905726));
#1097=CARTESIAN_POINT('',(-31.5,-39.7500002197921,19.5000002905726));
#1098=CARTESIAN_POINT('',(-30.,-20.5000003054738,19.5000002905726));
#1099=CARTESIAN_POINT('',(-30.,-20.5000003054738,19.5000002905726));
#1100=CARTESIAN_POINT('',(-30.,-29.5000004395843,19.5000002905726));
#1101=CARTESIAN_POINT('',(-30.,-39.7500002197921,19.5000002905726));
#1102=CARTESIAN_POINT('',(-30.,-29.5000004395843,19.5000002905726));
#1103=CARTESIAN_POINT('Origin',(-30.,-29.5000004395843,16.0000002384186));
#1104=CARTESIAN_POINT('',(-31.5,-29.5000004395843,16.0000002384186));
#1105=CARTESIAN_POINT('',(-31.5,-29.5000004395843,8.00000011920929));
#1106=CARTESIAN_POINT('',(-30.,-29.5000004395843,16.0000002384186));
#1107=CARTESIAN_POINT('',(-30.,-29.5000004395843,8.00000011920929));
#1108=CARTESIAN_POINT('',(-30.,-29.5000004395843,16.0000002235174));
#1109=CARTESIAN_POINT('Origin',(-30.,-20.5000003054738,19.5000002905726));
#1110=CARTESIAN_POINT('',(-31.5,-20.5000003054738,16.0000002384186));
#1111=CARTESIAN_POINT('',(-31.5,-20.5000003054738,9.75000014528632));
#1112=CARTESIAN_POINT('',(-30.,-20.5000003054738,16.0000002384186));
#1113=CARTESIAN_POINT('',(-30.,-20.5000003054738,16.0000002235174));
#1114=CARTESIAN_POINT('',(-30.,-20.5000003054738,9.75000014528632));
#1115=CARTESIAN_POINT('Origin',(-31.5,-50.,0.));
#1116=CARTESIAN_POINT('',(-31.5,-1.5,10.));
#1117=CARTESIAN_POINT('',(-31.5,-50.,10.));
#1118=CARTESIAN_POINT('',(-31.5,-37.5,10.));
#1119=CARTESIAN_POINT('',(-31.5,-50.,40.));
#1120=CARTESIAN_POINT('',(-31.5,-50.,0.));
#1121=CARTESIAN_POINT('',(-31.5,-1.5,40.));
#1122=CARTESIAN_POINT('',(-31.5,-37.5,40.));
#1123=CARTESIAN_POINT('',(-31.5,-1.5,0.));
#1124=CARTESIAN_POINT('',(-31.5,-34.0000005066395,16.0000002235174));
#1125=CARTESIAN_POINT('',(-31.5,-42.0000002533197,16.0000002235174));
#1126=CARTESIAN_POINT('',(-31.5,-34.0000005066395,15.0000002235174));
#1127=CARTESIAN_POINT('',(-31.5,-34.0000005066395,7.50000011175871));
#1128=CARTESIAN_POINT('',(-31.5,-16.2000005066395,15.0000002235174));
#1129=CARTESIAN_POINT('',(-31.5,-33.1000002533197,15.0000002235174));
#1130=CARTESIAN_POINT('',(-31.5,-16.2000005066395,16.0000002235174));
#1131=CARTESIAN_POINT('',(-31.5,-16.2000005066395,8.00000011175871));
#1132=CARTESIAN_POINT('',(-31.5,-42.0000002533197,16.0000002235174));
#1133=CARTESIAN_POINT('Origin',(-30.,-34.0000005066395,16.0000002235174));
#1134=CARTESIAN_POINT('',(-30.,-34.0000005066395,16.0000002235174));
#1135=CARTESIAN_POINT('',(-30.,-42.0000002533197,16.0000002235174));
#1136=CARTESIAN_POINT('',(-30.,-34.0000005066395,16.0000002235174));
#1137=CARTESIAN_POINT('Origin',(-30.,-50.,0.));
#1138=CARTESIAN_POINT('',(-30.,0.,10.));
#1139=CARTESIAN_POINT('',(-30.,-50.,10.));
#1140=CARTESIAN_POINT('',(-30.,-37.5,10.));
#1141=CARTESIAN_POINT('',(-30.,0.,40.));
#1142=CARTESIAN_POINT('',(-30.,0.,0.));
#1143=CARTESIAN_POINT('',(-30.,-50.,40.));
#1144=CARTESIAN_POINT('',(-30.,-37.5,40.));
#1145=CARTESIAN_POINT('',(-30.,-50.,0.));
#1146=CARTESIAN_POINT('',(-30.,-16.2000005066395,16.0000002235174));
#1147=CARTESIAN_POINT('',(-30.,-42.0000002533197,16.0000002235174));
#1148=CARTESIAN_POINT('',(-30.,-16.2000005066395,15.0000002235174));
#1149=CARTESIAN_POINT('',(-30.,-16.2000005066395,8.00000011175871));
#1150=CARTESIAN_POINT('',(-30.,-34.0000005066395,15.0000002235174));
#1151=CARTESIAN_POINT('',(-30.,-33.1000002533197,15.0000002235174));
#1152=CARTESIAN_POINT('',(-30.,-34.0000005066395,7.50000011175871));
#1153=CARTESIAN_POINT('Origin',(-30.,-34.0000005066395,16.0000002235174));
#1154=CARTESIAN_POINT('',(-30.,-16.2000005066395,16.0000002235174));
#1155=CARTESIAN_POINT('Origin',(-30.,-34.0000005066395,15.0000002235174));
#1156=CARTESIAN_POINT('',(-30.,-34.0000005066395,15.0000002235174));
#1157=CARTESIAN_POINT('Origin',(-30.,-16.2000005066395,15.0000002235174));
#1158=CARTESIAN_POINT('',(-30.,-16.2000005066395,15.0000002235174));
#1159=CARTESIAN_POINT('Origin',(-30.,-16.2000005066395,16.0000002235174));
#1160=CARTESIAN_POINT('Origin',(-46.9997551430934,0.,17.7498129515978));
#1161=CARTESIAN_POINT('',(-46.9997551430934,-1.5,32.2498129515978));
#1162=CARTESIAN_POINT('',(-46.9997551430934,-1.5,17.7498129515978));
#1163=CARTESIAN_POINT('',(-46.9997551430934,-1.5,8.87490647579889));
#1164=CARTESIAN_POINT('',(-46.9997551430934,0.,32.2498129515978));
#1165=CARTESIAN_POINT('',(-46.9997551430934,0.,32.2498129515978));
#1166=CARTESIAN_POINT('',(-46.9997551430934,0.,17.7498129515978));
#1167=CARTESIAN_POINT('',(-46.9997551430934,0.,8.87490647579889));
#1168=CARTESIAN_POINT('',(-46.9997551430934,0.,17.7498129515978));
#1169=CARTESIAN_POINT('Origin',(-72.9997551430934,0.,17.7498129515978));
#1170=CARTESIAN_POINT('',(-72.9997551430934,-1.5,17.7498129515978));
#1171=CARTESIAN_POINT('',(-51.4998775715467,-1.5,17.7498129515978));
#1172=CARTESIAN_POINT('',(-72.9997551430934,0.,17.7498129515978));
#1173=CARTESIAN_POINT('',(-51.4998775715467,0.,17.7498129515978));
#1174=CARTESIAN_POINT('',(-72.9997551430934,0.,17.7498129515978));
#1175=CARTESIAN_POINT('Origin',(-72.9997551430934,0.,32.2498129515978));
#1176=CARTESIAN_POINT('',(-72.9997551430934,-1.5,32.2498129515978));
#1177=CARTESIAN_POINT('',(-72.9997551430934,-1.5,16.1249064757989));
#1178=CARTESIAN_POINT('',(-72.9997551430934,0.,32.2498129515978));
#1179=CARTESIAN_POINT('',(-72.9997551430934,0.,16.1249064757989));
#1180=CARTESIAN_POINT('',(-72.9997551430934,0.,32.2498129515978));
#1181=CARTESIAN_POINT('Origin',(-46.9997551430934,0.,32.2498129515978));
#1182=CARTESIAN_POINT('',(-38.4998775715467,-1.5,32.2498129515978));
#1183=CARTESIAN_POINT('',(-38.4998775715467,0.,32.2498129515978));
#1184=CARTESIAN_POINT('Origin',(-60.5000010728836,-38.0000005662441,48.5));
#1185=CARTESIAN_POINT('',(-60.5000010728836,-38.0000005662441,48.5));
#1186=CARTESIAN_POINT('',(-60.5000010728836,-22.5000005662441,48.5));
#1187=CARTESIAN_POINT('',(-60.5000010728836,-31.5000002831221,48.5));
#1188=CARTESIAN_POINT('',(-60.5000010728836,-38.0000005662441,49.5));
#1189=CARTESIAN_POINT('',(-60.5000010728836,-38.0000005662441,48.5));
#1190=CARTESIAN_POINT('',(-60.5000010728836,-22.5000005662441,49.5));
#1191=CARTESIAN_POINT('',(-60.5000010728836,-38.0000005662441,49.5));
#1192=CARTESIAN_POINT('',(-60.5000010728836,-22.5000005662441,48.5));
#1193=CARTESIAN_POINT('Origin',(-72.0000010728836,-38.0000005662441,48.5));
#1194=CARTESIAN_POINT('',(-72.0000010728836,-38.0000005662441,48.5));
#1195=CARTESIAN_POINT('',(-66.0000005364418,-38.0000005662441,48.5));
#1196=CARTESIAN_POINT('',(-72.0000010728836,-38.0000005662441,49.5));
#1197=CARTESIAN_POINT('',(-72.0000010728836,-38.0000005662441,48.5));
#1198=CARTESIAN_POINT('',(-72.0000010728836,-38.0000005662441,49.5));
#1199=CARTESIAN_POINT('Origin',(-72.0000010728836,-22.5000005662441,48.5));
#1200=CARTESIAN_POINT('',(-72.0000010728836,-22.5000005662441,48.5));
#1201=CARTESIAN_POINT('',(-72.0000010728836,-23.7500002831221,48.5));
#1202=CARTESIAN_POINT('',(-72.0000010728836,-22.5000005662441,49.5));
#1203=CARTESIAN_POINT('',(-72.0000010728836,-22.5000005662441,48.5));
#1204=CARTESIAN_POINT('',(-72.0000010728836,-22.5000005662441,49.5));
#1205=CARTESIAN_POINT('Origin',(-60.5000010728836,-22.5000005662441,48.5));
#1206=CARTESIAN_POINT('',(-60.2500005364418,-22.5000005662441,48.5));
#1207=CARTESIAN_POINT('',(-60.5000010728836,-22.5000005662441,49.5));
#1208=CARTESIAN_POINT('Origin',(-66.2500010728836,-30.2500005662441,49.5));
#1209=CARTESIAN_POINT('Origin',(-80.,-12.5,10.));
#1210=CARTESIAN_POINT('',(-80.,-50.,1.5));
#1211=CARTESIAN_POINT('',(-88.5,-50.,10.));
#1212=CARTESIAN_POINT('Origin',(-80.,-50.,10.));
#1213=CARTESIAN_POINT('',(-80.,-1.5,1.5));
#1214=CARTESIAN_POINT('',(-80.,-12.5,1.5));
#1215=CARTESIAN_POINT('',(-88.5,-1.5,10.));
#1216=CARTESIAN_POINT('Origin',(-80.,-1.5,10.));
#1217=CARTESIAN_POINT('',(-88.5,-12.5,10.));
#1218=CARTESIAN_POINT('Origin',(-88.5,0.,0.));
#1219=CARTESIAN_POINT('',(-88.5,-1.5,40.));
#1220=CARTESIAN_POINT('',(-88.5,-1.5,0.));
#1221=CARTESIAN_POINT('',(-88.5,-50.,40.));
#1222=CARTESIAN_POINT('',(-88.5,-12.5,40.));
#1223=CARTESIAN_POINT('',(-88.5,-50.,0.));
#1224=CARTESIAN_POINT('Origin',(-40.,-37.5,10.));
#1225=CARTESIAN_POINT('',(-40.,-1.5,1.5));
#1226=CARTESIAN_POINT('Origin',(-40.,-1.5,10.));
#1227=CARTESIAN_POINT('',(-40.,-50.,1.5));
#1228=CARTESIAN_POINT('',(-40.,-37.5,1.5));
#1229=CARTESIAN_POINT('Origin',(-40.,-50.,10.));
#1230=CARTESIAN_POINT('Origin',(-30.,-1.5,0.));
#1231=CARTESIAN_POINT('',(-45.,-1.5,1.5));
#1232=CARTESIAN_POINT('',(-40.,-1.5,48.5));
#1233=CARTESIAN_POINT('Origin',(-40.,-1.5,40.));
#1234=CARTESIAN_POINT('',(-80.,-1.5,48.5));
#1235=CARTESIAN_POINT('',(-45.,-1.5,48.5));
#1236=CARTESIAN_POINT('Origin',(-80.,-1.5,40.));
#1237=CARTESIAN_POINT('Origin',(-80.,-12.5,40.));
#1238=CARTESIAN_POINT('',(-80.,-50.,48.5));
#1239=CARTESIAN_POINT('Origin',(-80.,-50.,40.));
#1240=CARTESIAN_POINT('',(-80.,-12.5,48.5));
#1241=CARTESIAN_POINT('Origin',(-60.,-25.,48.5));
#1242=CARTESIAN_POINT('',(-40.,-50.,48.5));
#1243=CARTESIAN_POINT('',(-40.,-37.5,48.5));
#1244=CARTESIAN_POINT('',(-75.,-50.,48.5));
#1245=CARTESIAN_POINT('Origin',(-40.,-37.5,40.));
#1246=CARTESIAN_POINT('Origin',(-40.,-50.,40.));
#1247=CARTESIAN_POINT('Origin',(-60.,-25.,1.5));
#1248=CARTESIAN_POINT('',(-75.,-50.,1.5));
#1249=CARTESIAN_POINT('Origin',(-80.,-12.5,10.));
#1250=CARTESIAN_POINT('',(-80.,-50.,0.));
#1251=CARTESIAN_POINT('',(-90.,-50.,10.));
#1252=CARTESIAN_POINT('Origin',(-80.,-50.,10.));
#1253=CARTESIAN_POINT('',(-90.,0.,10.));
#1254=CARTESIAN_POINT('',(-90.,-12.5,10.));
#1255=CARTESIAN_POINT('',(-80.,0.,0.));
#1256=CARTESIAN_POINT('Origin',(-80.,0.,10.));
#1257=CARTESIAN_POINT('',(-80.,-12.5,0.));
#1258=CARTESIAN_POINT('Origin',(-90.,0.,0.));
#1259=CARTESIAN_POINT('',(-90.,-50.,40.));
#1260=CARTESIAN_POINT('',(-90.,-50.,0.));
#1261=CARTESIAN_POINT('',(-90.,0.,40.));
#1262=CARTESIAN_POINT('',(-90.,-12.5,40.));
#1263=CARTESIAN_POINT('',(-90.,0.,0.));
#1264=CARTESIAN_POINT('Origin',(-90.,-50.,0.));
#1265=CARTESIAN_POINT('',(-40.,-50.,0.));
#1266=CARTESIAN_POINT('',(-90.,-50.,0.));
#1267=CARTESIAN_POINT('Origin',(-40.,-50.,10.));
#1268=CARTESIAN_POINT('',(-40.,-50.,50.));
#1269=CARTESIAN_POINT('Origin',(-40.,-50.,40.));
#1270=CARTESIAN_POINT('',(-80.,-50.,50.));
#1271=CARTESIAN_POINT('',(-90.,-50.,50.));
#1272=CARTESIAN_POINT('Origin',(-80.,-50.,40.));
#1273=CARTESIAN_POINT('Origin',(-40.,-37.5,10.));
#1274=CARTESIAN_POINT('',(-40.,0.,0.));
#1275=CARTESIAN_POINT('Origin',(-40.,0.,10.));
#1276=CARTESIAN_POINT('',(-40.,-37.5,0.));
#1277=CARTESIAN_POINT('Origin',(-30.,0.,0.));
#1278=CARTESIAN_POINT('',(-80.,0.,50.));
#1279=CARTESIAN_POINT('Origin',(-80.,0.,40.));
#1280=CARTESIAN_POINT('',(-40.,0.,50.));
#1281=CARTESIAN_POINT('',(-30.,0.,50.));
#1282=CARTESIAN_POINT('Origin',(-40.,0.,40.));
#1283=CARTESIAN_POINT('',(-30.,0.,0.));
#1284=CARTESIAN_POINT('Origin',(-80.,-12.5,40.));
#1285=CARTESIAN_POINT('',(-80.,-12.5,50.));
#1286=CARTESIAN_POINT('Origin',(-60.,-25.,50.));
#1287=CARTESIAN_POINT('',(-40.,-37.5,50.));
#1288=CARTESIAN_POINT('Origin',(-40.,-37.5,40.));
#1289=CARTESIAN_POINT('Origin',(-60.,-25.,0.));
#1290=UNCERTAINTY_MEASURE_WITH_UNIT(LENGTH_MEASURE(0.01),#1294,
'DISTANCE_ACCURACY_VALUE',
'Maximum model space distance between geometric entities at asserted c
onnectivities');
#1291=UNCERTAINTY_MEASURE_WITH_UNIT(LENGTH_MEASURE(0.01),#1294,
'DISTANCE_ACCURACY_VALUE',
'Maximum model space distance between geometric entities at asserted c
onnectivities');
#1292=(
GEOMETRIC_REPRESENTATION_CONTEXT(3)
GLOBAL_UNCERTAINTY_ASSIGNED_CONTEXT((#1290))
GLOBAL_UNIT_ASSIGNED_CONTEXT((#1294,#1296,#1297))
REPRESENTATION_CONTEXT('','3D')
);
#1293=(
GEOMETRIC_REPRESENTATION_CONTEXT(3)
GLOBAL_UNCERTAINTY_ASSIGNED_CONTEXT((#1291))
GLOBAL_UNIT_ASSIGNED_CONTEXT((#1294,#1296,#1297))
REPRESENTATION_CONTEXT('','3D')
);
#1294=(
LENGTH_UNIT()
NAMED_UNIT(*)
SI_UNIT(.MILLI.,.METRE.)
);
#1295=(
LENGTH_UNIT()
NAMED_UNIT(*)
SI_UNIT($,.METRE.)
);
#1296=(
NAMED_UNIT(*)
PLANE_ANGLE_UNIT()
SI_UNIT($,.RADIAN.)
);
#1297=(
NAMED_UNIT(*)
SI_UNIT($,.STERADIAN.)
SOLID_ANGLE_UNIT()
);
#1298=SHAPE_DEFINITION_REPRESENTATION(#1299,#1300);
#1299=PRODUCT_DEFINITION_SHAPE('',$,#1302);
#1300=SHAPE_REPRESENTATION('',(#802),#1292);
#1301=PRODUCT_DEFINITION_CONTEXT('part definition',#1306,'design');
#1302=PRODUCT_DEFINITION('Final desk front','Final desk front v7',#1303,
#1301);
#1303=PRODUCT_DEFINITION_FORMATION('',$,#1308);
#1304=PRODUCT_RELATED_PRODUCT_CATEGORY('Final desk front v7',
'Final desk front v7',(#1308));
#1305=APPLICATION_PROTOCOL_DEFINITION('international standard',
'automotive_design',2009,#1306);
#1306=APPLICATION_CONTEXT(
'Core Data for Automotive Mechanical Design Process');
#1307=PRODUCT_CONTEXT('part definition',#1306,'mechanical');
#1308=PRODUCT('Final desk front','Final desk front v7',$,(#1307));
#1309=PRESENTATION_STYLE_ASSIGNMENT((#1310));
#1310=SURFACE_STYLE_USAGE(.BOTH.,#1311);
#1311=SURFACE_SIDE_STYLE('',(#1312));
#1312=SURFACE_STYLE_FILL_AREA(#1313);
#1313=FILL_AREA_STYLE('Steel - Satin',(#1314));
#1314=FILL_AREA_STYLE_COLOUR('Steel - Satin',#1315);
#1315=COLOUR_RGB('Steel - Satin',0.627450980392157,0.627450980392157,0.627450980392157);
ENDSEC;
END-ISO-10303-21;
